<svg xmlns="http://www.w3.org/2000/svg" id="_015---Build-Blockchain" data-name="015---Build-Blockchain" width="56" height="56" viewBox="0 0 56 56"><path id="Shape" d="M29.15,38.466a.933.933,0,0,0,.458-.12l10.967-6.179a.933.933,0,0,0,.4-1.172,3.72,3.72,0,0,0-1.6-1.789l-8.406-4.734a3.733,3.733,0,0,0-3.655,0L18.92,29.2A3.717,3.717,0,0,0,17.322,31a.933.933,0,0,0,.4,1.172l10.967,6.179a.933.933,0,0,0,.458.116Zm-9.314-7.635,8.4-4.728a1.884,1.884,0,0,1,1.832,0l8.4,4.729a2.053,2.053,0,0,1,.305.215L29.15,36.464l-9.613-5.413a1.952,1.952,0,0,1,.3-.217Z" transform="translate(-1.15 -1.6)" fill="#fff"></path><path id="Shape-2" data-name="Shape" d="M16.625,37a.933.933,0,0,0-1.315.441A3.682,3.682,0,0,0,15,38.915V50a3.733,3.733,0,0,0,1.9,3.249l8.4,4.732a3.733,3.733,0,0,0,1.83.475.933.933,0,0,0,.933-.933V43.992a.933.933,0,0,0-.475-.813ZM26.2,56.347l-8.38-4.721A1.871,1.871,0,0,1,16.867,50V39.279L26.2,44.537Z" transform="translate(-1 -2.459)" fill="#fff"></path><path id="Shape-3" data-name="Shape" d="M31.933,58.459a3.726,3.726,0,0,0,1.83-.475l8.4-4.732A3.733,3.733,0,0,0,44.067,50V38.915a3.682,3.682,0,0,0-.31-1.473A.933.933,0,0,0,42.442,37L31.475,43.179a.933.933,0,0,0-.475.813V57.525a.933.933,0,0,0,.933.933Zm.933-13.922L42.2,39.279V50a1.871,1.871,0,0,1-.953,1.623l-8.38,4.721Z" transform="translate(-2.067 -2.459)" fill="#fff"></path><path id="Path" d="M29.734,0A.933.933,0,0,0,28.8.933V17.347L27.594,16.14a.933.933,0,0,0-1.32,1.32l2.8,2.8a.933.933,0,0,0,1.322,0l2.8-2.8a.933.933,0,0,0-1.32-1.32l-1.209,1.207V.933A.933.933,0,0,0,29.734,0Z" transform="translate(-1.734)" fill="#fff"></path><path id="Path-2" data-name="Path" d="M.933,46.667H8.947L7.74,47.874a.933.933,0,1,0,1.32,1.32l2.8-2.8a.924.924,0,0,0,.2-.3.933.933,0,0,0,0-.713.924.924,0,0,0-.2-.3l-2.8-2.8a.933.933,0,0,0-1.32,1.32L8.947,44.8H.933a.933.933,0,0,0,0,1.867Z" transform="translate(0 -2.801)" fill="#fff"></path><path id="Path-3" data-name="Path" d="M58.2,44.8H50.186l1.207-1.207a.933.933,0,0,0-1.32-1.32l-2.8,2.8a.924.924,0,0,0-.2.3.933.933,0,0,0,0,.713.924.924,0,0,0,.2.3l2.8,2.8a.933.933,0,0,0,1.32-1.32l-1.207-1.209H58.2a.933.933,0,1,0,0-1.867Z" transform="translate(-3.133 -2.801)" fill="#fff"></path></svg>