<svg xmlns="http://www.w3.org/2000/svg" width="54.448" height="39.959" viewBox="0 0 54.448 39.959"><g id="Group_78" data-name="Group 78" transform="translate(0.5 0.5)"><g id="Group_79" data-name="Group 79" transform="translate(0 0)"><path id="Path_125" data-name="Path 125" d="M34.118.7a7.975,7.975,0,1,1-7.976,7.976A7.976,7.976,0,0,1,34.118.7Z" transform="translate(-7.395 -0.7)" fill="none" stroke="#191919" stroke-width="1"></path><path id="Path_126" data-name="Path 126" d="M28.561,16.548a7.975,7.975,0,0,1,12.485.125" transform="translate(-8.031 -4.094)" fill="none" stroke="#191919" stroke-width="1"></path><path id="Path_127" data-name="Path 127" d="M36.142,4.317a2.307,2.307,0,1,1-2.308,2.308A2.308,2.308,0,0,1,36.142,4.317Z" transform="translate(-9.419 -1.652)" fill="none" stroke="#191919" stroke-width="1"></path><path id="Path_128" data-name="Path 128" d="M34.118,31.848a7.975,7.975,0,1,1-7.976,7.976A7.976,7.976,0,0,1,34.118,31.848Z" transform="translate(-7.395 -8.896)" fill="none" stroke="#191919" stroke-width="1"></path><path id="Path_129" data-name="Path 129" d="M28.561,47.7a7.975,7.975,0,0,1,12.485.125" transform="translate(-8.031 -12.29)" fill="none" stroke="#191919" stroke-width="1"></path><path id="Path_130" data-name="Path 130" d="M36.142,35.466a2.307,2.307,0,1,1-2.308,2.308A2.308,2.308,0,0,1,36.142,35.466Z" transform="translate(-9.419 -9.848)" fill="none" stroke="#191919" stroke-width="1"></path><path id="Path_131" data-name="Path 131" d="M59.562,31.925A7.975,7.975,0,1,1,51.586,39.9,7.976,7.976,0,0,1,59.562,31.925Z" transform="translate(-14.09 -8.916)" fill="none" stroke="#191919" stroke-width="1"></path><path id="Path_132" data-name="Path 132" d="M54,47.773A7.975,7.975,0,0,1,66.49,47.9" transform="translate(-14.726 -12.31)" fill="none" stroke="#191919" stroke-width="1"></path><path id="Path_133" data-name="Path 133" d="M61.586,35.543a2.307,2.307,0,1,1-2.308,2.308A2.308,2.308,0,0,1,61.586,35.543Z" transform="translate(-16.114 -9.868)" fill="none" stroke="#191919" stroke-width="1"></path><path id="Path_134" data-name="Path 134" d="M8.676,31.848A7.975,7.975,0,1,1,.7,39.824,7.975,7.975,0,0,1,8.676,31.848Z" transform="translate(-0.7 -8.896)" fill="none" stroke="#191919" stroke-width="1"></path><path id="Path_135" data-name="Path 135" d="M3.118,47.7a7.975,7.975,0,0,1,12.485.125" transform="translate(-1.336 -12.29)" fill="none" stroke="#191919" stroke-width="1"></path><path id="Path_136" data-name="Path 136" d="M10.7,35.466a2.307,2.307,0,1,1-2.308,2.308A2.308,2.308,0,0,1,10.7,35.466Z" transform="translate(-2.724 -9.848)" fill="none" stroke="#191919" stroke-width="1"></path><line id="Line_38" data-name="Line 38" y2="7.001" transform="translate(26.723 15.951)" fill="none" stroke="#191919" stroke-width="1"></line><path id="Path_137" data-name="Path 137" d="M49.069,30.655V30.6a3.5,3.5,0,0,0-3.5-3.5H15.025a3.5,3.5,0,0,0-3.5,3.5" transform="translate(-3.548 -7.646)" fill="none" stroke="#191919" stroke-width="1"></path></g></g></svg>