<svg xmlns="http://www.w3.org/2000/svg" width="80" height="80" viewBox="0 0 80 80"><g id="Group_101" data-name="Group 101" transform="translate(-109 -2050)"><circle id="Ellipse_34" data-name="Ellipse 34" cx="40" cy="40" r="40" transform="translate(109 2050)" fill="#53a2c1"></circle><g id="Group_62" data-name="Group 62" transform="translate(120.625 2067.77)"><g id="Group_63" data-name="Group 63" transform="translate(0.675 0.677)"><path id="Path_77" data-name="Path 77" d="M39.959,6.483A5.335,5.335,0,1,1,35.31.54,5.336,5.336,0,0,1,39.959,6.483Z" transform="translate(-7.4 -0.5)" fill="none" stroke="#fff" stroke-width="1.4"></path><path id="Path_78" data-name="Path 78" d="M69.934,30.2a5.335,5.335,0,1,1-4.649-5.943A5.336,5.336,0,0,1,69.934,30.2Z" transform="translate(-14.574 -6.178)" fill="none" stroke="#fff" stroke-width="1.4"></path><path id="Path_79" data-name="Path 79" d="M11.131,30.2a5.335,5.335,0,1,1-4.649-5.943A5.336,5.336,0,0,1,11.131,30.2Z" transform="translate(-0.499 -6.178)" fill="none" stroke="#fff" stroke-width="1.4"></path><path id="Path_80" data-name="Path 80" d="M21.161,12.52a5.335,5.335,0,1,1-4.649-5.943A5.336,5.336,0,0,1,21.161,12.52Z" transform="translate(-2.9 -1.945)" fill="none" stroke="#fff" stroke-width="1.4"></path><path id="Path_81" data-name="Path 81" d="M58.647,12.52A5.335,5.335,0,1,1,54,6.577,5.336,5.336,0,0,1,58.647,12.52Z" transform="translate(-11.873 -1.945)" fill="none" stroke="#fff" stroke-width="1.4"></path><path id="Path_82" data-name="Path 82" d="M45.847,46.991a2.161,2.161,0,0,1-1.863,2.368H22.068a2.161,2.161,0,0,1-1.862-2.368v-5.92A2.161,2.161,0,0,1,22.068,38.7H43.984a2.161,2.161,0,0,1,1.863,2.368Z" transform="translate(-5.216 -9.644)" fill="none" stroke="#fff" stroke-width="1.4"></path><path id="Path_83" data-name="Path 83" d="M45.847,46.991a2.161,2.161,0,0,1-1.863,2.368H22.068a2.161,2.161,0,0,1-1.862-2.368v-5.92A2.161,2.161,0,0,1,22.068,38.7H43.984a2.161,2.161,0,0,1,1.863,2.368Z" transform="translate(-5.216 -9.644)" fill="none" stroke="#fff" stroke-width="1.4"></path><path id="Path_84" data-name="Path 84" d="M45.847,32.981a2.161,2.161,0,0,1-1.863,2.368H22.068a2.161,2.161,0,0,1-1.862-2.368v-5.92a2.161,2.161,0,0,1,1.862-2.368H43.984a2.161,2.161,0,0,1,1.863,2.368Z" transform="translate(-5.216 -6.291)" fill="none" stroke="#fff" stroke-width="1.4"></path><path id="Path_85" data-name="Path 85" d="M45.847,32.981a2.161,2.161,0,0,1-1.863,2.368H22.068a2.161,2.161,0,0,1-1.862-2.368v-5.92a2.161,2.161,0,0,1,1.862-2.368H43.984a2.161,2.161,0,0,1,1.863,2.368Z" transform="translate(-5.216 -6.291)" fill="none" stroke="#fff" stroke-linejoin="round" stroke-width="1.4"></path><line id="Line_23" data-name="Line 23" x2="4.053" transform="translate(40.749 23.73)" fill="none" stroke="#fff" stroke-width="1.4"></line><line id="Line_24" data-name="Line 24" x2="4.053" transform="translate(10.804 23.73)" fill="none" stroke="#fff" stroke-width="1.4"></line><line id="Line_25" data-name="Line 25" x2="2.624" y2="3.49" transform="translate(16.496 14.001)" fill="none" stroke="#fff" stroke-width="1.4"></line><line id="Line_26" data-name="Line 26" x1="2.624" y2="3.49" transform="translate(35.934 14.001)" fill="none" stroke="#fff" stroke-width="1.4"></line><line id="Line_27" data-name="Line 27" y1="7.73" transform="translate(27.538 10.671)" fill="none" stroke="#fff" stroke-width="1.4"></line><line id="Line_28" data-name="Line 28" y2="10.311" transform="translate(19.12 18.401)" fill="none" stroke="#fff" stroke-width="1.4"></line><line id="Line_29" data-name="Line 29" y2="10.311" transform="translate(21.928 18.574)" fill="none" stroke="#fff" stroke-width="1.4"></line><line id="Line_30" data-name="Line 30" y2="10.311" transform="translate(25.08 18.574)" fill="none" stroke="#fff" stroke-width="1.4"></line></g></g></g></svg>