<svg xmlns="http://www.w3.org/2000/svg" xmlns:xlink="http://www.w3.org/1999/xlink" width="54.484" height="59.227" viewBox="0 0 54.484 59.227"><defs><clipPath id="clip-path"><path id="Path_389" data-name="Path 389" d="M241.712,0l.018.661c.018.657.061,1.316.094,1.972.047.639.054,1.241.1,1.906,0,0,0,.008,0,.012v.021a16.026,16.026,0,0,1-.133,2.62c-.088.875-.312,1.741-.389,2.672a7.839,7.839,0,0,0-.014,1.4c.013.108.028.219.047.332a12.1,12.1,0,0,0-.354,2.681,1.954,1.954,0,0,0,.215,1,.7.7,0,0,0,.154.166.942.942,0,0,0,.122.071l.06.026.184.078q.186.072.369.154a14.451,14.451,0,0,1,1.428.715,18.655,18.655,0,0,1,4.864,4.157,55.647,55.647,0,0,1,3.816,5.289,26.218,26.218,0,0,0,1.953,2.685,7.163,7.163,0,0,0,1.251,1.167,3.356,3.356,0,0,0,1.665.64l.52.039-.229-.5a15.8,15.8,0,0,1-1.093-4.19c-.217-1.452-.28-2.921-.4-4.42a51.922,51.922,0,0,0-1.391-8.895,20.913,20.913,0,0,0-1.576-4.292,11.85,11.85,0,0,0-2.831-3.713,11.573,11.573,0,0,0-4.092-2.16A10.453,10.453,0,0,1,242.192.436Z" transform="translate(-241.081 0.001)" fill="none"></path></clipPath><linearGradient id="linear-gradient" x1="-0.202" y1="1.809" x2="-0.2" y2="1.809" gradientUnits="objectBoundingBox"><stop offset="0" stop-color="#49ecfc"></stop><stop offset="0.036" stop-color="#46e8fa"></stop><stop offset="0.688" stop-color="#13addb"></stop><stop offset="1" stop-color="#0096cf"></stop></linearGradient><clipPath id="clip-path-2"><path id="Path_390" data-name="Path 390" d="M.014,152.471a.089.089,0,0,0,.019.118l.013.01a2.786,2.786,0,0,1,.635.855c.177.322.336.657.484,1,.3.685.575,1.368.863,2.076a7.339,7.339,0,0,0,.541,1.03,2.357,2.357,0,0,0,.87.876,6.551,6.551,0,0,1,.5,1.478,8.035,8.035,0,0,0,.721,2.017,2.659,2.659,0,0,0,.784.881,2.113,2.113,0,0,0,.866.366,10.672,10.672,0,0,1,.543,1.626,15.774,15.774,0,0,0,.741,2.275,4.192,4.192,0,0,0,.67,1.085,2.181,2.181,0,0,0,1.187.732,1.444,1.444,0,0,0,.263.023,8.213,8.213,0,0,1,.644,1.347,20.28,20.28,0,0,0,.892,2.132,4.724,4.724,0,0,0,.7,1.013,2.346,2.346,0,0,0,.779.557,11.415,11.415,0,0,1,.58,1.194,13.367,13.367,0,0,0,1.033,2.153,3.73,3.73,0,0,0,.857.957,2.28,2.28,0,0,0,1.01.433c.039.061.076.124.111.189.152.255.287.529.442.8a3.125,3.125,0,0,0,.606.786,2.061,2.061,0,0,0,.944.452,1.377,1.377,0,0,0,.247.018,8.513,8.513,0,0,1-3.117,3.681,9.756,9.756,0,0,1-2.347,1.122,14.561,14.561,0,0,1-2.58.539A39.131,39.131,0,0,0,5.143,187.3a8.689,8.689,0,0,0-1.312.491,2.718,2.718,0,0,0-1.14.916,1.982,1.982,0,0,0-.32,1.428,1.736,1.736,0,0,0,.567.953,3.438,3.438,0,0,0-.925,1.236,2.129,2.129,0,0,0-.176,1.03,1.894,1.894,0,0,0,1.14,1.631,1.4,1.4,0,0,0,.944.013c-.014.031-.032.059-.046.09a4.4,4.4,0,0,0-.312,1.031,2.088,2.088,0,0,0,.085,1.143,1.565,1.565,0,0,0,.816.831,2.4,2.4,0,0,0,1.08.2,3.34,3.34,0,0,0,1.415-.356,3.931,3.931,0,0,0-.172,1.181,1.932,1.932,0,0,0,.274,1.007,1.39,1.39,0,0,0,.874.6,3.2,3.2,0,0,0,1.643-.139,3.724,3.724,0,0,0-.078.5,1.314,1.314,0,0,0,.117.617,1,1,0,0,0,.48.476,1.529,1.529,0,0,0,1.17-.033,2.611,2.611,0,0,0,1.408-1.4,3.876,3.876,0,0,0,1.4-.394,4.626,4.626,0,0,0,1.237-1.01,17.047,17.047,0,0,0,1.794-2.486c.534-.86,1.01-1.749,1.529-2.571a7.879,7.879,0,0,1,1.827-2.135,6.683,6.683,0,0,1,2.553-1.081c.941-.22,1.923-.359,2.908-.49l2.982-.366a20.337,20.337,0,0,0,3.021-.616,14.232,14.232,0,0,0,5.486-2.907,15.156,15.156,0,0,0,3.616-5.022c.438-.92.809-1.891,1.158-2.807s.744-1.826,1.185-2.7a14.638,14.638,0,0,1,1.529-2.481,5.52,5.52,0,0,1,1.619-1.457,4.113,4.113,0,0,0-.555.886,4.4,4.4,0,0,0-.375,1.96,11.093,11.093,0,0,0,.243,1.886l.03.16a1.639,1.639,0,0,0-.216-.116,1.462,1.462,0,0,0-1.118-.043,1.421,1.421,0,0,0-.805.811,1.216,1.216,0,0,0,.13,1.157,1.12,1.12,0,0,0,1.068.463.93.93,0,0,0,.776-.836.877.877,0,0,0-.151-.563.518.518,0,0,0-.551-.209l-.006,0a.1.1,0,0,0,.038.2c.267-.02.374.276.322.525a.542.542,0,0,1-.485.442.7.7,0,0,1-.6-.312.721.721,0,0,1-.055-.687.974.974,0,0,1,1.277-.535,1.234,1.234,0,0,1,.5.311l.2,1.035a17.8,17.8,0,0,1,.38,3.593,4.68,4.68,0,0,1-1.171,3.235c-.418.4-.951.752-1.432,1.125l-1.467,1.12,1.568-.972a18.568,18.568,0,0,0,1.553-1.033,4.928,4.928,0,0,0,1.479-3.445,21.927,21.927,0,0,0-.482-5.241,1.98,1.98,0,0,0,1.295-.743,3.584,3.584,0,0,0,.846-1.659c-.047-.05-.559-.019-1.321.722a4.3,4.3,0,0,0-.891,1.218c-.083-.549-.153-1.092-.188-1.625a3.636,3.636,0,0,1,.32-1.626c.015-.032.035-.061.05-.092a2.1,2.1,0,0,0,1.328.27A3.594,3.594,0,0,0,49.8,173c0-.068-.391-.4-1.453-.391a4.478,4.478,0,0,0-1.3.2,5.186,5.186,0,0,1,.633-.7c.015-.015.033-.028.049-.042.431,0,.86-.029,1.28-.069a.191.191,0,0,0,.175-.206.2.2,0,0,0-.071-.134c-.133-.106-.262-.218-.391-.331.129-.082.259-.162.39-.241.215-.134.453-.3.683-.451a2.033,2.033,0,0,0,1.42.211,3.587,3.587,0,0,0,1.7-.75c0-.068-.42-.368-1.479-.278a4.623,4.623,0,0,0-.873.162l.075-.069a7.249,7.249,0,0,0,1.291-1.922,1.923,1.923,0,0,0,1.452-.528,3.593,3.593,0,0,0,1.09-1.51c-.038-.057-.549-.1-1.416.51a4.621,4.621,0,0,0-.8.721c.069-.2.133-.4.186-.6a10.689,10.689,0,0,0,.306-3.539c-.016-.457-.07-.665-.057-.7a4.282,4.282,0,0,0-1.142,2.337,3.424,3.424,0,0,0,.295,2.235,8.4,8.4,0,0,1-.8,1.47,4.62,4.62,0,0,0,.054-1.078c-.071-1.06-.431-1.427-.5-1.42a3.592,3.592,0,0,0-.483,1.8,2.046,2.046,0,0,0,.414,1.362c-.118.135-.239.266-.368.39-.217.192-.441.378-.671.551-.254.153-.477.3-.752.459q-.3.176-.6.366l-.07-.063a8.562,8.562,0,0,1-.672-.695c0-.006,0-.011,0-.016a8.6,8.6,0,0,0-.99-3.673,5.453,5.453,0,0,0-1.225-1.534,4.639,4.639,0,0,0-1.767-.926,5.531,5.531,0,0,0-3.9.366,9.94,9.94,0,0,0-2.973,2.467c-.836.94-1.589,1.925-2.445,2.736a5.146,5.146,0,0,1-1.375.967,4.094,4.094,0,0,1-1.587.383,4.964,4.964,0,0,1-3.044-1.275,22.748,22.748,0,0,1-2.614-2.513c-.833-.906-1.6-1.847-2.42-2.8a29.311,29.311,0,0,0-2.635-2.7,25.294,25.294,0,0,0-6.286-4.157,26.2,26.2,0,0,0-3.529-1.322c-1.214-.35-2.393-.63-3.579-.993a40.345,40.345,0,0,1-6.865-2.6c-.012-.008-.022-.017-.034-.025a.089.089,0,0,0-.123.027" transform="translate(0 -152.43)" fill="none"></path></clipPath><linearGradient id="linear-gradient-2" x1="0.12" y1="0.841" x2="0.121" y2="0.841" xlink:href="#linear-gradient"></linearGradient><clipPath id="clip-path-3"><path id="Path_391" data-name="Path 391" d="M681.592,391.515a.657.657,0,1,0,.656-.657.656.656,0,0,0-.656.657" transform="translate(-681.592 -390.858)" fill="none"></path></clipPath><linearGradient id="linear-gradient-3" x1="-23.536" y1="20.006" x2="-23.502" y2="20.006" xlink:href="#linear-gradient"></linearGradient></defs><g id="Group_191" data-name="Group 191" transform="translate(0 0.001)"><g id="Group_192" data-name="Group 192" transform="translate(14.822 -0.001)"><g id="Group_191-2" data-name="Group 191" transform="translate(0 0)" clip-path="url(#clip-path)"><rect id="Rectangle_180" data-name="Rectangle 180" width="32.94" height="33.607" transform="translate(-15.214 14.195) rotate(-43.048)" fill="url(#linear-gradient)"></rect></g></g><g id="Group_194" data-name="Group 194" transform="translate(0 9.371)"><g id="Group_193" data-name="Group 193" transform="translate(0)" clip-path="url(#clip-path-2)"><rect id="Rectangle_181" data-name="Rectangle 181" width="71.691" height="73.004" transform="translate(-26.308 39.881) rotate(-56.642)" fill="url(#linear-gradient-2)"></rect><rect id="Rectangle_183" data-name="Rectangle 183" width="68" height="69" transform="translate(-32 -30.579)" fill="#fdd800"></rect></g></g><g id="Group_196" data-name="Group 196" transform="translate(41.906 24.03)"><g id="Group_195" data-name="Group 195" clip-path="url(#clip-path-3)"><rect id="Rectangle_182" data-name="Rectangle 182" width="1.771" height="1.771" transform="translate(-0.537 1.034) rotate(-62.537)" fill="url(#linear-gradient-3)"></rect></g></g></g></svg>