<svg xmlns="http://www.w3.org/2000/svg" width="56.015" height="56" viewBox="0 0 56.015 56"><g id="business-and-finance" transform="translate(0 0)"><path id="Path_75" data-name="Path 75" d="M93.911,18.578c0,.027-.016.052-.016.079a.978.978,0,0,0,.027.135,17.782,17.782,0,0,0,5.52,11.837,12.09,12.09,0,0,1,3.76,8.775v.724a2.789,2.789,0,0,0-2.072,4.668,2.789,2.789,0,0,0,2.072,4.668h1a7.462,7.462,0,0,0,14.809,0h1A2.789,2.789,0,0,0,122.08,44.8a2.789,2.789,0,0,0-2.072-4.668v-.724a12.1,12.1,0,0,1,3.763-8.775A17.738,17.738,0,0,0,113.6.095a18.348,18.348,0,0,0-2.859-.067c-.024,0-.046-.014-.07-.014a.863.863,0,0,0-.11.022A17.509,17.509,0,0,0,99.768,4.517a17.767,17.767,0,0,0-5.9,13.207C93.867,18.01,93.9,18.292,93.911,18.578Zm6.815,10.693a15.683,15.683,0,0,1-4.875-9.68h3.4a83.421,83.421,0,0,1,.333-.068.925.925,0,0,0,.179-.106.841.841,0,0,0,.113-.068c.007,0,.009-.012.014-.018a.95.95,0,0,0,.131-.177.971.971,0,0,0,.079-.118.9.9,0,0,0,.038-.154.925.925,0,0,0,.041-.2v-.023a.841.841,0,0,0-.028-.134.854.854,0,0,0-.04-.2.881.881,0,0,0-.106-.179.9.9,0,0,0-.068-.114,1.848,1.848,0,0,1-.472-1.241,1.867,1.867,0,0,1,3.734,0,1.847,1.847,0,0,1-.477,1.241.8.8,0,0,0-.067.114.861.861,0,0,0-.106.179.832.832,0,0,0-.04.2.8.8,0,0,0-.028.134v.023a3.921,3.921,0,0,0,.079.356,4.241,4.241,0,0,0,.21.3c.006.006.008.013.014.018a.811.811,0,0,0,.145.088.843.843,0,0,0,.135.083.932.932,0,0,0,.346.07h6.325V27.06a.916.916,0,0,0,.027.135.614.614,0,0,0,.147.378.9.9,0,0,0,.068.114c0,.006.012.007.018.013a.924.924,0,0,0,.178.132,1.094,1.094,0,0,0,.118.079,1.052,1.052,0,0,0,.154.038.959.959,0,0,0,.2.04h.022l.335-.068a.886.886,0,0,0,.178-.106.987.987,0,0,0,.114-.068,1.87,1.87,0,1,1,0,2.785.9.9,0,0,0-.118-.071.957.957,0,0,0-.174-.1.923.923,0,0,0-.2-.041.844.844,0,0,0-.131-.026l-.021,0a.919.919,0,0,0-.217.043.974.974,0,0,0-.138.035.825.825,0,0,0-.132.088.941.941,0,0,0-.165.121c-.006.006-.013.009-.018.014a.766.766,0,0,0-.071.12.88.88,0,0,0-.1.174.908.908,0,0,0-.041.206.869.869,0,0,0-.026.129V40.13H105.07v-.724a13.957,13.957,0,0,0-4.348-10.134Zm10.879,24.862a5.611,5.611,0,0,1-5.524-4.668h11.048A5.611,5.611,0,0,1,111.605,54.134Zm8.4-6.535H103.2a.934.934,0,0,1,0-1.867h16.8a.934.934,0,0,1,0,1.867Zm.933-4.668a.934.934,0,0,1-.933.934H103.2a.934.934,0,0,1,0-1.868h16.8A.934.934,0,0,1,120.941,42.931Zm1.55-13.662a13.967,13.967,0,0,0-4.351,10.137v.724h-6.535V32.743a3.689,3.689,0,0,0,.934.134,3.734,3.734,0,1,0-.934-7.335v-5.95h4.8a3.734,3.734,0,1,0,7.2,0h3.76A15.729,15.729,0,0,1,122.491,29.269ZM113.4,1.951a15.906,15.906,0,0,1,13.971,13.9,16.477,16.477,0,0,1,.107,1.877h-5.387a.773.773,0,0,0-.132.027.857.857,0,0,0-.2.04l-.292.174c-.007,0-.009.012-.014.018a4.357,4.357,0,0,0-.21.3,4.207,4.207,0,0,0-.079.356c0,.007,0,.014,0,.022a43,43,0,0,1,.068.333.9.9,0,0,0,.106.179.852.852,0,0,0,.068.114,1.848,1.848,0,0,1,.477,1.241,1.867,1.867,0,1,1-3.734,0,1.848,1.848,0,0,1,.477-1.241.9.9,0,0,0,.067-.114.842.842,0,0,0,.106-.179.833.833,0,0,0,.04-.2.8.8,0,0,0,.028-.135c0-.009,0-.015,0-.022a.949.949,0,0,0-.041-.2.958.958,0,0,0-.038-.154,1.036,1.036,0,0,0-.079-.118.969.969,0,0,0-.131-.177c-.006-.006-.008-.013-.014-.018a.9.9,0,0,0-.114-.068.927.927,0,0,0-.178-.106.853.853,0,0,0-.2-.04.757.757,0,0,0-.132-.027h-6.32V11.4a.9.9,0,0,0-.027-.134.9.9,0,0,0-.04-.2.925.925,0,0,0-.106-.179.9.9,0,0,0-.068-.114c0-.006-.012-.008-.018-.013a.937.937,0,0,0-.174-.129.955.955,0,0,0-.122-.082,1,1,0,0,0-.15-.037.947.947,0,0,0-.2-.041h-.023a.91.91,0,0,0-.135.027.94.94,0,0,0-.2.04.893.893,0,0,0-.18.107.773.773,0,0,0-.113.068,1.87,1.87,0,1,1,0-2.785.991.991,0,0,0,.114.068.612.612,0,0,0,.378.146.9.9,0,0,0,.134.027h.023a.912.912,0,0,0,.2-.041.976.976,0,0,0,.152-.038.96.96,0,0,0,.121-.081.927.927,0,0,0,.176-.129c.006-.006.013-.008.018-.013a.93.93,0,0,0,.068-.114.916.916,0,0,0,.106-.179.9.9,0,0,0,.04-.2.966.966,0,0,0,.027-.139V1.853A16.743,16.743,0,0,1,113.4,1.951ZM101.015,5.9a15.662,15.662,0,0,1,8.723-3.935V5.721a3.734,3.734,0,1,0,0,7.2v4.8h-4.8a3.734,3.734,0,1,0-7.2,0h-2A15.9,15.9,0,0,1,101.015,5.9Zm0,0" transform="translate(-83.598 0)" fill="#fff"></path><path id="Path_76" data-name="Path 76" d="M442.668,153.465h-6.535a.934.934,0,1,0,0,1.867h6.535a.934.934,0,1,0,0-1.867Zm0,0" transform="translate(-387.586 -136.675)" fill="#fff"></path><path id="Path_77" data-name="Path 77" d="M410.994,34.891a.926.926,0,0,0,.467-.125l5.659-3.268a.934.934,0,0,0-.934-1.617l-5.658,3.268a.933.933,0,0,0,.467,1.742Zm0,0" transform="translate(-365.197 -26.503)" fill="#fff"></path><path id="Path_78" data-name="Path 78" d="M410.176,247.8a.934.934,0,0,0,.342,1.275l5.658,3.268a.934.934,0,0,0,.934-1.617l-5.659-3.268A.933.933,0,0,0,410.176,247.8Zm0,0" transform="translate(-365.19 -220.27)" fill="#fff"></path><path id="Path_79" data-name="Path 79" d="M.934,155.332H7.469a.934.934,0,1,0,0-1.867H.934a.934.934,0,1,0,0,1.867Zm0,0" transform="translate(0 -136.675)" fill="#fff"></path><path id="Path_80" data-name="Path 80" d="M33.585,31.449l5.659,3.268a.934.934,0,1,0,.933-1.617l-5.658-3.268a.934.934,0,1,0-.934,1.617Zm0,0" transform="translate(-29.49 -26.454)" fill="#fff"></path><path id="Path_81" data-name="Path 81" d="M39.244,247.481l-5.659,3.268a.934.934,0,1,0,.934,1.617l5.658-3.268a.933.933,0,0,0-.933-1.617Zm0,0" transform="translate(-29.49 -220.296)" fill="#fff"></path></g></svg>