<svg xmlns="http://www.w3.org/2000/svg" width="214.165" height="50" viewBox="0 0 214.165 50">
  <g id="Group_12" data-name="Group 12" transform="translate(-442 -274)">
    <g id="Group_11" data-name="Group 11" transform="translate(442 274)">
      <g id="Group_1" data-name="Group 1" transform="translate(0 29.378)">
        <path id="Path_1" data-name="Path 1" d="M50.56,116.409h6.9l7.529,19.314H57.926l-1.009-2.837H50.778l-.955,2.837H42.949Zm3.356,6.738-1.582,4.774h3.137Z" transform="translate(-42.949 -115.647)" fill="#187c9c"/>
        <path id="Path_2" data-name="Path 2" d="M100.619,125.07a10.429,10.429,0,0,1,.818-4.2,9.651,9.651,0,0,1,2.237-3.219,9.889,9.889,0,0,1,3.342-2.06,11.573,11.573,0,0,1,4.106-.723,12.3,12.3,0,0,1,4.229.723,9.792,9.792,0,0,1,3.328,1.95l-3.983,4.8a3.516,3.516,0,0,0-1.364-1.077,4.4,4.4,0,0,0-1.827-.368,4.045,4.045,0,0,0-1.528.286,3.594,3.594,0,0,0-1.241.832,3.855,3.855,0,0,0-.832,1.323,4.774,4.774,0,0,0-.3,1.732,4.383,4.383,0,0,0,.314,1.705,4.084,4.084,0,0,0,.846,1.3A3.589,3.589,0,0,0,110,128.9a3.972,3.972,0,0,0,1.5.286,3.784,3.784,0,0,0,1.923-.464,4.069,4.069,0,0,0,1.268-1.091l3.983,4.774a9.615,9.615,0,0,1-3.219,2.087,12.151,12.151,0,0,1-8.444.041,9.947,9.947,0,0,1-3.342-2.087,9.841,9.841,0,0,1-2.237-3.219A10.261,10.261,0,0,1,100.619,125.07Z" transform="translate(-80.214 -114.651)"/>
        <path id="Path_3" data-name="Path 3" d="M161.434,135.723h-6.493V121.892H150.2v-5.483h15.986v5.483h-4.747Z" transform="translate(-112.249 -115.647)"/>
        <path id="Path_4" data-name="Path 4" d="M199.462,116.409h6.547v19.314h-6.547Z" transform="translate(-144.085 -115.647)"/>
        <path id="Path_5" data-name="Path 5" d="M222.593,124.961a10.339,10.339,0,0,1,.818-4.187,9.317,9.317,0,0,1,2.251-3.178,10.009,10.009,0,0,1,3.4-2.019,13.12,13.12,0,0,1,8.511,0,10.161,10.161,0,0,1,3.41,2.019,9.228,9.228,0,0,1,2.264,3.178,10.333,10.333,0,0,1,.818,4.187,10.624,10.624,0,0,1-.818,4.228,9.549,9.549,0,0,1-2.264,3.26,10.16,10.16,0,0,1-3.41,2.087,12.661,12.661,0,0,1-8.511,0,10.009,10.009,0,0,1-3.4-2.087,9.644,9.644,0,0,1-2.251-3.26A10.63,10.63,0,0,1,222.593,124.961Zm6.9,0a5.092,5.092,0,0,0,.287,1.746,4.194,4.194,0,0,0,.791,1.364,3.457,3.457,0,0,0,1.214.887,3.73,3.73,0,0,0,1.528.314,3.6,3.6,0,0,0,2.728-1.2,4.082,4.082,0,0,0,.8-1.364,5.092,5.092,0,0,0,.286-1.746,4.9,4.9,0,0,0-.286-1.705,3.668,3.668,0,0,0-.8-1.309,3.749,3.749,0,0,0-2.728-1.132,3.878,3.878,0,0,0-1.528.3,3.569,3.569,0,0,0-1.214.832,3.759,3.759,0,0,0-.791,1.309A4.9,4.9,0,0,0,229.495,124.961Z" transform="translate(-159.031 -114.651)"/>
        <path id="Path_6" data-name="Path 6" d="M287.9,116.409h6.466l5.51,9.794h.109l-.273-9.794h6.165v19.314h-6.629L293.9,126.5h-.109l.273,9.221H287.9Z" transform="translate(-201.229 -115.647)"/>
        <path id="Path_7" data-name="Path 7" d="M343.1,124.458a10.431,10.431,0,0,1,.818-4.2,9.651,9.651,0,0,1,2.237-3.219,9.889,9.889,0,0,1,3.342-2.06,11.581,11.581,0,0,1,4.106-.723,12.308,12.308,0,0,1,4.228.723,9.793,9.793,0,0,1,3.328,1.951l-3.983,4.8a3.516,3.516,0,0,0-1.364-1.077,4.4,4.4,0,0,0-1.827-.368,4.038,4.038,0,0,0-1.528.287,3.592,3.592,0,0,0-1.241.832,3.857,3.857,0,0,0-.832,1.323,4.77,4.77,0,0,0-.3,1.732,4.383,4.383,0,0,0,.314,1.705,4.09,4.09,0,0,0,.846,1.3,3.583,3.583,0,0,0,1.241.832,3.965,3.965,0,0,0,1.5.287,3.784,3.784,0,0,0,1.923-.464,4.075,4.075,0,0,0,1.268-1.091l3.983,4.774a9.613,9.613,0,0,1-3.219,2.087,12.148,12.148,0,0,1-8.444.041,9.953,9.953,0,0,1-3.342-2.087,9.841,9.841,0,0,1-2.237-3.219A10.264,10.264,0,0,1,343.1,124.458Z" transform="translate(-236.899 -114.256)" fill="#187c9c"/>
        <path id="Path_8" data-name="Path 8" d="M394.043,124.349a10.335,10.335,0,0,1,.818-4.187,9.3,9.3,0,0,1,2.251-3.178,10.009,10.009,0,0,1,3.4-2.019,13.125,13.125,0,0,1,8.511,0,10.162,10.162,0,0,1,3.41,2.019,9.217,9.217,0,0,1,2.264,3.178,10.328,10.328,0,0,1,.818,4.187,10.619,10.619,0,0,1-.818,4.228,9.546,9.546,0,0,1-2.264,3.26,10.166,10.166,0,0,1-3.41,2.087,12.66,12.66,0,0,1-8.511,0,10.014,10.014,0,0,1-3.4-2.087,9.638,9.638,0,0,1-2.251-3.26A10.627,10.627,0,0,1,394.043,124.349Zm6.9,0a5.1,5.1,0,0,0,.286,1.746,4.2,4.2,0,0,0,.791,1.364,3.463,3.463,0,0,0,1.214.887,3.734,3.734,0,0,0,1.528.313,3.6,3.6,0,0,0,2.728-1.2,4.071,4.071,0,0,0,.8-1.364,5.089,5.089,0,0,0,.287-1.746,4.9,4.9,0,0,0-.287-1.705,3.656,3.656,0,0,0-.8-1.309,3.745,3.745,0,0,0-2.728-1.132,3.883,3.883,0,0,0-1.528.3,3.561,3.561,0,0,0-1.214.832,3.764,3.764,0,0,0-.791,1.309A4.9,4.9,0,0,0,400.945,124.349Z" transform="translate(-269.819 -114.256)"/>
        <path id="Path_9" data-name="Path 9" d="M459.347,115.8h6.547V129.52H472.3v5.592H459.347Z" transform="translate(-312.017 -115.252)"/>
        <path id="Path_10" data-name="Path 10" d="M500.134,115.8h6.547V129.52h6.411v5.592H500.134Z" transform="translate(-338.373 -115.252)"/>
        <path id="Path_11" data-name="Path 11" d="M545.292,115.8h6.9l7.529,19.314h-7.065l-1.009-2.837H545.51l-.955,2.837h-6.875Zm3.356,6.738-1.582,4.774H550.2Z" transform="translate(-362.635 -115.252)"/>
        <path id="Path_12" data-name="Path 12" d="M614.922,125.073a5.207,5.207,0,0,1,1.337.532,4.814,4.814,0,0,1,1.173.928,4.256,4.256,0,0,1,.818,1.3,4.3,4.3,0,0,1,.3,1.637,4.905,4.905,0,0,1-2.332,4.405,7.217,7.217,0,0,1-2.4.955,13.3,13.3,0,0,1-2.769.286h-8.757V115.8h7.938a18.849,18.849,0,0,1,2.5.177,8.181,8.181,0,0,1,2.441.709,4.787,4.787,0,0,1,1.855,1.555,4.5,4.5,0,0,1,.737,2.687,4.078,4.078,0,0,1-.777,2.564,4.62,4.62,0,0,1-2.06,1.5Zm-6.575-4.228v2.373h1.746a1.871,1.871,0,0,0,1.118-.313,1.114,1.114,0,0,0,.436-.968.89.89,0,0,0-.464-.818,2.414,2.414,0,0,0-1.228-.273Zm0,6.547v2.619h1.937a2.083,2.083,0,0,0,1.241-.341,1.146,1.146,0,0,0,.477-1,.948.948,0,0,0-.2-.627,1.563,1.563,0,0,0-.5-.4,2.226,2.226,0,0,0-.641-.2,4.1,4.1,0,0,0-.641-.054Z" transform="translate(-404.385 -115.252)"/>
      </g>
      <g id="Group_10" data-name="Group 10" transform="translate(0 0)">
        <path id="Path_13" data-name="Path 13" d="M160.578,55.661l.3,10.912h-6.056V47.259h8.493l3.5,10.393h.137l3.031-10.393h8.767V66.573h-6.329l.191-10.858-.163-.027-3.6,10.885h-4.583l-3.547-10.912Z" transform="translate(-115.239 -41.586)"/>
        <path id="Path_14" data-name="Path 14" d="M235.212,55.661l.3,10.912h-6.056V47.259h8.493l3.5,10.393h.136l3.032-10.393h8.767V66.573h-6.329l.191-10.858-.164-.027-3.6,10.885h-4.583l-3.547-10.912Z" transform="translate(-163.466 -41.586)"/>
        <path id="Path_15" data-name="Path 15" d="M311.419,67.379a11.24,11.24,0,0,1-3.942-.628,7.9,7.9,0,0,1-2.8-1.718,6.845,6.845,0,0,1-1.664-2.578,9.224,9.224,0,0,1-.546-3.205V47.519h6.493V58.54a3.221,3.221,0,0,0,.668,2.169,2.7,2.7,0,0,0,3.792,0,3.223,3.223,0,0,0,.668-2.169V47.519h6.465V59.25a8.663,8.663,0,0,1-.587,3.205,7.127,7.127,0,0,1-1.732,2.578,8.149,8.149,0,0,1-2.851,1.718A11.474,11.474,0,0,1,311.419,67.379Z" transform="translate(-210.647 -41.754)"/>
        <path id="Path_16" data-name="Path 16" d="M359.91,47.519h6.466l5.51,9.794H372l-.273-9.794h6.165V66.833h-6.629l-5.347-9.221H365.8l.273,9.221H359.91Z" transform="translate(-247.763 -41.754)"/>
        <path id="Path_17" data-name="Path 17" d="M414.728,47.519h6.547V66.833h-6.547Z" transform="translate(-283.185 -41.754)"/>
        <path id="Path_18" data-name="Path 18" d="M448.557,66.833h-6.493V53h-4.747V47.519H453.3V53h-4.747Z" transform="translate(-297.783 -41.754)"/>
        <path id="Path_19" data-name="Path 19" d="M492.5,66.833H486V58.922l-7.284-11.4h7.829l3.056,5.674,2.919-5.674h7.639l-7.666,11.4Z" transform="translate(-324.536 -41.754)"/>
        <g id="Group_9" data-name="Group 9" transform="translate(13.064)">
          <g id="Group_2" data-name="Group 2" transform="translate(15.528 17.139)">
            <path id="Path_20" data-name="Path 20" d="M130.779,80.2a7.545,7.545,0,0,1,4.172,2.2c2.038,1.835,3.121,3.955,2.418,4.736a1.019,1.019,0,0,1-.79.289,7.545,7.545,0,0,1-4.172-2.2c-2.038-1.835-3.121-3.955-2.418-4.736a1.02,1.02,0,0,1,.79-.289m0-.531a1.517,1.517,0,0,0-1.184.465c-1.068,1.186.427,3.657,2.457,5.485,1.6,1.44,3.334,2.335,4.527,2.335a1.518,1.518,0,0,0,1.184-.464c1.068-1.186-.428-3.657-2.457-5.485-1.6-1.44-3.334-2.335-4.527-2.335Z" transform="translate(-127.301 -79.665)" fill="#0a51a1"/>
            <path id="Path_21" data-name="Path 21" d="M128.243,82.354c.991,0,2.6,1.209,3.937,3.053,1.612,2.219,2.23,4.518,1.381,5.135a.862.862,0,0,1-.519.154c-.991,0-2.6-1.209-3.937-3.053-1.612-2.219-2.23-4.518-1.381-5.135a.864.864,0,0,1,.519-.154m0-.531a1.383,1.383,0,0,0-.831.255c-.6.437-.755,1.337-.433,2.534a10.715,10.715,0,0,0,1.7,3.342c1.444,1.988,3.158,3.272,4.366,3.272a1.382,1.382,0,0,0,.831-.255c1.291-.939.342-3.666-1.263-5.876-1.444-1.987-3.158-3.272-4.367-3.272Z" transform="translate(-125.733 -81.059)" fill="#0a51a1"/>
            <path id="Path_22" data-name="Path 22" d="M125.259,83.928c.981,0,2.435,1.586,3.433,3.829,1.116,2.505,1.242,4.882.283,5.309a.785.785,0,0,1-.323.066c-.982,0-2.435-1.586-3.433-3.829-1.116-2.505-1.242-4.882-.283-5.309a.785.785,0,0,1,.323-.066m0-.531a1.315,1.315,0,0,0-.538.112c-1.458.649-1.1,3.515.014,6.01.918,2.063,2.486,4.144,3.918,4.144a1.315,1.315,0,0,0,.539-.112c1.458-.649,1.1-3.515-.014-6.01-.919-2.063-2.486-4.144-3.919-4.144Z" transform="translate(-123.759 -82.077)" fill="#0a51a1"/>
          </g>
          <g id="Group_3" data-name="Group 3" transform="translate(18.134 11.473)">
            <path id="Path_23" data-name="Path 23" d="M139.629,64.182c2.114,0,3.728.571,3.819,1.442.11,1.044-2.012,2.123-4.74,2.41a12.615,12.615,0,0,1-1.318.07c-2.114,0-3.728-.571-3.819-1.442-.11-1.044,2.012-2.123,4.739-2.41a12.625,12.625,0,0,1,1.318-.07m0-.531a13.245,13.245,0,0,0-1.373.073,10.712,10.712,0,0,0-3.619.975c-1.105.562-1.671,1.278-1.593,2.017.122,1.165,1.829,1.917,4.347,1.917a13.148,13.148,0,0,0,1.373-.073,10.7,10.7,0,0,0,3.619-.975c1.1-.562,1.671-1.278,1.593-2.017-.122-1.164-1.829-1.917-4.347-1.917Z" transform="translate(-132.36 -63.651)" fill="#01a0c6"/>
            <path id="Path_24" data-name="Path 24" d="M137.391,69.77a12.613,12.613,0,0,1,1.317.07c2.728.287,4.849,1.365,4.74,2.41-.091.87-1.7,1.442-3.819,1.442a12.62,12.62,0,0,1-1.318-.07c-2.727-.287-4.849-1.365-4.739-2.41.091-.87,1.7-1.442,3.819-1.442m0-.531c-2.518,0-4.225.753-4.347,1.917-.078.739.488,1.456,1.593,2.017a10.7,10.7,0,0,0,3.619.975,13.142,13.142,0,0,0,1.373.073c2.518,0,4.225-.753,4.347-1.917.078-.739-.488-1.456-1.593-2.017a10.711,10.711,0,0,0-3.619-.975,13.24,13.24,0,0,0-1.373-.073Z" transform="translate(-132.36 -67.262)" fill="#01a0c6"/>
            <path id="Path_25" data-name="Path 25" d="M135.076,74.076a10.681,10.681,0,0,1,3.194.563c2.608.847,4.46,2.344,4.135,3.343-.179.553-.988.837-2.116.837a10.671,10.671,0,0,1-3.194-.564c-2.608-.847-4.46-2.344-4.135-3.342.179-.553.988-.837,2.116-.837m0-.531c-1.438,0-2.368.427-2.621,1.2-.23.707.175,1.525,1.139,2.3a10.716,10.716,0,0,0,3.337,1.706,11.294,11.294,0,0,0,3.358.589c1.438,0,2.369-.427,2.621-1.2.493-1.518-1.878-3.167-4.476-4.011a11.289,11.289,0,0,0-3.358-.589Z" transform="translate(-131.944 -70.044)" fill="#01a0c6"/>
            <path id="Path_26" data-name="Path 26" d="M133,77.462a8.852,8.852,0,0,1,4.013,1.333c2.375,1.371,3.875,3.22,3.35,4.129a1.345,1.345,0,0,1-1.238.5,8.852,8.852,0,0,1-4.013-1.333c-2.375-1.371-3.875-3.22-3.35-4.129a1.345,1.345,0,0,1,1.238-.5m0-.531a1.777,1.777,0,0,0-1.7.762c-.372.644-.146,1.528.635,2.491a10.7,10.7,0,0,0,2.909,2.363,9.411,9.411,0,0,0,4.278,1.4,1.776,1.776,0,0,0,1.7-.762c.8-1.383-1.179-3.489-3.544-4.854a9.412,9.412,0,0,0-4.278-1.4Z" transform="translate(-131.124 -72.232)" fill="#01a0c6"/>
          </g>
          <g id="Group_4" data-name="Group 4" transform="translate(16.609 2.601)">
            <path id="Path_27" data-name="Path 27" d="M133.042,39.106a.862.862,0,0,1,.519.154c.85.617.231,2.916-1.381,5.135-1.341,1.845-2.946,3.053-3.937,3.053a.864.864,0,0,1-.519-.154c-.849-.617-.231-2.916,1.381-5.135,1.34-1.845,2.946-3.053,3.937-3.053m0-.531c-1.208,0-2.922,1.284-4.366,3.272a10.715,10.715,0,0,0-1.7,3.342c-.322,1.2-.168,2.1.433,2.534a1.381,1.381,0,0,0,.831.255c1.209,0,2.923-1.284,4.367-3.272,1.606-2.21,2.555-4.938,1.263-5.876a1.382,1.382,0,0,0-.831-.255Z" transform="translate(-126.814 -38.575)" fill="#018d54"/>
            <path id="Path_28" data-name="Path 28" d="M136.58,44.426a1.02,1.02,0,0,1,.79.289c.7.78-.38,2.9-2.418,4.736a7.547,7.547,0,0,1-4.172,2.2,1.02,1.02,0,0,1-.79-.289c-.7-.78.38-2.9,2.418-4.736a7.545,7.545,0,0,1,4.172-2.2m0-.531c-1.193,0-2.927.895-4.527,2.335-2.03,1.827-3.525,4.3-2.457,5.485a1.518,1.518,0,0,0,1.184.464c1.193,0,2.927-.895,4.527-2.335,2.03-1.827,3.525-4.3,2.457-5.485a1.517,1.517,0,0,0-1.185-.465Z" transform="translate(-128.382 -42.013)" fill="#018d54"/>
            <path id="Path_29" data-name="Path 29" d="M139.121,50.733a1.345,1.345,0,0,1,1.238.5c.525.909-.975,2.758-3.35,4.129A8.852,8.852,0,0,1,133,56.691a1.345,1.345,0,0,1-1.238-.5c-.525-.909.975-2.758,3.35-4.129a8.852,8.852,0,0,1,4.013-1.333m0-.531a9.411,9.411,0,0,0-4.278,1.4,10.71,10.71,0,0,0-2.909,2.363c-.781.962-1.007,1.847-.635,2.491a1.777,1.777,0,0,0,1.7.762,9.411,9.411,0,0,0,4.278-1.4c2.365-1.366,4.342-3.472,3.544-4.854a1.776,1.776,0,0,0-1.7-.762Z" transform="translate(-129.599 -46.088)" fill="#018d54"/>
            <path id="Path_30" data-name="Path 30" d="M140.289,57.556c1.128,0,1.937.284,2.116.837.324,1-1.527,2.495-4.135,3.342a10.673,10.673,0,0,1-3.194.564c-1.128,0-1.937-.284-2.116-.837-.324-1,1.527-2.495,4.135-3.342a10.673,10.673,0,0,1,3.194-.564m0-.531a11.294,11.294,0,0,0-3.358.589,10.717,10.717,0,0,0-3.337,1.706c-.964.779-1.369,1.6-1.139,2.3.252.776,1.183,1.2,2.621,1.2a11.292,11.292,0,0,0,3.358-.589c2.6-.844,4.969-2.493,4.476-4.011-.252-.776-1.183-1.2-2.621-1.2Z" transform="translate(-130.419 -50.497)" fill="#018d54"/>
          </g>
          <g id="Group_5" data-name="Group 5" transform="translate(10.254)">
            <path id="Path_31" data-name="Path 31" d="M117.483,31.755c1.05,0,1.9,2.223,1.9,4.965s-.851,4.966-1.9,4.966-1.9-2.223-1.9-4.966.851-4.965,1.9-4.965m0-.531c-1.6,0-2.432,2.765-2.432,5.5s.835,5.5,2.432,5.5,2.431-2.765,2.431-5.5-.835-5.5-2.431-5.5Z" transform="translate(-112.858 -31.224)" fill="#99cf16"/>
            <path id="Path_32" data-name="Path 32" d="M123.5,32.6a.75.75,0,0,1,.156.016c1.027.218,1.4,2.57.827,5.252-.542,2.548-1.737,4.478-2.735,4.478a.748.748,0,0,1-.156-.016c-1.027-.218-1.4-2.57-.827-5.252.541-2.548,1.737-4.478,2.735-4.478m0-.531c-1.521,0-2.753,2.539-3.255,4.9-.568,2.671-.326,5.55,1.236,5.882a1.27,1.27,0,0,0,.267.028c1.521,0,2.753-2.539,3.254-4.9.568-2.672.326-5.55-1.236-5.882a1.272,1.272,0,0,0-.267-.028Z" transform="translate(-116.035 -31.77)" fill="#99cf16"/>
            <path id="Path_33" data-name="Path 33" d="M128.653,35.092a.785.785,0,0,1,.323.066c.959.427.833,2.8-.283,5.309-1,2.244-2.452,3.829-3.433,3.829a.785.785,0,0,1-.323-.066c-.959-.427-.833-2.8.283-5.309,1-2.244,2.452-3.829,3.433-3.829m0-.531c-1.432,0-3,2.082-3.918,4.144-1.111,2.5-1.473,5.361-.014,6.01a1.31,1.31,0,0,0,.539.112c1.432,0,3-2.081,3.919-4.144,1.111-2.5,1.472-5.361.014-6.01a1.315,1.315,0,0,0-.539-.112Z" transform="translate(-118.485 -33.38)" fill="#99cf16"/>
            <path id="Path_34" data-name="Path 34" d="M110.636,32.6c1,0,2.194,1.93,2.736,4.478.57,2.683.2,5.034-.827,5.252a.745.745,0,0,1-.156.016c-1,0-2.194-1.93-2.735-4.478-.57-2.682-.2-5.034.827-5.252a.75.75,0,0,1,.156-.016m0-.531a1.266,1.266,0,0,0-.266.028c-1.562.332-1.8,3.21-1.236,5.882.5,2.359,1.734,4.9,3.254,4.9a1.269,1.269,0,0,0,.267-.028c1.561-.332,1.8-3.21,1.236-5.882-.5-2.359-1.734-4.9-3.255-4.9Z" transform="translate(-108.854 -31.77)" fill="#99cf16"/>
          </g>
          <g id="Group_6" data-name="Group 6" transform="translate(1.754 1.181)">
            <path id="Path_35" data-name="Path 35" d="M86.7,50.733a8.852,8.852,0,0,1,4.012,1.333c2.375,1.371,3.875,3.22,3.35,4.129a1.345,1.345,0,0,1-1.238.5,8.853,8.853,0,0,1-4.012-1.333c-2.375-1.371-3.875-3.22-3.35-4.129a1.344,1.344,0,0,1,1.238-.5m0-.531a1.776,1.776,0,0,0-1.7.762c-.372.644-.146,1.528.635,2.491a10.707,10.707,0,0,0,2.909,2.363,9.41,9.41,0,0,0,4.278,1.4,1.777,1.777,0,0,0,1.7-.762c.8-1.383-1.179-3.488-3.544-4.854A9.411,9.411,0,0,0,86.7,50.2Z" transform="translate(-84.829 -44.668)" fill="#ffbf00"/>
            <path id="Path_36" data-name="Path 36" d="M91.052,44.426a7.545,7.545,0,0,1,4.172,2.2c2.038,1.835,3.121,3.955,2.418,4.736a1.02,1.02,0,0,1-.79.289,7.546,7.546,0,0,1-4.172-2.2c-2.038-1.835-3.121-3.955-2.418-4.736a1.019,1.019,0,0,1,.79-.289m0-.531a1.517,1.517,0,0,0-1.184.465c-1.068,1.186.428,3.657,2.458,5.485,1.6,1.44,3.334,2.335,4.527,2.335a1.518,1.518,0,0,0,1.184-.464c1.068-1.186-.427-3.657-2.457-5.485-1.6-1.44-3.334-2.335-4.527-2.335Z" transform="translate(-87.856 -40.592)" fill="#ffbf00"/>
            <path id="Path_37" data-name="Path 37" d="M96.811,39.106c.991,0,2.6,1.209,3.937,3.053,1.612,2.219,2.23,4.518,1.381,5.135a.864.864,0,0,1-.519.154c-.991,0-2.6-1.209-3.937-3.053-1.612-2.219-2.23-4.518-1.381-5.135a.862.862,0,0,1,.519-.154m0-.531a1.383,1.383,0,0,0-.831.255c-1.291.938-.342,3.666,1.263,5.876,1.444,1.988,3.158,3.272,4.366,3.272a1.381,1.381,0,0,0,.831-.255c.6-.437.755-1.336.433-2.534a10.715,10.715,0,0,0-1.7-3.342c-1.444-1.988-3.158-3.272-4.366-3.272Z" transform="translate(-91.644 -37.155)" fill="#ffbf00"/>
            <path id="Path_38" data-name="Path 38" d="M103.516,35.092c.981,0,2.435,1.586,3.433,3.829,1.116,2.505,1.242,4.882.283,5.309a.785.785,0,0,1-.323.066c-.982,0-2.435-1.586-3.433-3.829-1.116-2.505-1.242-4.882-.283-5.309a.785.785,0,0,1,.323-.066m0-.531a1.315,1.315,0,0,0-.538.112c-1.458.649-1.1,3.515.014,6.01.918,2.063,2.486,4.144,3.918,4.144a1.309,1.309,0,0,0,.539-.112c1.458-.649,1.1-3.515-.014-6.01-.919-2.063-2.486-4.144-3.919-4.144Z" transform="translate(-95.935 -34.561)" fill="#ffbf00"/>
          </g>
          <g id="Group_7" data-name="Group 7" transform="translate(0 9.129)">
            <path id="Path_39" data-name="Path 39" d="M89.448,74.076c1.128,0,1.937.284,2.116.837.324,1-1.527,2.495-4.135,3.342a10.671,10.671,0,0,1-3.194.564c-1.128,0-1.937-.284-2.116-.837-.324-1,1.527-2.5,4.135-3.343a10.681,10.681,0,0,1,3.194-.563m0-.531a11.291,11.291,0,0,0-3.358.589,10.709,10.709,0,0,0-3.337,1.707c-.964.779-1.369,1.6-1.139,2.3.252.776,1.183,1.2,2.621,1.2a11.29,11.29,0,0,0,3.358-.589c2.6-.844,4.969-2.493,4.476-4.011-.252-.776-1.183-1.2-2.621-1.2Z" transform="translate(-80.957 -67.7)" fill="#ff5a00"/>
            <path id="Path_40" data-name="Path 40" d="M86.464,69.77c2.114,0,3.728.571,3.819,1.442.11,1.044-2.013,2.123-4.74,2.41a12.62,12.62,0,0,1-1.318.07c-2.114,0-3.728-.571-3.819-1.442-.11-1.044,2.012-2.123,4.74-2.41a12.615,12.615,0,0,1,1.318-.07m0-.531a13.147,13.147,0,0,0-1.373.073,10.714,10.714,0,0,0-3.619.975c-1.1.562-1.671,1.278-1.593,2.017.122,1.164,1.829,1.917,4.347,1.917a13.154,13.154,0,0,0,1.373-.073,10.706,10.706,0,0,0,3.619-.975c1.1-.562,1.671-1.278,1.593-2.017-.122-1.164-1.829-1.917-4.347-1.917Z" transform="translate(-79.872 -64.917)" fill="#ff5a00"/>
            <path id="Path_41" data-name="Path 41" d="M84.227,64.182a12.621,12.621,0,0,1,1.318.07c2.727.287,4.849,1.365,4.74,2.41-.092.87-1.705,1.442-3.819,1.442a12.615,12.615,0,0,1-1.318-.07c-2.728-.287-4.849-1.365-4.74-2.41.091-.87,1.7-1.442,3.819-1.442m0-.531c-2.518,0-4.225.753-4.347,1.917-.077.739.488,1.456,1.593,2.017a10.7,10.7,0,0,0,3.619.975,13.154,13.154,0,0,0,1.373.073c2.518,0,4.225-.752,4.347-1.917.078-.739-.488-1.456-1.593-2.017a10.714,10.714,0,0,0-3.619-.975,13.253,13.253,0,0,0-1.374-.073Z" transform="translate(-79.872 -61.307)" fill="#ff5a00"/>
            <path id="Path_42" data-name="Path 42" d="M84.235,57.556a10.671,10.671,0,0,1,3.194.564c2.608.847,4.46,2.344,4.135,3.342-.179.553-.988.837-2.116.837a10.671,10.671,0,0,1-3.194-.564c-2.608-.847-4.46-2.344-4.135-3.342.179-.553.988-.837,2.116-.837m0-.531c-1.438,0-2.368.427-2.621,1.2-.23.707.175,1.525,1.139,2.3A10.716,10.716,0,0,0,86.09,62.24a11.292,11.292,0,0,0,3.358.589c1.438,0,2.369-.427,2.621-1.2.493-1.518-1.878-3.167-4.476-4.011a11.29,11.29,0,0,0-3.358-.589Z" transform="translate(-80.957 -57.025)" fill="#ff5a00"/>
          </g>
          <g id="Group_8" data-name="Group 8" transform="translate(1.754 16.172)">
            <path id="Path_43" data-name="Path 43" d="M106.91,83.928a.785.785,0,0,1,.323.066c.959.427.833,2.8-.283,5.309-1,2.244-2.452,3.829-3.433,3.829a.785.785,0,0,1-.323-.066c-.959-.427-.833-2.8.283-5.309,1-2.244,2.452-3.829,3.433-3.829m0-.531c-1.432,0-3,2.082-3.918,4.144-1.111,2.5-1.473,5.361-.014,6.01a1.316,1.316,0,0,0,.539.112c1.432,0,3-2.082,3.919-4.144,1.111-2.5,1.472-5.361.014-6.01a1.315,1.315,0,0,0-.539-.112Z" transform="translate(-95.935 -81.109)" fill="#f0047f"/>
            <path id="Path_44" data-name="Path 44" d="M101.61,82.354a.863.863,0,0,1,.519.154c.849.617.231,2.916-1.381,5.135C99.408,89.487,97.8,90.7,96.811,90.7a.863.863,0,0,1-.519-.154c-.85-.617-.231-2.916,1.381-5.135,1.341-1.845,2.946-3.053,3.937-3.053m0-.531c-1.208,0-2.922,1.284-4.366,3.272-1.606,2.21-2.555,4.938-1.263,5.876a1.383,1.383,0,0,0,.831.255c1.208,0,2.922-1.284,4.366-3.272a10.715,10.715,0,0,0,1.7-3.342c.322-1.2.168-2.1-.433-2.534a1.383,1.383,0,0,0-.831-.255Z" transform="translate(-91.644 -80.092)" fill="#f0047f"/>
            <path id="Path_45" data-name="Path 45" d="M96.853,80.2a1.021,1.021,0,0,1,.79.289c.7.78-.38,2.9-2.418,4.736a7.545,7.545,0,0,1-4.172,2.2,1.019,1.019,0,0,1-.79-.289c-.7-.78.38-2.9,2.418-4.736a7.547,7.547,0,0,1,4.172-2.2m0-.531c-1.193,0-2.928.895-4.527,2.335-2.03,1.827-3.526,4.3-2.458,5.485a1.519,1.519,0,0,0,1.184.464c1.193,0,2.928-.895,4.527-2.335A10.7,10.7,0,0,0,97.934,82.7c.564-1.1.6-2.016.1-2.568a1.517,1.517,0,0,0-1.184-.465Z" transform="translate(-87.856 -78.698)" fill="#f0047f"/>
            <path id="Path_46" data-name="Path 46" d="M92.826,77.462a1.345,1.345,0,0,1,1.238.5c.525.909-.975,2.758-3.35,4.129A8.852,8.852,0,0,1,86.7,83.42a1.345,1.345,0,0,1-1.238-.5c-.525-.909.975-2.758,3.35-4.129a8.847,8.847,0,0,1,4.012-1.333m0-.531a9.41,9.41,0,0,0-4.277,1.4A10.7,10.7,0,0,0,85.638,80.7c-.781.963-1.007,1.848-.635,2.491a1.777,1.777,0,0,0,1.7.762,9.411,9.411,0,0,0,4.278-1.4c2.365-1.365,4.342-3.471,3.544-4.854a1.777,1.777,0,0,0-1.7-.762Z" transform="translate(-84.829 -76.931)" fill="#f0047f"/>
          </g>
        </g>
        <path id="Path_47" data-name="Path 47" d="M42.949,55.919a10.432,10.432,0,0,1,.818-4.2A9.651,9.651,0,0,1,46,48.5a9.891,9.891,0,0,1,3.342-2.06,11.58,11.58,0,0,1,4.106-.723,12.308,12.308,0,0,1,4.229.723,9.8,9.8,0,0,1,3.328,1.951l-3.983,4.8a3.521,3.521,0,0,0-1.364-1.077,4.4,4.4,0,0,0-1.828-.368,4.037,4.037,0,0,0-1.527.287,3.593,3.593,0,0,0-1.241.832,3.86,3.86,0,0,0-.832,1.323,4.772,4.772,0,0,0-.3,1.732,4.382,4.382,0,0,0,.313,1.705,4.087,4.087,0,0,0,.846,1.3,3.58,3.58,0,0,0,1.241.832,3.965,3.965,0,0,0,1.5.287,3.786,3.786,0,0,0,1.923-.464,4.07,4.07,0,0,0,1.268-1.091l3.983,4.774a9.621,9.621,0,0,1-3.219,2.087,12.15,12.15,0,0,1-8.443.041A9.95,9.95,0,0,1,46,63.3a9.841,9.841,0,0,1-2.237-3.219A10.263,10.263,0,0,1,42.949,55.919Z" transform="translate(-42.949 -40.589)" fill="#187c9c"/>
      </g>
    </g>
  </g>
</svg>
