<svg xmlns="http://www.w3.org/2000/svg" width="407.127" height="407.136" viewBox="0 0 407.127 407.136"><g id="Group_78" data-name="Group 78" transform="translate(-204.437 -2338.864)" opacity="0.3"><g id="Group_75" data-name="Group 75" transform="translate(86.512 2269.352)"><g id="Path_94" data-name="Path 94" fill="none"><path d="M321.488,69.512c-21.678,0-33.021,37.548-33.021,74.638s11.343,74.638,33.021,74.638,33.021-37.548,33.021-74.638-11.342-74.638-33.021-74.638Z" stroke="none"></path><path d="M 321.4880065917969 70.51199340820312 C 316.5604858398438 70.51199340820312 311.9851684570312 72.58268737792969 307.8890991210938 76.66654968261719 C 304.0142211914062 80.52993774414062 300.6124267578125 86.12284851074219 297.7781982421875 93.28999328613281 C 295.0894470214844 100.0891265869141 292.9991760253906 108.0659942626953 291.5654296875 116.9989318847656 C 290.1730346679688 125.6743316650391 289.4670104980469 134.8092803955078 289.4670104980469 144.1499938964844 C 289.4670104980469 153.4907379150391 290.1730346679688 162.6256561279297 291.5654296875 171.3010559082031 C 292.9991760253906 180.2340087890625 295.0894470214844 188.2108459472656 297.7781982421875 195.010009765625 C 300.6124267578125 202.1771240234375 304.0142211914062 207.7700805664062 307.8890991210938 211.6334228515625 C 311.9851379394531 215.71728515625 316.5604858398438 217.7879943847656 321.4880065917969 217.7879943847656 C 326.4157409667969 217.7879943847656 330.9912414550781 215.71728515625 335.0873107910156 211.6334228515625 C 338.9622192382812 207.7700805664062 342.364013671875 202.1771545410156 345.1981811523438 195.010009765625 C 347.8868408203125 188.2109069824219 349.9770202636719 180.2340698242188 351.4107360839844 171.3010711669922 C 352.8030395507812 162.6257629394531 353.5090026855469 153.4908142089844 353.5090026855469 144.1499938964844 C 353.5090026855469 134.8091735839844 352.8030395507812 125.6742401123047 351.4107360839844 116.9989318847656 C 349.9770202636719 108.06591796875 347.8868408203125 100.0890808105469 345.1981811523438 93.28997802734375 C 342.364013671875 86.12283325195312 338.9622192382812 80.5299072265625 335.0873107910156 76.66654968261719 C 330.9912414550781 72.58268737792969 326.4157409667969 70.51199340820312 321.4880065917969 70.51199340820312 M 321.4880065917969 69.51199340820312 C 343.1669921875 69.51199340820312 354.5090026855469 107.0599975585938 354.5090026855469 144.1499938964844 C 354.5090026855469 181.2400207519531 343.1669921875 218.7879943847656 321.4880065917969 218.7879943847656 C 299.8099975585938 218.7879943847656 288.4670104980469 181.2400207519531 288.4670104980469 144.1499938964844 C 288.4670104980469 107.0599975585938 299.8099975585938 69.51199340820312 321.4880065917969 69.51199340820312 Z" stroke="none" fill="#fff"></path></g><g id="Path_95" data-name="Path 95" fill="none"><path d="M321.488,327.372c-21.678,0-33.021,37.548-33.021,74.638s11.343,74.638,33.021,74.638,33.021-37.548,33.021-74.638-11.342-74.638-33.021-74.638Z" stroke="none"></path><path d="M 321.4880065917969 328.3720092773438 C 316.5604858398438 328.3720092773438 311.9851684570312 330.4427185058594 307.8890991210938 334.5265808105469 C 304.0142211914062 338.3899536132812 300.6124267578125 343.9828796386719 297.7781982421875 351.1500244140625 C 295.0894470214844 357.9491577148438 292.9991760253906 365.9259948730469 291.5654296875 374.8589477539062 C 290.1730346679688 383.5343627929688 289.4670104980469 392.6692810058594 289.4670104980469 402.010009765625 C 289.4670104980469 411.3507385253906 290.1730346679688 420.4856567382812 291.5654296875 429.1610717773438 C 292.9991760253906 438.0940246582031 295.0894470214844 446.0708618164062 297.7781982421875 452.8699951171875 C 300.6124267578125 460.0371398925781 304.0142211914062 465.6300659179688 307.8890991210938 469.4934387207031 C 311.9851684570312 473.5773010253906 316.5604858398438 475.6480102539062 321.4880065917969 475.6480102539062 C 326.4157409667969 475.6480102539062 330.9912414550781 473.5773010253906 335.0873107910156 469.4934387207031 C 338.9622192382812 465.6300964355469 342.364013671875 460.0371704101562 345.1981811523438 452.8700256347656 C 347.8868408203125 446.0709228515625 349.9770202636719 438.0940856933594 351.4107360839844 429.1610717773438 C 352.8030395507812 420.4857788085938 353.5090026855469 411.350830078125 353.5090026855469 402.010009765625 C 353.5090026855469 392.669189453125 352.8030395507812 383.5342407226562 351.4107360839844 374.8589477539062 C 349.9770202636719 365.9259338378906 347.8868408203125 357.9490966796875 345.1981811523438 351.1499938964844 C 342.364013671875 343.9828491210938 338.9622192382812 338.3899230957031 335.0873107910156 334.5265808105469 C 330.9912414550781 330.4427185058594 326.4157409667969 328.3720092773438 321.4880065917969 328.3720092773438 M 321.4880065917969 327.3720092773438 C 343.1669921875 327.3720092773438 354.5090026855469 364.9200134277344 354.5090026855469 402.010009765625 C 354.5090026855469 439.1000061035156 343.1669921875 476.6480102539062 321.4880065917969 476.6480102539062 C 299.8099975585938 476.6480102539062 288.4670104980469 439.1000061035156 288.4670104980469 402.010009765625 C 288.4670104980469 364.9200134277344 299.8099975585938 327.3720092773438 321.4880065917969 327.3720092773438 Z" stroke="none" fill="#fff"></path></g><g id="Path_96" data-name="Path 96" fill="none"><path d="M276.388,74.571c-21.14,4.8-23.882,43.93-15.665,80.1s27.6,70.27,48.736,65.467,23.883-43.93,15.665-80.1-27.6-70.27-48.736-65.467Z" stroke="none"></path><path d="M 280.3994750976562 75.11721801757812 C 279.1373596191406 75.11721801757812 277.8622436523438 75.26155090332031 276.6095581054688 75.546142578125 C 271.8042907714844 76.63790893554688 267.8013000488281 79.67080688476562 264.7117614746094 84.56060791015625 C 261.7890625 89.1864013671875 259.7108459472656 95.39395141601562 258.5348815917969 103.0108184814453 C 257.4193420410156 110.2366027832031 257.1482543945312 118.4782867431641 257.7292175292969 127.5069427490234 C 258.2933959960938 136.2751770019531 259.6287536621094 145.339599609375 261.6981201171875 154.4484252929688 C 263.6314392089844 162.9570007324219 266.1353149414062 171.1817321777344 269.1401977539062 178.8941345214844 C 272.2235107421875 186.8078308105469 275.7037353515625 193.8395690917969 279.4841613769531 199.7939758300781 C 283.4512634277344 206.0423583984375 287.6322021484375 210.9114685058594 291.9109191894531 214.2660217285156 C 296.4175109863281 217.7992553710938 300.9715881347656 219.5907592773438 305.4466247558594 219.5907592773438 C 306.7093811035156 219.5907592773438 307.9848022460938 219.4464416503906 309.2374572753906 219.1618347167969 C 314.042724609375 218.0700836181641 318.0457458496094 215.0371856689453 321.1353759765625 210.1473693847656 C 324.0581665039062 205.5215606689453 326.1364440917969 199.3139953613281 327.3124694824219 191.6971740722656 C 328.4281005859375 184.4713134765625 328.6991882324219 176.2296142578125 328.1181945800781 167.2010650634766 C 327.5539245605469 158.4327239990234 326.2184448242188 149.3682861328125 324.1488342285156 140.2595367431641 C 322.2158203125 131.7510375976562 319.7121276855469 123.5263671875 316.7073364257812 115.8140106201172 C 313.6241760253906 107.9004364013672 310.14404296875 100.8687896728516 306.3635864257812 94.91438293457031 C 302.3965454101562 88.66610717773438 298.2155456542969 83.79702758789062 293.9367370605469 80.4423828125 C 289.4300231933594 76.90910339355469 284.8757629394531 75.11744689941406 280.39990234375 75.11721801757812 L 280.3994750976562 75.11721801757812 M 280.4005432128906 74.11721801757812 C 299.9491882324219 74.11822509765625 317.4301147460938 106.1724243164062 325.1239929199219 140.0380096435547 C 333.3420104980469 176.2070007324219 330.5989990234375 215.3340148925781 309.4590148925781 220.1369934082031 C 288.3202514648438 224.9400482177734 268.9410095214844 190.8379974365234 260.7229919433594 154.6699981689453 C 252.5059814453125 118.5010070800781 255.2479858398438 79.37397766113281 276.3880004882812 74.57099914550781 C 277.7337646484375 74.26524353027344 279.0714721679688 74.11715698242188 280.4005432128906 74.11721801757812 Z" stroke="none" fill="#fff"></path></g><g id="Path_97" data-name="Path 97" fill="none"><path d="M333.516,326.023c-21.139,4.8-23.882,43.93-15.664,80.1s27.6,70.27,48.736,65.467,23.882-43.93,15.665-80.1-27.6-70.27-48.737-65.467Z" stroke="none"></path><path d="M 337.52783203125 326.5692138671875 C 336.2655334472656 326.5692138671875 334.9902954101562 326.7135314941406 333.737548828125 326.9981384277344 C 328.9325561523438 328.0899047851562 324.9296875 331.122802734375 321.8402099609375 336.0126037597656 C 318.9175415039062 340.638427734375 316.83935546875 346.8459777832031 315.6634216308594 354.4628295898438 C 314.5478515625 361.6886901855469 314.2767944335938 369.9303894042969 314.8577880859375 378.9589538574219 C 315.4220581054688 387.7273254394531 316.7575378417969 396.791748046875 318.8271484375 405.9004516601562 C 320.7601928710938 414.4089965820312 323.2638854980469 422.6337280273438 326.2686462402344 430.3461303710938 C 329.3518371582031 438.2598266601562 332.8319702148438 445.2915344238281 336.6124267578125 451.2459716796875 C 340.5794677734375 457.4943542480469 344.7604675292969 462.3634338378906 349.0392761230469 465.718017578125 C 353.5459899902344 469.2512512207031 358.1002197265625 471.0427551269531 362.5754699707031 471.0427551269531 C 363.8382873535156 471.0427551269531 365.11376953125 470.8984375 366.366455078125 470.6138305664062 C 371.1716918945312 469.5220947265625 375.1746826171875 466.4891662597656 378.2642211914062 461.599365234375 C 381.1869506835938 456.9736022949219 383.26513671875 450.7660522460938 384.4410705566406 443.149169921875 C 385.5566711425781 435.9234008789062 385.8277282714844 427.6817016601562 385.2467651367188 418.6530456542969 C 384.6825561523438 409.8848266601562 383.3472290039062 400.8204040527344 381.27783203125 391.7115478515625 C 379.3445739746094 383.2027893066406 376.8406982421875 374.9779968261719 373.8358154296875 367.265625 C 370.7525024414062 359.3519897460938 367.2722778320312 352.3203735351562 363.4917907714844 346.3660278320312 C 359.5246887207031 340.1177673339844 355.3436584472656 335.2487487792969 351.0648193359375 331.8941955566406 C 346.5581359863281 328.3609924316406 342.0038757324219 326.5693969726562 337.5281372070312 326.5692138671875 L 337.52783203125 326.5692138671875 M 337.5286254882812 325.5692138671875 C 357.0772705078125 325.5700988769531 374.5581665039062 357.62353515625 382.2529907226562 391.489990234375 C 390.4700012207031 427.6589965820312 387.7279968261719 466.7860107421875 366.5880126953125 471.5889892578125 C 345.447509765625 476.3919067382812 326.0689697265625 442.2899475097656 317.8519897460938 406.1220092773438 C 309.6340026855469 369.9530029296875 312.3770141601562 330.8259887695312 333.5159912109375 326.0230102539062 C 334.8617553710938 325.7172546386719 336.1995544433594 325.5691528320312 337.5286254882812 325.5692138671875 Z" stroke="none" fill="#fff"></path></g><g id="Path_98" data-name="Path 98" fill="none"><path d="M233.529,89.5c-19.55,9.367-13.556,48.129,2.471,81.579s42.479,62.41,62.029,53.043,13.556-48.13-2.47-81.579S253.08,80.129,233.529,89.5Z" stroke="none"></path><path d="M 241.4399719238281 88.71168518066406 C 238.8126525878906 88.71168518066406 236.29638671875 89.27899169921875 233.9610900878906 90.3978271484375 C 229.5172729492188 92.52700805664062 226.2857666015625 96.37136840820312 224.3563537597656 101.8240814208984 C 222.5311279296875 106.9824523925781 221.8798828125 113.4961242675781 222.420654296875 121.1842041015625 C 222.9336853027344 128.4776306152344 224.4953308105469 136.5745697021484 227.0622253417969 145.2500915527344 C 229.5551147460938 153.6755218505859 232.8656311035156 162.2189025878906 236.9018249511719 170.6429138183594 C 244.0047302246094 185.4678497314453 252.97021484375 198.9904632568359 262.1467590332031 208.7197570800781 C 272.1319885253906 219.3064270019531 281.8039855957031 224.9022521972656 290.1171264648438 224.9022521972656 C 292.7452392578125 224.9022521972656 295.2618408203125 224.3349609375 297.596923828125 223.2161560058594 C 302.0409545898438 221.0869903564453 305.2725830078125 217.2425842285156 307.2020568847656 211.7897644042969 C 309.02734375 206.6313781738281 309.6786193847656 200.1176300048828 309.1378173828125 192.4294281005859 C 308.6248168945312 185.1360015869141 307.0631713867188 177.0390625 304.496337890625 168.3635101318359 C 302.0035400390625 159.9381866455078 298.6931762695312 151.3949432373047 294.6571350097656 142.9710845947266 C 287.5545043945312 128.1462097167969 278.5890502929688 114.6236724853516 269.4122924804688 104.8944396972656 C 259.4271850585938 94.30824279785156 249.7550048828125 88.71234130859375 241.4404907226562 88.71168518066406 L 241.4399719238281 88.71168518066406 M 241.44140625 87.71170043945312 C 259.7619018554688 87.71311950683594 281.6105651855469 113.4253997802734 295.5589599609375 142.5390014648438 C 311.5849609375 175.9880065917969 317.5799865722656 214.7510070800781 298.0289916992188 224.1179809570312 C 278.4789428710938 233.4850158691406 252.0260314941406 204.5240020751953 236 171.0749816894531 C 219.9730224609375 137.625 213.97900390625 98.86300659179688 233.5289916992188 89.49600219726562 C 236.0635681152344 88.28167724609375 238.7126159667969 87.71148681640625 241.44140625 87.71170043945312 Z" stroke="none" fill="#fff"></path></g><g id="Path_99" data-name="Path 99" fill="none"><path d="M344.947,322.042c-19.551,9.367-13.556,48.13,2.47,81.579s42.479,62.41,62.03,53.043,13.556-48.129-2.471-81.578-42.479-62.411-62.029-53.044Z" stroke="none"></path><path d="M 352.8571166992188 321.2577514648438 C 350.2301330566406 321.2577514648438 347.7141723632812 321.8250122070312 345.3790588378906 322.94384765625 C 340.9350280761719 325.072998046875 337.703369140625 328.9173889160156 335.77392578125 334.3702392578125 C 333.9486389160156 339.5286254882812 333.29736328125 346.0423889160156 333.838134765625 353.7305908203125 C 334.3511962890625 361.0239868164062 335.9128112792969 369.1209411621094 338.4796142578125 377.7965087890625 C 340.972412109375 386.2218322753906 344.2828063964844 394.7650756835938 348.3188171386719 403.1889038085938 C 355.4222717285156 418.0141296386719 364.3879699707031 431.5367431640625 373.5642700195312 441.2657470703125 C 383.5494995117188 451.8524475097656 393.2215576171875 457.4482421875 401.5348510742188 457.4482421875 C 404.1630554199219 457.4482421875 406.6796875 456.8809814453125 409.014892578125 455.7621765136719 C 413.4587097167969 453.6329956054688 416.6902160644531 449.7886657714844 418.61962890625 444.3359069824219 C 420.4448547363281 439.1775817871094 421.0961303710938 432.6639404296875 420.5553283691406 424.9759216308594 C 420.0422973632812 417.6825256347656 418.4806518554688 409.5857238769531 415.9137878417969 400.9103393554688 C 413.4208984375 392.4850158691406 410.1103820800781 383.9418029785156 406.0741577148438 375.51806640625 C 398.9715270996094 360.6932067871094 390.0060119628906 347.1705017089844 380.8292541503906 337.4410095214844 C 370.8441772460938 326.8545532226562 361.172119140625 321.2584838867188 352.8577880859375 321.2577514648438 L 352.8571166992188 321.2577514648438 M 352.8588562011719 320.2577209472656 C 371.1786804199219 320.2593383789062 393.027587890625 345.9723815917969 406.9760131835938 375.0859985351562 C 423.0029907226562 408.5350036621094 428.9970092773438 447.2969970703125 409.4469909667969 456.6640014648438 C 389.8961791992188 466.0308837890625 363.4440307617188 437.0700378417969 347.4169921875 403.6210021972656 C 331.3909912109375 370.1719970703125 325.39599609375 331.4089965820312 344.9469909667969 322.0419921875 C 347.4814147949219 320.8276672363281 350.130126953125 320.2574768066406 352.8588562011719 320.2577209472656 Z" stroke="none" fill="#fff"></path></g><g id="Path_100" data-name="Path 100" fill="none"><path d="M195.042,113.545c-16.989,13.466-2.556,49.937,20.483,79.005s55.25,51.447,72.239,37.982,2.557-49.937-20.482-79-55.25-51.448-72.24-37.983Z" stroke="none"></path><path d="M 207.1889343261719 109.5319976806641 L 207.1889343261719 110.5319976806641 C 202.7197875976562 110.5319976806641 198.8419494628906 111.8094024658203 195.6631469726562 114.3286743164062 C 191.8014526367188 117.3895721435547 189.501953125 121.8544311523438 188.8285522460938 127.5992431640625 C 188.1914978027344 133.0338592529297 188.9995422363281 139.5300445556641 191.2301940917969 146.9073181152344 C 193.3463134765625 153.9058837890625 196.6629943847656 161.4556579589844 201.0880737304688 169.3469543457031 C 205.3855895996094 177.0107116699219 210.5065612792969 184.6083831787109 216.3086547851562 191.9288330078125 C 220.8893737792969 197.7080383300781 225.7849731445312 203.164794921875 230.8594665527344 208.1475219726562 C 236.0286865234375 213.2232360839844 241.2586669921875 217.68310546875 246.4041442871094 221.4031982421875 C 257.390869140625 229.346435546875 267.4913330078125 233.5450134277344 275.6135864257812 233.5450134277344 C 280.085205078125 233.5450134277344 283.9642028808594 232.2676086425781 287.1428833007812 229.748291015625 C 291.0047912597656 226.6874084472656 293.3044738769531 222.2225341796875 293.97802734375 216.4777526855469 C 294.6151733398438 211.0431518554688 293.8072509765625 204.5470123291016 291.57666015625 197.1697998046875 C 289.4606018066406 190.1712951660156 286.1439819335938 182.6216430664062 281.7188720703125 174.7304840087891 C 277.42138671875 167.0668182373047 272.3004455566406 159.4693756103516 266.498291015625 152.1491394042969 C 261.9177856445312 146.3699645996094 257.0221557617188 140.9131774902344 251.947509765625 135.9303741455078 C 246.7784423828125 130.8549194335938 241.5484466552734 126.3951721191406 236.4027709960938 122.6750640869141 C 225.4163208007812 114.7322845458984 215.3156433105469 110.5332794189453 207.1926879882812 110.5319976806641 L 207.1889343261719 109.5319976806641 M 207.1928405761719 109.531982421875 C 224.8464660644531 109.5347747802734 248.9649810791016 128.4176635742188 267.2820129394531 151.5279998779297 C 290.3210144042969 180.5950012207031 304.7539672851562 217.0659942626953 287.7640075683594 230.5319976806641 C 284.2820129394531 233.2917327880859 280.1644287109375 234.5450134277344 275.6135864257812 234.5450134277344 C 257.96044921875 234.5450134277344 233.8420104980469 215.6595458984375 215.5249938964844 192.5500030517578 C 192.4859924316406 163.4819946289062 178.052978515625 127.0110015869141 195.0419921875 113.5449981689453 C 198.5242004394531 110.7852630615234 202.6418762207031 109.5312652587891 207.1928405761719 109.531982421875 Z" stroke="none" fill="#fff"></path></g><g id="Path_101" data-name="Path 101" fill="none"><path d="M355.211,315.628c-16.989,13.466-2.555,49.937,20.483,79.005s55.25,51.447,72.24,37.982,2.556-49.937-20.483-79-55.25-51.448-72.24-37.983Z" stroke="none"></path><path d="M 367.3579406738281 311.614990234375 L 367.3579406738281 312.614990234375 C 362.8887939453125 312.614990234375 359.0109558105469 313.8923950195312 355.8321533203125 316.4116821289062 C 351.970458984375 319.4725646972656 349.6710205078125 323.9374084472656 348.9977111816406 329.6822204589844 C 348.3607482910156 335.1167907714844 349.1688537597656 341.6129760742188 351.3995666503906 348.9902954101562 C 353.5157165527344 355.9888000488281 356.8324279785156 363.5386047363281 361.2575378417969 371.4299621582031 C 365.5549621582031 379.0936584472656 370.6757507324219 386.6912841796875 376.4776611328125 394.0118408203125 C 381.0583801269531 399.7910461425781 385.9539794921875 405.247802734375 391.0285034179688 410.2305297851562 C 396.1977233886719 415.3062438964844 401.4277038574219 419.7660827636719 406.5732116699219 423.4861755371094 C 417.5599975585938 431.429443359375 427.6606140136719 435.6280212402344 435.7830810546875 435.6280212402344 C 440.2548217773438 435.6280212402344 444.1340026855469 434.3506164550781 447.3128356933594 431.831298828125 C 451.1745300292969 428.7704162597656 453.4740295410156 424.3055419921875 454.1474304199219 418.5607604980469 C 454.7844848632812 413.1261596679688 453.9764404296875 406.6300354003906 451.7457885742188 399.2527770996094 C 449.6296691894531 392.2543029785156 446.31298828125 384.7046203613281 441.8878784179688 376.8134765625 C 437.5903625488281 369.1498107910156 432.4694213867188 361.5523376464844 426.6672973632812 354.2321166992188 C 422.0867614746094 348.4529418945312 417.191162109375 342.9961853027344 412.1164855957031 338.0133666992188 C 406.9474487304688 332.9378967285156 401.7174377441406 328.4781799316406 396.57177734375 324.758056640625 C 385.5852966308594 316.8152770996094 375.484619140625 312.6162719726562 367.3616943359375 312.614990234375 L 367.3579406738281 311.614990234375 M 367.3618469238281 311.614990234375 C 385.0154724121094 311.6177673339844 409.1339721679688 330.5006408691406 427.4509887695312 353.6109924316406 C 450.489990234375 382.6780090332031 464.9230041503906 419.1489868164062 447.9339904785156 432.614990234375 C 444.4517822265625 435.3747253417969 440.3340454101562 436.6280212402344 435.7830810546875 436.6280212402344 C 418.1294555664062 436.6280212402344 394.0110168457031 417.7425537109375 375.6940002441406 394.6329956054688 C 352.656005859375 365.5650024414062 338.2219848632812 329.093994140625 355.2109985351562 315.6279907226562 C 358.6932067871094 312.8682556152344 362.8108825683594 311.6142578125 367.3618469238281 311.614990234375 Z" stroke="none" fill="#fff"></path></g><g id="Path_102" data-name="Path 102" fill="none"><path d="M162.84,145.524c-13.584,16.894,8.571,49.262,37.477,72.5s65.275,37.928,78.859,21.034-8.571-49.263-37.477-72.5-65.275-37.929-78.859-21.034Z" stroke="none"></path><path d="M 180.4246826171875 139.2238922119141 C 172.9689331054688 139.2238922119141 167.3148193359375 141.5543670654297 163.6193237304688 146.1506195068359 C 160.5315856933594 149.9907073974609 159.2783813476562 154.8538513183594 159.8944396972656 160.6049652099609 C 160.4772033691406 166.0455780029297 162.7043762207031 172.2012786865234 166.5140380859375 178.9010772705078 C 170.1281127929688 185.2568969726562 175.0350036621094 191.8842926025391 181.0984497070312 198.5991363525391 C 186.9870758056641 205.1203918457031 193.6639404296875 211.3946533203125 200.9435882568359 217.2476501464844 C 211.1745147705078 225.4735107421875 222.0954742431641 232.4377288818359 232.5258331298828 237.387451171875 C 237.9039154052734 239.9396057128906 243.0709533691406 241.9142761230469 247.8834228515625 243.2565765380859 C 252.8885803222656 244.6526184082031 257.4996337890625 245.3604736328125 261.5885314941406 245.3604736328125 C 269.0462341308594 245.3604736328125 274.7012939453125 243.0301971435547 278.3966674804688 238.4343872070312 C 281.484375 234.5940551757812 282.7376098632812 229.730712890625 282.12158203125 223.9794464111328 C 281.5387573242188 218.5387268066406 279.3116149902344 212.3829650878906 275.501953125 205.6831665039062 C 271.8878784179688 199.3273315429688 266.9810180664062 192.7000122070312 260.9175720214844 185.9853057861328 C 255.0289306640625 179.4641571044922 248.35205078125 173.1900787353516 241.0723724365234 167.3373107910156 C 230.8421325683594 159.1116485595703 219.9212951660156 152.1474304199219 209.490478515625 147.1975555419922 C 204.1125946044922 144.6455383300781 198.9456176757812 142.6708679199219 194.1330718994141 141.3284454345703 C 189.1280212402344 139.9323577880859 184.5169677734375 139.2242736816406 180.4255065917969 139.2238922119141 L 180.4246826171875 139.2238922119141 M 180.4280700683594 138.2238922119141 C 197.5987091064453 138.2254638671875 221.4767913818359 150.2982330322266 241.6989898681641 166.5579986572266 C 270.6050109863281 189.7980194091797 292.760009765625 222.1659851074219 279.1759948730469 239.0609893798828 C 275.0951538085938 244.1361999511719 268.9619445800781 246.3604583740234 261.5885620117188 246.3604583740234 C 244.4178924560547 246.3604583740234 220.5392150878906 234.2860565185547 200.3170013427734 218.0269927978516 C 171.4110107421875 194.7859954833984 149.2559814453125 162.4179992675781 162.8399963378906 145.5239868164062 C 166.9208374023438 140.448486328125 173.0546569824219 138.2232208251953 180.4280700683594 138.2238922119141 Z" stroke="none" fill="#fff"></path></g><g id="Path_103" data-name="Path 103" fill="none"><path d="M138.522,183.842c-9.5,19.484,19.272,46.139,52.609,62.4s72.056,22.524,81.56,3.04-19.272-46.139-52.609-62.4-72.056-22.525-81.56-3.04Z" stroke="none"></path><path d="M 164.8037872314453 172.7347106933594 C 158.5215148925781 172.7347106933594 153.1925354003906 173.6698303222656 148.96484375 175.51416015625 C 144.5242004394531 177.4514007568359 141.3130798339844 180.4007873535156 139.4207763671875 184.2803802490234 C 137.2606811523438 188.7091979980469 137.1161193847656 193.7291870117188 138.9910583496094 199.200927734375 C 140.7647705078125 204.3772430419922 144.3003845214844 209.8865356445312 149.4996643066406 215.5757598876953 C 154.4320678710938 220.9729461669922 160.6853179931641 226.3484802246094 168.085693359375 231.5530242919922 C 175.2727966308594 236.6075592041016 183.173828125 241.2465667724609 191.5693511962891 245.3412017822266 C 200.9432678222656 249.9130249023438 210.8008117675781 253.6971435546875 220.0762481689453 256.2845153808594 C 224.8312072753906 257.6109008789062 229.4529724121094 258.6322021484375 233.8131256103516 259.3200378417969 C 238.2990875244141 260.0277099609375 242.5366058349609 260.3865356445312 246.4079437255859 260.3865356445312 C 252.6909332275391 260.3865356445312 258.020263671875 259.4515380859375 262.2478942871094 257.6074829101562 C 266.6886596679688 255.6704559326172 269.8998413085938 252.7211761474609 271.7922058105469 248.8416442871094 C 273.9522705078125 244.4125823974609 274.0968627929688 239.3924407958984 272.221923828125 233.920654296875 C 270.4482421875 228.7443237304688 266.9126281738281 223.2350463867188 261.7133178710938 217.5458679199219 C 256.7809753417969 212.1487884521484 250.5277252197266 206.7733459472656 243.1273040771484 201.56884765625 C 235.9402770996094 196.5144348144531 228.0392303466797 191.8754577636719 219.6436157226562 187.7807769775391 C 210.2699584960938 183.2088165283203 200.4124908447266 179.4245452880859 191.1368865966797 176.8370361328125 C 186.3820037841797 175.5106506347656 181.7602844238281 174.4892883300781 177.4001159667969 173.8014221191406 C 172.9142303466797 173.0936889648438 168.6767272949219 172.7348022460938 164.8044586181641 172.7347106933594 L 164.8037872314453 172.7347106933594 M 164.8053588867188 171.7347106933594 C 180.815673828125 171.735107421875 201.3034820556641 177.7228393554688 220.0819854736328 186.8820037841797 C 253.4190063476562 203.1410064697266 282.1939697265625 229.7949981689453 272.6910095214844 249.2799987792969 C 263.18701171875 268.7640075683594 224.4680023193359 262.4989624023438 191.1309967041016 246.2400054931641 C 157.7940063476562 229.9810028076172 129.0189819335938 203.3260040283203 138.5220031738281 183.8419952392578 C 142.6724548339844 175.332763671875 152.3929748535156 171.7344055175781 164.8053588867188 171.7347106933594 Z" stroke="none" fill="#fff"></path></g><g id="Path_104" data-name="Path 104" fill="none"><path d="M123.3,226.6c-4.951,21.106,29.015,40.723,65.125,49.192s75.256,6,80.206-15.1-29.015-40.723-65.125-49.193-75.256-6-80.206,15.1Z" stroke="none"></path><path d="M 166.5481109619141 207.9457092285156 C 160.9730682373047 207.9457092285156 155.7668151855469 208.3207092285156 151.073974609375 209.0603332519531 C 146.2069854736328 209.8274230957031 141.8863677978516 210.9884338378906 138.2321166992188 212.5111083984375 C 130.4345397949219 215.7602844238281 125.7378845214844 220.5755920410156 124.2725830078125 226.8233947753906 C 123.1471862792969 231.6208801269531 124.1182556152344 236.5482788085938 127.1587829589844 241.4687194824219 C 130.03515625 246.1234588623047 134.7034606933594 250.7125396728516 141.0339965820312 255.1084899902344 C 147.0394897460938 259.2786865234375 154.3282470703125 263.1351928710938 162.6978149414062 266.5708312988281 C 170.8260192871094 269.9073486328125 179.5583801269531 272.6805419921875 188.6523590087891 274.8134155273438 C 201.2535095214844 277.76904296875 213.9522399902344 279.3313293457031 225.3756713867188 279.3313293457031 C 230.9510345458984 279.3313293457031 236.1576690673828 278.9563598632812 240.8509979248047 278.216796875 C 245.7186126708984 277.4497680664062 250.0398254394531 276.2888793945312 253.6946258544922 274.7662658691406 C 261.4937133789062 271.5172119140625 266.1911315917969 266.7020568847656 267.6564025878906 260.4546203613281 C 268.7817993164062 255.6571197509766 267.8107299804688 250.7297210693359 264.7702026367188 245.8092651367188 C 261.8938598632812 241.1545257568359 257.2255554199219 236.5653991699219 250.8949890136719 232.1693878173828 C 244.8895263671875 227.9991149902344 237.6007690429688 224.1425170898438 229.2311706542969 220.7067565917969 C 221.10302734375 217.3700866699219 212.3706665039062 214.5966491699219 203.2766571044922 212.4635620117188 C 190.6784362792969 209.5085144042969 177.9800109863281 207.9462585449219 166.5498352050781 207.9457092285156 L 166.5481109619141 207.9457092285156 M 166.5542449951172 206.9457092285156 C 178.2101898193359 206.9462890625 191.04150390625 208.5665588378906 203.5050201416016 211.489990234375 C 239.6150054931641 219.9600219726562 273.5809936523438 239.5770111083984 268.6300048828125 260.6829833984375 C 263.6799926757812 281.7879943847656 224.5349578857422 284.2569580078125 188.4239959716797 275.7869873046875 C 152.3139953613281 267.3179931640625 118.3479919433594 247.7010040283203 123.2990112304688 226.5950012207031 C 126.5404968261719 212.7738342285156 144.4398956298828 206.9446411132812 166.5542449951172 206.9457092285156 Z" stroke="none" fill="#fff"></path></g><g id="Path_105" data-name="Path 105" fill="none"><path d="M117.925,271.659c-.151,21.678,37.316,33.282,74.406,33.541s74.715-10.821,74.866-32.5-37.316-33.283-74.4-33.541-74.716,10.821-74.867,32.5Z" stroke="none"></path><path d="M 191.519287109375 240.1555480957031 C 182.2798156738281 240.1555480957031 173.265869140625 240.8461608886719 164.7278747558594 242.2082214355469 C 155.9293365478516 243.6118774414062 148.0785369873047 245.6619262695312 141.3935089111328 248.3014221191406 C 134.3483123779297 251.0831604003906 128.8455810546875 254.4290161132812 125.0381469726562 258.2460632324219 C 121.0156860351562 262.2786865234375 118.9589233398438 266.7937927246094 118.9249877929688 271.6659545898438 C 118.8906555175781 276.593505859375 120.9293823242188 281.1832275390625 124.9845275878906 285.3076782226562 C 128.8207092285156 289.2094116210938 134.3897094726562 292.650146484375 141.5368347167969 295.5343017578125 C 148.3169860839844 298.2703552246094 156.279052734375 300.4161682128906 165.2018280029297 301.9121704101562 C 173.8672790527344 303.3650512695312 182.9971923828125 304.1348266601562 192.3379974365234 304.2000122070312 C 192.7570190429688 304.2029724121094 193.1824188232422 304.2044677734375 193.6023712158203 304.2044677734375 C 202.8423004150391 304.2044677734375 211.8564300537109 303.5138854980469 220.3943939208984 302.1519470214844 C 229.1930541992188 300.7484130859375 237.0438690185547 298.698486328125 243.7287902832031 296.05908203125 C 250.77392578125 293.2774353027344 256.276611328125 289.9315795898438 260.083984375 286.1144714355469 C 264.1063537597656 282.0818176269531 266.1630859375 277.5665283203125 266.197021484375 272.6939697265625 C 266.2315673828125 267.7664794921875 264.1929931640625 263.1766967773438 260.1378784179688 259.0521850585938 C 256.3017578125 255.1503601074219 250.7327728271484 251.7095336914062 243.5856475830078 248.8253479003906 C 236.8054351806641 246.0892028808594 228.8434143066406 243.943359375 219.9207305908203 242.4473876953125 C 211.2552337646484 240.9945373535156 202.1254730224609 240.2249450683594 192.7850189208984 240.1599731445312 C 192.3659973144531 240.1570434570312 191.9405975341797 240.1555480957031 191.5205993652344 240.1555480957031 L 191.519287109375 240.1555480957031 M 191.5205993652344 239.1555480957031 C 191.9440155029297 239.1555480957031 192.3686828613281 239.1570434570312 192.7920074462891 239.1600036621094 C 229.8809967041016 239.4179992675781 267.3489990234375 251.0230102539062 267.1969909667969 272.7009887695312 C 267.0459899902344 294.3789978027344 229.4213409423828 305.4592895507812 192.3309936523438 305.2000122070312 C 155.2409973144531 304.9410095214844 117.7739868164062 293.3370056152344 117.9249877929688 271.6589965820312 C 118.0742797851562 250.2284240722656 154.8467102050781 239.1553039550781 191.5205993652344 239.1555480957031 Z" stroke="none" fill="#fff"></path></g><g id="Path_106" data-name="Path 106" fill="none"><path d="M375.779,273.459c-.152,21.678,37.316,33.282,74.406,33.541s74.715-10.821,74.866-32.5-37.316-33.282-74.405-33.541-74.716,10.821-74.867,32.5Z" stroke="none"></path><path d="M 449.3728942871094 241.95556640625 C 440.1334228515625 241.95556640625 431.1195068359375 242.6462097167969 422.58154296875 244.0082702636719 C 413.7830505371094 245.411865234375 405.9322814941406 247.4619140625 399.247314453125 250.1014404296875 C 392.2021789550781 252.8831481933594 386.699462890625 256.2290344238281 382.89208984375 260.0460815429688 C 378.86962890625 264.0787048339844 376.8129272460938 268.5938110351562 376.7789306640625 273.4660339355469 C 376.7444458007812 278.3935546875 378.7830200195312 282.9832458496094 382.8380737304688 287.107666015625 C 386.6742553710938 291.0094299316406 392.2432556152344 294.4501342773438 399.3904724121094 297.3342895507812 C 406.1706848144531 300.0703430175781 414.1328125 302.2161560058594 423.0556945800781 303.712158203125 C 431.7212219238281 305.1650390625 440.8511657714844 305.934814453125 450.1919860839844 306 C 450.6110229492188 306.0029602050781 451.0364074707031 306.0044555664062 451.4563903808594 306.0044555664062 C 460.6962890625 306.0044555664062 469.71044921875 305.3138732910156 478.2484130859375 303.9519348144531 C 487.0470581054688 302.5484008789062 494.8978881835938 300.4984741210938 501.5827941894531 297.8590698242188 C 508.6279296875 295.0774230957031 514.130615234375 291.7315673828125 517.93798828125 287.9144897460938 C 521.9603881835938 283.8818054199219 524.01708984375 279.3665161132812 524.051025390625 274.4940490722656 C 524.0853271484375 269.5664978027344 522.046630859375 264.9767761230469 517.991455078125 260.8523254394531 C 514.1553344726562 256.9505920410156 508.5863647460938 253.5098571777344 501.4392700195312 250.625732421875 C 494.6592102050781 247.8896789550781 486.6972351074219 245.7438354492188 477.7745666503906 244.2478332519531 C 469.1092834472656 242.7949523925781 459.9795532226562 242.0252075195312 450.6390075683594 241.9599914550781 C 450.219970703125 241.9570617675781 449.7945251464844 241.95556640625 449.3743896484375 241.95556640625 L 449.3728942871094 241.95556640625 M 449.3743896484375 240.95556640625 C 449.7978210449219 240.9555969238281 450.22265625 240.9570617675781 450.64599609375 240.9600219726562 C 487.7349853515625 241.218994140625 525.2020263671875 252.822998046875 525.051025390625 274.5010070800781 C 524.9017333984375 295.9315795898438 488.1292724609375 307.0044555664062 451.4563903808594 307.0044555664062 C 451.0329895019531 307.0044555664062 450.6083068847656 307.0029602050781 450.1849975585938 307 C 413.0950012207031 306.7409973144531 375.6270141601562 295.1369934082031 375.7789916992188 273.4590148925781 C 375.9282836914062 252.0284118652344 412.7005310058594 240.9552917480469 449.3743896484375 240.95556640625 Z" stroke="none" fill="#fff"></path></g><g id="Path_107" data-name="Path 107" fill="none"><path d="M122.669,316.793c4.655,21.173,43.762,24.188,79.988,16.224s70.461-27.106,65.806-48.278S224.7,260.55,188.475,268.515s-70.461,27.1-65.806,48.278Z" stroke="none"></path><path d="M 167.4422302246094 336.0567321777344 C 178.3874359130859 336.0567321777344 190.4902496337891 334.6678771972656 202.4422454833984 332.0403442382812 C 211.5651550292969 330.034423828125 220.3354034423828 327.3832092285156 228.5094146728516 324.1603393554688 C 236.9261169433594 320.841796875 244.2680053710938 317.0873718261719 250.3311462402344 313.0013732910156 C 256.7224426269531 308.6942138671875 261.4543762207031 304.1708374023438 264.3955383300781 299.5567932128906 C 267.5045471191406 294.6794128417969 268.5444641113281 289.7662353515625 267.4863586425781 284.9537963867188 C 266.7687377929688 281.6904296875 265.1457824707031 278.7694702148438 262.66259765625 276.2720336914062 C 260.2761840820312 273.8719177246094 257.0657653808594 271.8263854980469 253.1205902099609 270.1923217773438 C 249.324462890625 268.6199951171875 244.831787109375 267.4204711914062 239.767333984375 266.6271057128906 C 234.8864288330078 265.8624877929688 229.4781341552734 265.4747924804688 223.6927032470703 265.4747924804688 C 212.7451324462891 265.4747924804688 200.6413116455078 266.8638305664062 188.6897430419922 269.49169921875 C 179.5667419433594 271.4976196289062 170.7964935302734 274.1487731933594 162.6225891113281 277.3715209960938 C 154.2058563232422 280.6900329589844 146.8639526367188 284.4443969726562 140.8008422851562 288.5302734375 C 134.4095458984375 292.8373718261719 129.6776123046875 297.3607482910156 126.7364883422852 301.9747924804688 C 123.6274719238281 306.8522338867188 122.5875701904297 311.7655334472656 123.6456909179688 316.5782775878906 C 124.363151550293 319.8416137695312 125.9859466552734 322.7625122070312 128.4690246582031 325.2598571777344 C 130.8553314208984 327.6598510742188 134.0656280517578 329.7052612304688 138.0107727050781 331.3392333984375 C 141.8067932128906 332.9114685058594 146.2994537353516 334.1109008789062 151.3639831542969 334.9042663574219 C 156.2447967529297 335.6688537597656 161.6531219482422 336.0566101074219 167.4409484863281 336.0567321777344 L 167.4422302246094 336.0567321777344 M 167.438720703125 337.0567626953125 C 144.5068969726562 337.05615234375 125.7988586425781 331.0289611816406 122.6690063476562 316.7929992675781 C 118.0140075683594 295.6199951171875 152.2500152587891 276.4800109863281 188.4750061035156 268.5150146484375 C 200.3436431884766 265.9053955078125 212.5183410644531 264.4747924804688 223.6927032470703 264.4747924804688 C 246.6242980957031 264.4747924804688 265.3324890136719 270.5030517578125 268.4630126953125 284.739013671875 C 273.1180114746094 305.9110107421875 238.8820037841797 325.052001953125 202.656982421875 333.0169982910156 C 190.7880249023438 335.6262817382812 178.6131896972656 337.0570373535156 167.438720703125 337.0567626953125 Z" stroke="none" fill="#fff"></path></g><g id="Path_108" data-name="Path 108" fill="none"><path d="M374.514,261.422c4.655,21.172,43.762,24.188,79.987,16.223s70.461-27.1,65.806-48.278-43.762-24.188-79.987-16.224-70.462,27.106-65.806,48.279Z" stroke="none"></path><path d="M 419.2859497070312 280.6852111816406 C 430.2316589355469 280.6852111816406 442.3345642089844 279.2962036132812 454.2862854003906 276.6683044433594 C 463.4092407226562 274.6623840332031 472.1795043945312 272.01123046875 480.3534240722656 268.7884826660156 C 488.7701721191406 265.469970703125 496.112060546875 261.7156066894531 502.1751403808594 257.6297302246094 C 508.5664672851562 253.3226470947266 513.2984008789062 248.7992553710938 516.2395629882812 244.1851959228516 C 519.3485107421875 239.3077850341797 520.388427734375 234.3944549560547 519.330322265625 229.5817260742188 C 518.6128540039062 226.3184051513672 516.9900512695312 223.3974609375 514.5069580078125 220.9000854492188 C 512.1206665039062 218.5 508.9103698730469 216.4545440673828 504.9652404785156 214.8205413818359 C 501.1692199707031 213.2482604980469 496.6766052246094 212.0487976074219 491.6121520996094 211.2554779052734 C 486.7313232421875 210.4909057617188 481.3230590820312 210.1032409667969 475.53759765625 210.1032409667969 C 464.5903015136719 210.1032409667969 452.4864807128906 211.4920959472656 440.5347595214844 214.1196746826172 C 431.4115600585938 216.1255798339844 422.64111328125 218.7767944335938 414.4670104980469 221.9996795654297 C 406.0502014160156 225.3182678222656 398.708251953125 229.0727233886719 392.6451110839844 233.1587677001953 C 386.2538452148438 237.4659576416016 381.5219421386719 241.9894561767578 378.5809326171875 246.6036224365234 C 375.4720458984375 251.4811248779297 374.4323425292969 256.3945007324219 375.4906921386719 261.207275390625 C 376.2081604003906 264.4704284667969 377.8309326171875 267.3912353515625 380.31396484375 269.8884887695312 C 382.7002258300781 272.2884521484375 385.9104614257812 274.3338012695312 389.8554992675781 275.9677734375 C 393.6514587402344 277.5399780273438 398.14404296875 278.7394104003906 403.2084350585938 279.5327758789062 C 408.0892028808594 280.29736328125 413.4974670410156 280.6850891113281 419.2847595214844 280.6852111816406 L 419.2859497070312 280.6852111816406 M 419.2829284667969 281.6852111816406 C 396.3514099121094 281.6847229003906 377.6438598632812 275.6572875976562 374.5140075683594 261.4219970703125 C 369.8580017089844 240.2490081787109 404.093994140625 221.1080017089844 440.3200073242188 213.1430053710938 C 452.1886596679688 210.5337066650391 464.36328125 209.1032409667969 475.53759765625 209.1032409667969 C 498.4691162109375 209.1032409667969 517.1771240234375 215.1310577392578 520.3070068359375 229.3670043945312 C 524.9619750976562 250.5399932861328 490.7260131835938 269.6799926757812 454.5010070800781 277.6449890136719 C 442.6323547363281 280.2546081542969 430.4572448730469 281.6854858398438 419.2829284667969 281.6852111816406 Z" stroke="none" fill="#fff"></path></g><g id="Path_109" data-name="Path 109" fill="none"><path d="M137.294,359.755c9.231,19.615,48.034,13.891,81.6-1.9s62.7-42.042,53.474-61.657-48.034-13.892-81.594,1.9-62.705,42.043-53.475,61.658Z" stroke="none"></path><path d="M 164.3230133056641 371.2337646484375 C 171.9798278808594 371.2337646484375 180.7346496582031 369.9273376464844 190.3442535400391 367.3507385253906 C 199.4897155761719 364.8985900878906 209.2131042480469 361.3017883300781 218.4632263183594 356.9491882324219 C 226.9149780273438 352.9721374511719 234.8798522949219 348.4439086914062 242.1366271972656 343.4902954101562 C 249.6088562011719 338.3896179199219 255.9364166259766 333.1019897460938 260.9435729980469 327.7742919921875 C 266.2216796875 322.1582641601562 269.8338012695312 316.6989135742188 271.6795959472656 311.5479125976562 C 273.6306762695312 306.1029052734375 273.5562133789062 301.0813598632812 271.4581604003906 296.6227416992188 C 269.57666015625 292.6240844726562 266.3000183105469 289.5827026367188 261.7192687988281 287.5831604003906 C 257.3629760742188 285.6815795898438 251.8509979248047 284.7174072265625 245.3363952636719 284.7174072265625 C 237.6790771484375 284.7174072265625 228.9240264892578 286.0237426757812 219.3144683837891 288.6001586914062 C 210.1684265136719 291.0523071289062 200.4447937011719 294.6491394042969 191.1947937011719 299.0018005371094 C 182.7429656982422 302.9791564941406 174.7780456542969 307.507568359375 167.5212249755859 312.4613037109375 C 160.0488739013672 317.5621643066406 153.7211761474609 322.8498840332031 148.7139282226562 328.1776123046875 C 143.4356536865234 333.7937316894531 139.8234100341797 339.2531127929688 137.9775695800781 344.4041137695312 C 136.0263671875 349.84912109375 136.1008148193359 354.8706665039062 138.1988372802734 359.3291931152344 C 140.0805053710938 363.3276062011719 143.357177734375 366.3687438964844 147.9377746582031 368.3680419921875 C 152.2937316894531 370.2693481445312 157.8056640625 371.2335205078125 164.3220672607422 371.2337646484375 L 164.3230133056641 371.2337646484375 M 164.3203887939453 372.2337646484375 C 151.4725494384766 372.2332763671875 141.4232788085938 368.5293273925781 137.2940063476562 359.7550048828125 C 128.0639953613281 340.1400146484375 157.2090148925781 313.8900146484375 190.7689971923828 298.0969848632812 C 209.3167114257812 289.3691711425781 229.4628601074219 283.7174072265625 245.3363952636719 283.7174072265625 C 258.1842346191406 283.7174072265625 268.2341918945312 287.4222412109375 272.3630065917969 296.1969909667969 C 281.5929870605469 315.81201171875 252.4490051269531 342.06201171875 218.8890075683594 357.85400390625 C 200.3407440185547 366.5818176269531 180.1939239501953 372.234375 164.3203887939453 372.2337646484375 Z" stroke="none" fill="#fff"></path></g><g id="Path_110" data-name="Path 110" fill="none"><path d="M370.613,249.964c9.23,19.615,48.034,13.891,81.594-1.9s62.7-42.043,53.475-61.658-48.034-13.891-81.594,1.9-62.705,42.042-53.475,61.658Z" stroke="none"></path><path d="M 397.6415100097656 261.4427795410156 C 405.2983703613281 261.4427795410156 414.0531616210938 260.1363220214844 423.6627197265625 257.5597534179688 C 432.8081970214844 255.1075744628906 442.5314025878906 251.5107727050781 451.7811889648438 247.1581878662109 C 460.2330017089844 243.1808471679688 468.1979370117188 238.6524353027344 475.4547424316406 233.6987152099609 C 482.9271240234375 228.5978698730469 489.2548217773438 223.3101348876953 494.2620544433594 217.9824066162109 C 499.5403442382812 212.3662872314453 503.1525573730469 206.9069061279297 504.9984436035156 201.7559051513672 C 506.9496459960938 196.3109130859375 506.8751831054688 191.2893676757812 504.7771911621094 186.8307952880859 C 502.8956604003906 182.8322906494141 499.619140625 179.7911224365234 495.0386352539062 177.791748046875 C 490.6825866699219 175.8903350830078 485.1707153320312 174.9262237548828 478.6561279296875 174.9262237548828 C 470.998779296875 174.9262237548828 462.2436218261719 176.2326049804688 452.6338500976562 178.8090667724609 C 443.4875793457031 181.2612762451172 433.7638244628906 184.858154296875 424.5137634277344 189.2108459472656 C 416.0617980957031 193.1878967285156 408.0967407226562 197.7161102294922 400.8398132324219 202.6697540283203 C 393.3674621582031 207.7704315185547 387.039794921875 213.0580902099609 382.0325622558594 218.3858489990234 C 376.7543640136719 224.0019226074219 373.1422424316406 229.4613647460938 371.2964172363281 234.6125335693359 C 369.3453063964844 240.0576629638672 369.4197998046875 245.0794067382812 371.517822265625 249.5382232666016 C 373.3993225097656 253.5366516113281 376.6758422851562 256.5777587890625 381.25634765625 258.5770568847656 C 385.6122436523438 260.4783630371094 391.1241455078125 261.4425048828125 397.6405639648438 261.4427795410156 L 397.6415100097656 261.4427795410156 M 397.6388854980469 262.4427795410156 C 384.7910461425781 262.4422607421875 374.7418212890625 258.7383117675781 370.6130065917969 249.9640045166016 C 361.3829956054688 230.3480072021484 390.5270080566406 204.0980072021484 424.0880126953125 188.3060150146484 C 442.6357421875 179.5781860351562 462.7825927734375 173.9262390136719 478.6561279296875 173.9262390136719 C 491.5039672851562 173.9262390136719 501.5531921386719 177.6306915283203 505.6820068359375 186.4050140380859 C 514.9119873046875 206.0200042724609 485.7669982910156 232.2700042724609 452.2070007324219 248.0630035400391 C 433.6592712402344 256.7908325195312 413.5124206542969 262.4433898925781 397.6388854980469 262.4427795410156 Z" stroke="none" fill="#fff"></path></g><g id="Path_111" data-name="Path 111" fill="none"><path d="M161.074,398.409c13.347,17.083,49.918,2.9,79.146-19.931s51.832-54.89,38.486-71.972-49.918-2.9-79.146,19.93-51.832,54.89-38.486,71.973Z" stroke="none"></path><path d="M 179.0781402587891 404.9573059082031 C 183.1618194580078 404.9573059082031 187.7621765136719 404.2726745605469 192.7514801025391 402.9223937988281 C 197.5511016845703 401.6234741210938 202.7029724121094 399.7117004394531 208.0640411376953 397.2402038574219 C 218.4641571044922 392.4456481933594 229.3706207275391 385.685302734375 239.6043395996094 377.6900024414062 C 246.9648590087891 371.939208984375 253.7285766601562 365.7588500976562 259.7076110839844 359.3205261230469 C 265.8641357421875 352.6910705566406 270.8630981445312 346.1329040527344 274.5655822753906 339.8282470703125 C 278.4684448242188 333.182373046875 280.7814331054688 327.0584106445312 281.4402160644531 321.6265258789062 C 282.1366271972656 315.8846435546875 280.9515991210938 311.0044860839844 277.9179992675781 307.1216735839844 C 274.2038269042969 302.3678588867188 268.4115905761719 299.9574890136719 260.7021179199219 299.9574890136719 C 256.6183471679688 299.9574890136719 252.0179748535156 300.6420288085938 247.0288238525391 301.9921264648438 C 242.2291870117188 303.2909545898438 237.0773620605469 305.2025451660156 231.7164459228516 307.673828125 C 221.3162841796875 312.4681701660156 210.4096527099609 319.2284851074219 200.1756591796875 327.2240295410156 C 192.81494140625 332.9747314453125 186.0510864257812 339.1551208496094 180.0719757080078 345.5934753417969 C 173.9154205322266 352.2229309082031 168.91650390625 358.7811279296875 165.2140655517578 365.0858764648438 C 161.3112640380859 371.7318115234375 158.9983825683594 377.8558349609375 158.3396453857422 383.2878723144531 C 157.6432952880859 389.0299377441406 158.8283996582031 393.9102783203125 161.8619995117188 397.7933349609375 C 165.5759124755859 402.5468444824219 171.3679656982422 404.9571533203125 179.0776977539062 404.9573059082031 L 179.0781402587891 404.9573059082031 M 179.0772247314453 405.9573059082031 C 171.4740600585938 405.9571228027344 165.176513671875 403.6598510742188 161.0740051269531 398.4089965820312 C 147.7279968261719 381.3259887695312 170.3320007324219 349.27099609375 199.5599975585938 326.4360046386719 C 228.7880096435547 303.6009826660156 265.3590087890625 289.4230651855469 278.7059936523438 306.5060119628906 C 292.052001953125 323.5880126953125 269.4469909667969 355.6430053710938 240.2200012207031 378.4779968261719 C 219.9759063720703 394.2941284179688 196.2100067138672 405.9577026367188 179.0772247314453 405.9573059082031 Z" stroke="none" fill="#fff"></path></g><g id="Path_112" data-name="Path 112" fill="none"><path d="M364.271,239.655c13.346,17.082,49.917,2.9,79.145-19.931s51.832-54.89,38.486-71.973-49.918-2.9-79.145,19.931-51.833,54.89-38.486,71.973Z" stroke="none"></path><path d="M 382.2743225097656 246.2028656005859 C 386.35791015625 246.2028656005859 390.9582214355469 245.5182342529297 395.9474792480469 244.1680145263672 C 400.7470703125 242.8691253662109 405.8989562988281 240.9573974609375 411.260009765625 238.4859771728516 C 421.6603088378906 233.6914520263672 432.5667724609375 226.9311828613281 442.8003234863281 218.9359741210938 C 450.1610717773438 213.1852569580078 456.9249267578125 207.0048828125 462.9040222167969 200.5665130615234 C 469.0605773925781 193.9370574951172 474.0595092773438 187.3788757324219 477.7619323730469 181.0741119384766 C 481.6647338867188 174.4281921386719 483.9776306152344 168.3041534423828 484.6363525390625 162.8721160888672 C 485.3327331542969 157.1300659179688 484.1476135253906 152.2497253417969 481.114013671875 148.36669921875 C 477.3999328613281 143.6130218505859 471.60791015625 141.2026977539062 463.8988037109375 141.2026977539062 C 459.8150634765625 141.2026977539062 455.2146911621094 141.8872985839844 450.2254638671875 143.2374725341797 C 445.4258728027344 144.5363464355469 440.2740173339844 146.4480438232422 434.9130554199219 148.91943359375 C 424.5129089355469 153.7139434814453 413.6063842773438 160.4744262695312 403.3726501464844 168.4700164794922 C 396.0118713378906 174.2207794189453 389.2479858398438 180.4011535644531 383.2688293457031 186.8394927978516 C 377.1121520996094 193.4689788818359 372.1131591796875 200.0271759033203 368.4106750488281 206.3318939208984 C 364.5078125 212.9778442382812 362.1949157714844 219.1018524169922 361.5362243652344 224.5338745117188 C 360.8399047851562 230.2759399414062 362.025146484375 235.1562805175781 365.0589904785156 239.0393371582031 C 368.7726440429688 243.7925415039062 374.564453125 246.2026977539062 382.2738952636719 246.2028656005859 L 382.2743225097656 246.2028656005859 M 382.2734680175781 247.2028656005859 C 374.6704711914062 247.2026977539062 368.3731994628906 244.9055480957031 364.27099609375 239.6549987792969 C 350.9240112304688 222.5720062255859 373.5289916992188 190.5169982910156 402.7569885253906 167.6820068359375 C 431.9840087890625 144.8470153808594 468.554931640625 130.6679382324219 481.9020080566406 147.7510223388672 C 495.2479858398438 164.8339996337891 472.6440124511719 196.8889923095703 443.4159851074219 219.7239990234375 C 423.1719055175781 235.5401306152344 399.4059143066406 247.2032318115234 382.2734680175781 247.2028656005859 Z" stroke="none" fill="#fff"></path></g><g id="Path_113" data-name="Path 113" fill="none"><path d="M192.827,430.834c16.8,13.7,49.321-8.227,72.763-36.97s38.384-65.009,21.584-78.711-49.321,8.227-72.763,36.97-38.384,65.009-21.584,78.711Z" stroke="none"></path><path d="M 205.2726287841797 435.0187683105469 L 205.2726287841797 434.0187683105469 C 213.3885650634766 434.0187683105469 223.5021820068359 429.9104614257812 234.5201263427734 422.1379699707031 C 239.6840667724609 418.4950866699219 244.9396820068359 414.1252136230469 250.1409606933594 409.1497497558594 C 255.2481231689453 404.2642822265625 260.1852111816406 398.9087829589844 264.8150634765625 393.2319946289062 C 270.7187194824219 385.9932861328125 275.9452209472656 378.4679565429688 280.3492736816406 370.8650512695312 C 284.8841857910156 363.0363159179688 288.3059997558594 355.5335998535156 290.5196838378906 348.5653686523438 C 292.8532104492188 341.2199096679688 293.7518920898438 334.7356567382812 293.1907958984375 329.2926940917969 C 292.5976867675781 323.5390319824219 290.3607177734375 319.0425109863281 286.5420227050781 315.927978515625 C 283.3202209472656 313.3004760742188 279.3464965820312 311.9682312011719 274.7312622070312 311.9682312011719 C 266.6149291992188 311.9682312011719 256.5009155273438 316.0763854980469 245.4825897216797 323.8485717773438 C 240.3182678222656 327.4913940429688 235.0623626708984 331.8612365722656 229.8608856201172 336.8367004394531 C 224.7533111572266 341.7223205566406 219.8159484863281 347.0780029296875 215.1859283447266 352.7550048828125 C 209.2822418212891 359.9937133789062 204.0557708740234 367.51904296875 199.6517028808594 375.1219482421875 C 195.1167907714844 382.9507141113281 191.6949920654297 390.4533996582031 189.4813079833984 397.421630859375 C 187.1477813720703 404.76708984375 186.2491149902344 411.2513732910156 186.8101806640625 416.6943054199219 C 187.4033050537109 422.4479675292969 189.6403045654297 426.9445495605469 193.4590148925781 430.0590515136719 C 196.6801300048828 432.6859741210938 200.6538696289062 434.0182189941406 205.2698211669922 434.0187683105469 L 205.2726287841797 435.0187683105469 M 205.2697143554688 435.0187683105469 C 200.5825805664062 435.0182189941406 196.3563995361328 433.7123718261719 192.8270111083984 430.8340148925781 C 176.0269927978516 417.1319885253906 190.968994140625 380.8659973144531 214.4109954833984 352.1229858398438 C 232.92822265625 329.4184265136719 257.1075134277344 310.96826171875 274.7312622070312 310.96826171875 C 279.4183959960938 310.96826171875 283.6446228027344 312.274658203125 287.1740112304688 315.1530151367188 C 303.9739990234375 328.8550109863281 289.0320129394531 365.1210021972656 265.5899963378906 393.864013671875 C 247.07275390625 416.5685729980469 222.8934631347656 435.0208129882812 205.2697143554688 435.0187683105469 Z" stroke="none" fill="#fff"></path></g><g id="Path_114" data-name="Path 114" fill="none"><path d="M355.8,231.007c16.8,13.7,49.321-8.227,72.763-36.971s38.384-65.008,21.584-78.71-49.321,8.227-72.763,36.97S339,217.3,355.8,231.007Z" stroke="none"></path><path d="M 368.24755859375 235.1917572021484 L 368.24755859375 234.1917572021484 C 376.3635559082031 234.1917572021484 386.4772033691406 230.0833892822266 397.4950866699219 222.3107452392578 C 402.6590881347656 218.6678009033203 407.9147033691406 214.2978363037109 413.115966796875 209.3222198486328 C 418.22314453125 204.4366302490234 423.1602478027344 199.0809631347656 427.7900695800781 193.4039611816406 C 433.6937255859375 186.1655426025391 438.9202270507812 178.6404113769531 443.3242797851562 171.0376281738281 C 447.8591918945312 163.2090301513672 451.281005859375 155.7064208984375 453.4946899414062 148.7382202148438 C 455.8281860351562 141.3928375244141 456.7268981933594 134.9086303710938 456.1658020019531 129.4656677246094 C 455.5726928710938 123.7120208740234 453.335693359375 119.2154846191406 449.5169982910156 116.1009674072266 C 446.2951965332031 113.4734802246094 442.3215026855469 112.141242980957 437.7062683105469 112.141242980957 C 429.5899353027344 112.141242980957 419.4759216308594 116.249382019043 408.4576110839844 124.0215606689453 C 403.2933044433594 127.664421081543 398.0373840332031 132.0342712402344 392.8359069824219 137.0097045898438 C 387.7283020019531 141.8953247070312 382.7909545898438 147.2510223388672 378.1609191894531 152.9280242919922 C 372.25732421875 160.1666564941406 367.0308837890625 167.6919860839844 362.6268615722656 175.2949371337891 C 358.092041015625 183.1236419677734 354.6703186035156 190.6263427734375 352.4566955566406 197.5946502685547 C 350.1232604980469 204.9400634765625 349.2245788574219 211.4243469238281 349.7856140136719 216.8673248291016 C 350.3786926269531 222.6209869384766 352.6155395507812 227.1175384521484 356.4340209960938 230.2320404052734 C 359.6551818847656 232.8589782714844 363.6288757324219 234.1912231445312 368.2447814941406 234.1917572021484 L 368.24755859375 235.1917572021484 M 368.2446899414062 235.1917572021484 C 363.5575256347656 235.1912231445312 359.3313903808594 233.8853454589844 355.802001953125 231.0070037841797 C 339.0029907226562 217.3050079345703 353.9440002441406 181.0390014648438 377.385986328125 152.2960052490234 C 395.9032287597656 129.5914154052734 420.08251953125 111.141242980957 437.7062683105469 111.141242980957 C 442.3934020996094 111.141242980957 446.6195983886719 112.4476547241211 450.1489868164062 115.3260040283203 C 466.9490051269531 129.0279998779297 452.0069885253906 165.2940063476562 428.5650024414062 194.0360107421875 C 410.0477600097656 216.7413787841797 385.868408203125 235.1937866210938 368.2446899414062 235.1917572021484 Z" stroke="none" fill="#fff"></path></g><g id="Path_115" data-name="Path 115" fill="none"><path d="M230.975,455.418c19.417,9.639,46.272-18.949,62.764-52.172s23.027-71.9,3.609-81.536-46.273,18.949-62.764,52.171-23.027,71.9-3.609,81.537Z" stroke="none"></path><path d="M 239.1390991210938 457.3145141601562 L 239.1390991210938 456.3145141601562 C 247.4340972900391 456.3145141601562 257.1419677734375 450.8027648925781 267.2131652832031 440.3751525878906 C 276.4720153808594 430.7886352539062 285.5743103027344 417.4446716308594 292.8432922363281 402.8013916015625 C 296.9964294433594 394.4346313476562 300.4257202148438 385.9384765625 303.0358581542969 377.5488891601562 C 305.7235717773438 368.9100036621094 307.3980712890625 360.8357238769531 308.0129089355469 353.55029296875 C 308.6610717773438 345.8704528808594 308.100830078125 339.3482971191406 306.3478088378906 334.1649780273438 C 304.4947509765625 328.685791015625 301.3171691894531 324.7966918945312 296.9033813476562 322.605712890625 C 294.5076599121094 321.4164733886719 291.9114074707031 320.8135070800781 289.1866760253906 320.8135070800781 C 280.890869140625 320.8135070800781 271.182373046875 326.324951171875 261.1107482910156 336.7520446777344 C 251.8510131835938 346.3385620117188 242.7484130859375 359.6824340820312 235.4797210693359 374.3256530761719 C 231.3263549804688 382.6925354003906 227.8969573974609 391.1888732910156 225.2867431640625 399.5787048339844 C 222.5990142822266 408.2176208496094 220.9244995117188 416.2920227050781 220.3097229003906 423.5775756835938 C 219.6616516113281 431.2574462890625 220.2219543457031 437.7796325683594 221.9750366210938 442.9629821777344 C 223.8282012939453 448.4421691894531 227.0057983398438 452.331298828125 231.4196319580078 454.5223083496094 C 233.8143615722656 455.7110900878906 236.4105834960938 456.3140563964844 239.1361389160156 456.3145141601562 L 239.1390991210938 457.3145141601562 M 239.135986328125 457.3144836425781 C 236.3118133544922 457.3140563964844 233.5751495361328 456.7087707519531 230.9750061035156 455.4179992675781 C 211.5570220947266 445.7789916992188 218.0919952392578 407.10400390625 234.5839996337891 373.8810119628906 C 248.8666687011719 345.1077880859375 270.9203491210938 319.8135070800781 289.1866760253906 319.8135070800781 C 292.0109558105469 319.8135070800781 294.7477111816406 320.4192199707031 297.3479919433594 321.7099914550781 C 316.7659912109375 331.3489990234375 310.2300109863281 370.0239868164062 293.739013671875 403.2460021972656 C 279.4554748535156 432.0200805664062 257.4016723632812 457.3173828125 239.135986328125 457.3144836425781 Z" stroke="none" fill="#fff"></path></g><g id="Path_116" data-name="Path 116" fill="none"><path d="M345.628,224.45c19.418,9.639,46.273-18.949,62.764-52.172s23.027-71.9,3.61-81.536-46.273,18.949-62.764,52.171-23.028,71.9-3.61,81.537Z" stroke="none"></path><path d="M 353.7924194335938 226.3465118408203 L 353.7924194335938 225.3465118408203 C 362.0877380371094 225.3465118408203 371.7957458496094 219.8347625732422 381.8668823242188 209.4071655273438 C 391.1257019042969 199.8206024169922 400.2277526855469 186.4766540527344 407.4963073730469 171.8333740234375 C 411.6496276855469 163.4667816162109 415.0790405273438 154.9706115722656 417.6893005371094 146.5808868408203 C 420.3770446777344 137.9421234130859 422.0515747070312 129.8678283691406 422.6664428710938 122.5822906494141 C 423.3145446777344 114.9024887084961 422.7543640136719 108.3803253173828 421.0014038085938 103.1969909667969 C 419.1484069824219 97.71781158447266 415.970947265625 93.82870483398438 411.5574035644531 91.63772583007812 C 409.1616516113281 90.448486328125 406.5653686523438 89.84550476074219 403.8406677246094 89.84550476074219 C 395.5448608398438 89.84550476074219 385.8363647460938 95.35697174072266 375.7647399902344 105.784049987793 C 366.5050354003906 115.3705520629883 357.4024353027344 128.7144317626953 350.1337280273438 143.3576354980469 C 345.9803466796875 151.7245635986328 342.5508728027344 160.2209320068359 339.9405822753906 168.6107025146484 C 337.2527465820312 177.2496948242188 335.578125 185.3240814208984 334.9632263183594 192.6096038818359 C 334.3150024414062 200.2894897460938 334.8751831054688 206.8116912841797 336.6282043457031 211.9950103759766 C 338.4812622070312 217.4741821289062 341.6588134765625 221.36328125 346.0726013183594 223.5542907714844 C 348.4674682617188 224.7430725097656 351.0637817382812 225.3460693359375 353.7894592285156 225.3465118408203 L 353.7924194335938 226.3465118408203 M 353.7893371582031 226.3464965820312 C 350.9650573730469 226.3460540771484 348.228271484375 225.7407836914062 345.6279907226562 224.4500122070312 C 326.2099914550781 214.8110046386719 332.7460021972656 176.1360015869141 349.2380065917969 142.9129943847656 C 363.5206909179688 114.1398010253906 385.5743408203125 88.84551239013672 403.8406677246094 88.84551239013672 C 406.6649475097656 88.84551239013672 409.4017333984375 89.45124053955078 412.0020141601562 90.74201202392578 C 431.4190063476562 100.3810119628906 424.8840026855469 139.0560150146484 408.3919982910156 172.2780151367188 C 394.1093139648438 201.0520782470703 372.0556335449219 226.3493957519531 353.7893371582031 226.3464965820312 Z" stroke="none" fill="#fff"></path></g><g id="Path_117" data-name="Path 117" fill="none"><path d="M273.621,470.94c21.07,5.1,40.924-28.73,49.645-64.781s6.526-75.212-14.544-80.309-40.925,28.73-49.646,64.78-6.526,75.213,14.545,80.31Z" stroke="none"></path><path d="M 277.8775939941406 470.4515686035156 C 282.3324584960938 470.4515686035156 286.8887939453125 468.6794128417969 291.4200744628906 465.184326171875 C 295.7229919433594 461.8653259277344 299.9481201171875 457.0470886230469 303.97802734375 450.8633728027344 C 307.8195190429688 444.9688110351562 311.3771057128906 438.0049133300781 314.5519104003906 430.1652221679688 C 317.646728515625 422.5231018066406 320.2515563964844 414.3671264648438 322.2940368652344 405.923828125 C 324.4905700683594 396.8450927734375 325.9524536132812 387.80029296875 326.6391296386719 379.0407409667969 C 327.3461608886719 370.0212097167969 327.1902160644531 361.776611328125 326.1756896972656 354.535888671875 C 325.1062316894531 346.9033813476562 323.1149291992188 340.6674499511719 320.2571716308594 336.0013427734375 C 317.2362670898438 331.0689086914062 313.2761840820312 327.9805297851562 308.48681640625 326.8219604492188 C 307.1607360839844 326.5011291503906 305.8079528808594 326.3384399414062 304.4660339355469 326.3384399414062 C 300.0106201171875 326.3384399414062 295.4538879394531 328.1105041503906 290.9224243164062 331.6054077148438 C 286.6192932128906 334.9241943359375 282.3940734863281 339.7422180175781 278.3641357421875 345.9256896972656 C 274.5226745605469 351.8200378417969 270.9650573730469 358.7837829589844 267.7902221679688 366.6234741210938 C 264.6954650878906 374.2654113769531 262.090576171875 382.4214782714844 260.0479431152344 390.8651733398438 C 257.8514099121094 399.9442138671875 256.3895263671875 408.9891662597656 255.702880859375 417.7488403320312 C 254.9958801269531 426.7685241699219 255.1518402099609 435.0132446289062 256.1664428710938 442.2539672851562 C 257.2359619140625 449.8865661621094 259.2273254394531 456.1225280761719 262.0852355957031 460.7886352539062 C 265.1062622070312 465.7210693359375 269.0665588378906 468.8094482421875 273.8561706542969 469.9680480957031 C 275.1819458007812 470.288818359375 276.5346984863281 470.4515075683594 277.8768310546875 470.4515686035156 L 277.8775939941406 470.4515686035156 M 277.8767700195312 471.4515686035156 C 276.466064453125 471.4515075683594 275.0458984375 471.2847595214844 273.6210021972656 470.9400024414062 C 252.5500030517578 465.8429870605469 250.35400390625 426.6809997558594 259.0759887695312 390.6300048828125 C 267.7969970703125 354.5799865722656 287.6508483886719 320.751953125 308.7219848632812 325.8500061035156 C 329.7919921875 330.9469909667969 331.9880065917969 370.1090087890625 323.2659912109375 406.1589965820312 C 315.1347961425781 439.77197265625 297.3262329101562 471.4524536132812 277.8767700195312 471.4515686035156 Z" stroke="none" fill="#fff"></path></g><g id="Path_118" data-name="Path 118" fill="none"><path d="M334.255,220.31c21.07,5.1,40.924-28.73,49.645-64.781s6.526-75.212-14.544-80.309S328.431,103.95,319.71,140s-6.526,75.213,14.545,80.31Z" stroke="none"></path><path d="M 338.5116271972656 219.8215484619141 C 342.9664916992188 219.8215484619141 347.5228271484375 218.0493927001953 352.0541076660156 214.5543212890625 C 356.3570251464844 211.2353515625 360.5821228027344 206.4170989990234 364.6120300292969 200.2333984375 C 368.4535217285156 194.3387908935547 372.0110778808594 187.3749389648438 375.1859130859375 179.5352172851562 C 378.2807006835938 171.8931121826172 380.8855285644531 163.7371520996094 382.9280395507812 155.2938537597656 C 385.1245727539062 146.215087890625 386.5864868164062 137.1703186035156 387.2731018066406 128.4107360839844 C 387.9801635742188 119.3912124633789 387.82421875 111.1465911865234 386.8096618652344 103.905876159668 C 385.7402038574219 96.27335357666016 383.7489624023438 90.03743743896484 380.8911437988281 85.371337890625 C 377.8702697753906 80.43891143798828 373.9101867675781 77.35053253173828 369.1208190917969 76.19195556640625 C 367.7947387695312 75.87111663818359 366.4419555664062 75.70843505859375 365.1000366210938 75.70843505859375 C 360.6446228027344 75.70843505859375 356.0879211425781 77.48049163818359 351.5564270019531 80.97539520263672 C 347.2533264160156 84.29417419433594 343.0281066894531 89.11223602294922 338.9981384277344 95.29569244384766 C 335.1566467285156 101.190055847168 331.5990600585938 108.1537933349609 328.4242248535156 115.9934768676758 C 325.3294677734375 123.6354141235352 322.7245788574219 131.7914886474609 320.6819458007812 140.2351531982422 C 318.4854125976562 149.3141937255859 317.0235290527344 158.3591766357422 316.3368835449219 167.1188354492188 C 315.6298828125 176.1385192871094 315.7858581542969 184.3832397460938 316.8004455566406 191.6239776611328 C 317.8699645996094 199.2565612792969 319.861328125 205.4925079345703 322.71923828125 210.1586303710938 C 325.7402648925781 215.0910491943359 329.7005615234375 218.1794586181641 334.4901733398438 219.3380279541016 C 335.8159790039062 219.6588134765625 337.168701171875 219.8214874267578 338.5108337402344 219.8215484619141 L 338.5116271972656 219.8215484619141 M 338.5108032226562 220.8215637207031 C 337.10009765625 220.8215026855469 335.6799011230469 220.6547546386719 334.2550048828125 220.3099975585938 C 313.1839904785156 215.2129974365234 310.9880065917969 176.0509948730469 319.7099914550781 140 C 328.4309997558594 103.9499969482422 348.2849426269531 70.12197113037109 369.3559875488281 75.21999359130859 C 390.4259948730469 80.31699371337891 392.6220092773438 119.4789962768555 383.8999938964844 155.5290222167969 C 375.7687683105469 189.1419830322266 357.9602661132812 220.8224792480469 338.5108032226562 220.8215637207031 Z" stroke="none" fill="#fff"></path></g><g id="Path_119" data-name="Path 119" fill="none"><path d="M363.8,307.1c-13.584,16.894,8.571,49.262,37.477,72.5s65.275,37.928,78.859,21.034-8.571-49.263-37.477-72.5S377.384,290.2,363.8,307.1Z" stroke="none"></path><path d="M 381.3846435546875 300.7998962402344 C 373.9289245605469 300.7998962402344 368.2748107910156 303.13037109375 364.5792846679688 307.7266235351562 C 361.4916076660156 311.5667114257812 360.2383728027344 316.4298400878906 360.8544311523438 322.1809692382812 C 361.4372253417969 327.62158203125 363.6643676757812 333.7772521972656 367.4740295410156 340.47705078125 C 371.0881042480469 346.8328857421875 375.9950256347656 353.4602966308594 382.0584411621094 360.1751403808594 C 387.9470520019531 366.6964111328125 394.6239318847656 372.9706726074219 401.9035949707031 378.8236694335938 C 412.1344909667969 387.0495300292969 423.0554504394531 394.0137329101562 433.4858093261719 398.9634399414062 C 438.8638916015625 401.5155944824219 444.0309448242188 403.4902648925781 448.8433837890625 404.8325500488281 C 453.8485717773438 406.2286071777344 458.4596252441406 406.9364624023438 462.5485229492188 406.9364624023438 C 470.0062255859375 406.9364624023438 475.6612854003906 404.6061706542969 479.3566284179688 400.0103759765625 C 482.4443664550781 396.1700439453125 483.6976013183594 391.3067321777344 483.08154296875 385.5554504394531 C 482.4987487792969 380.1147155761719 480.2716064453125 373.9589538574219 476.4619445800781 367.2591857910156 C 472.8478698730469 360.9033508300781 467.9409790039062 354.2760314941406 461.8775634765625 347.5613098144531 C 455.9889221191406 341.0401611328125 449.3120727539062 334.7660827636719 442.0323791503906 328.913330078125 C 431.8021240234375 320.6876525878906 420.8812866210938 313.7234497070312 410.4504699707031 308.7735595703125 C 405.0725708007812 306.2215270996094 399.9056091308594 304.2468872070312 395.0930480957031 302.9044494628906 C 390.0880126953125 301.5083312988281 385.4769287109375 300.80029296875 381.385498046875 300.7998962402344 L 381.3846435546875 300.7998962402344 M 381.3880310058594 299.7998962402344 C 398.5587158203125 299.8014526367188 422.4367980957031 311.8742370605469 442.6589965820312 328.1340026855469 C 471.5650024414062 351.3739929199219 493.7200012207031 383.7420043945312 480.135986328125 400.6369934082031 C 476.0551452636719 405.7121887207031 469.9219360351562 407.9364624023438 462.5485229492188 407.9364624023438 C 445.3778686523438 407.9364624023438 421.4992065429688 395.862060546875 401.2770080566406 379.6029968261719 C 372.3710021972656 356.3619995117188 350.2160034179688 323.9939880371094 363.7999877929688 307.1000061035156 C 367.8808288574219 302.0244750976562 374.0146484375 299.7992248535156 381.3880310058594 299.7998962402344 Z" stroke="none" fill="#fff"></path></g><g id="Path_120" data-name="Path 120" fill="none"><path d="M370.285,296.88c-9.5,19.485,19.272,46.139,52.609,62.4s72.056,22.525,81.56,3.041-19.272-46.14-52.609-62.4-72.056-22.524-81.56-3.04Z" stroke="none"></path><path d="M 396.5661010742188 285.7734375 C 390.2838439941406 285.7734375 384.9549560546875 286.7085266113281 380.7274780273438 288.5527038574219 C 376.2870483398438 290.4897766113281 373.0761108398438 293.4389953613281 371.1838073730469 297.318359375 C 369.023681640625 301.7474365234375 368.8791198730469 306.767578125 370.7540588378906 312.2393493652344 C 372.5277709960938 317.4156799316406 376.0633544921875 322.9249572753906 381.2626647949219 328.6141357421875 C 386.1950073242188 334.01123046875 392.4482727050781 339.3866577148438 399.8486938476562 344.5911560058594 C 407.0357360839844 349.6455688476562 414.936767578125 354.2845458984375 423.3323974609375 358.3792419433594 C 432.7062683105469 362.9512939453125 442.5638427734375 366.7356567382812 451.8394775390625 369.3231811523438 C 456.594482421875 370.649658203125 461.21630859375 371.6710205078125 465.5765075683594 372.3589172363281 C 470.0625305175781 373.0666198730469 474.300048828125 373.4254760742188 478.17138671875 373.4254760742188 C 484.454345703125 373.4254760742188 489.7835998535156 372.490478515625 494.0111083984375 370.6464538574219 C 498.4517211914062 368.70947265625 501.662841796875 365.7601928710938 503.5552062988281 361.8806457519531 C 505.7153015136719 357.4515991210938 505.85986328125 352.431396484375 503.9849243164062 346.9595031738281 C 502.2112121582031 341.7830505371094 498.6755981445312 336.2736511230469 493.476318359375 330.5843505859375 C 488.5439453125 325.1871337890625 482.2907104492188 319.8115539550781 474.8902893066406 314.6069946289062 C 467.7032165527344 309.5524597167969 459.8021850585938 304.9134521484375 451.4066467285156 300.8188171386719 C 442.0329895019531 296.2471313476562 432.1754455566406 292.4630432128906 422.8997497558594 289.8756713867188 C 418.1448364257812 288.54931640625 413.5230712890625 287.5280151367188 409.162841796875 286.8401489257812 C 404.6769409179688 286.1324462890625 400.4394226074219 285.7735595703125 396.5668029785156 285.7734375 L 396.5661010742188 285.7734375 M 396.5680541992188 284.7734375 C 412.578369140625 284.77392578125 433.0664672851562 290.7614135742188 451.8450012207031 299.9200134277344 C 485.1820068359375 316.1789855957031 513.9569702148438 342.8340148925781 504.4540100097656 362.3190002441406 C 494.9500732421875 381.8030090332031 456.2310180664062 375.5379638671875 422.8940124511719 359.2780151367188 C 389.5570068359375 343.0190124511719 360.781982421875 316.364990234375 370.2850036621094 296.8800048828125 C 374.4354553222656 288.3712158203125 384.1556701660156 284.7730712890625 396.5680541992188 284.7734375 Z" stroke="none" fill="#fff"></path></g><g id="Path_121" data-name="Path 121" fill="none"><path d="M374.346,285.478c-4.951,21.105,29.015,40.722,65.125,49.192s75.256,6,80.206-15.105-29.015-40.723-65.125-49.192-75.256-6-80.206,15.105Z" stroke="none"></path><path d="M 417.59521484375 266.8287048339844 C 412.0202026367188 266.8287048339844 406.8139343261719 267.2037048339844 402.12109375 267.9433288574219 C 397.2541198730469 268.7104187011719 392.9334716796875 269.8714294433594 389.2791748046875 271.3941040039062 C 381.4815673828125 274.6432800292969 376.7848510742188 279.4586181640625 375.319580078125 285.7063598632812 C 374.1942138671875 290.5036315917969 375.165283203125 295.4308471679688 378.205810546875 300.3511657714844 C 381.0821533203125 305.0057678222656 385.7504577636719 309.5947875976562 392.0809936523438 313.9907531738281 C 398.0864868164062 318.1609802246094 405.375244140625 322.0175476074219 413.7448120117188 325.4533081054688 C 421.8730163574219 328.7899475097656 430.6053771972656 331.5633239746094 439.6993713378906 333.6964416503906 C 452.3003234863281 336.6520690917969 464.9988708496094 338.2143249511719 476.4222106933594 338.2143249511719 C 481.9983520507812 338.2143249511719 487.2054138183594 337.8393859863281 491.8987731933594 337.0998840332031 C 496.7665100097656 336.3329467773438 501.0877380371094 335.1720886230469 504.7423400878906 333.6495056152344 C 512.540771484375 330.4005432128906 517.2379760742188 325.5850219726562 518.7034301757812 319.3366088867188 C 519.8287963867188 314.5391235351562 518.8577880859375 309.6117248535156 515.8171997070312 304.6912841796875 C 512.9407958984375 300.0365600585938 508.2725524902344 295.4474487304688 501.9419860839844 291.051513671875 C 495.9364929199219 286.8812866210938 488.6477355957031 283.0247802734375 480.2781677246094 279.5891723632812 C 472.1499633789062 276.2526245117188 463.4176330566406 273.4794006347656 454.3236389160156 271.3465576171875 C 441.7254028320312 268.3915100097656 429.0270080566406 266.8292541503906 417.596923828125 266.8287048339844 L 417.59521484375 266.8287048339844 M 417.6012573242188 265.8287048339844 C 429.2572021484375 265.8292541503906 442.0885009765625 267.4495239257812 454.552001953125 270.3729858398438 C 490.6619873046875 278.8420104980469 524.6279907226562 298.4590148925781 519.677001953125 319.5650024414062 C 516.435546875 333.3861694335938 498.5365295410156 339.2143249511719 476.4222106933594 339.2143249511719 C 464.7662658691406 339.2143249511719 451.9348449707031 337.5934753417969 439.4710083007812 334.6700134277344 C 403.3609924316406 326.2000122070312 369.39501953125 306.5830078125 374.3460083007812 285.4779968261719 C 377.5875244140625 271.6568298339844 395.4869384765625 265.82763671875 417.6012573242188 265.8287048339844 Z" stroke="none" fill="#fff"></path></g></g></g></svg>