<svg xmlns="http://www.w3.org/2000/svg" width="53.411" height="40.537" viewBox="0 0 53.411 40.537">
  <g id="Group_83" data-name="Group 83" transform="translate(0.5 0.5)">
    <g id="Group_84" data-name="Group 84" transform="translate(0 0)">
      <path id="Path_144" data-name="Path 144" d="M20.067,26.85H2.751A2.252,2.252,0,0,0,.5,29.1v11.16a2.252,2.252,0,0,0,2.251,2.251H8.4l7.4,4.028V42.512h4.268a2.252,2.252,0,0,0,2.251-2.251V29.1A2.252,2.252,0,0,0,20.067,26.85Z" transform="translate(-0.5 -7.903)" fill="none" stroke="#191919" stroke-linejoin="round" stroke-width="1"/>
      <line id="Line_44" data-name="Line 44" x2="13.063" transform="translate(4.667 24.976)" fill="none" stroke="#191919" stroke-linejoin="round" stroke-width="1"/>
      <line id="Line_45" data-name="Line 45" x2="7.16" y2="0.08" transform="translate(4.667 28.713)" fill="none" stroke="#191919" stroke-linejoin="round" stroke-width="1"/>
      <path id="Path_145" data-name="Path 145" d="M35.238.5H17.922a2.252,2.252,0,0,0-2.251,2.251v11.16a2.252,2.252,0,0,0,2.251,2.251h5.652l7.4,4.028V16.162h4.268a2.252,2.252,0,0,0,2.251-2.251V2.751A2.252,2.252,0,0,0,35.238.5Z" transform="translate(-4.762 -0.5)" fill="none" stroke="#191919" stroke-linejoin="round" stroke-width="1"/>
      <line id="Line_46" data-name="Line 46" x2="13.063" transform="translate(15.577 6.029)" fill="none" stroke="#191919" stroke-linejoin="round" stroke-width="1"/>
      <line id="Line_47" data-name="Line 47" x2="7.16" y2="0.08" transform="translate(15.577 9.766)" fill="none" stroke="#191919" stroke-linejoin="round" stroke-width="1"/>
      <path id="Path_146" data-name="Path 146" d="M42.5,25.379H61.541a2.476,2.476,0,0,1,2.476,2.475V40.123A2.476,2.476,0,0,1,61.541,42.6H55.327L47.2,47.026V42.6H42.5a2.475,2.475,0,0,1-2.475-2.475V27.854A2.475,2.475,0,0,1,42.5,25.379Z" transform="translate(-11.606 -7.49)" fill="none" stroke="#191919" stroke-linejoin="round" stroke-width="1"/>
      <line id="Line_48" data-name="Line 48" x1="14.361" transform="translate(32.918 24.518)" fill="none" stroke="#191919" stroke-linejoin="round" stroke-width="1"/>
      <line id="Line_49" data-name="Line 49" x1="7.872" y2="0.088" transform="translate(39.407 28.625)" fill="none" stroke="#191919" stroke-linejoin="round" stroke-width="1"/>
    </g>
  </g>
</svg>
