<svg xmlns="http://www.w3.org/2000/svg" xmlns:xlink="http://www.w3.org/1999/xlink" id="Group_81" data-name="Group 81" width="47.889" height="49.037" viewBox="0 0 47.889 49.037"><defs><clipPath id="clip-path"><rect id="Rectangle_85" data-name="Rectangle 85" width="47.889" height="49.037" fill="none" stroke="#191919" stroke-width="1"></rect></clipPath></defs><g id="Group_80" data-name="Group 80" clip-path="url(#clip-path)"><path id="Path_138" data-name="Path 138" d="M50.942,30.111a5.288,5.288,0,1,1-5.288-5.288,5.288,5.288,0,0,1,5.288,5.288" transform="translate(-21.514 -13.23)" fill="none" stroke="#191919" stroke-width="1"></path><ellipse id="Ellipse_27" data-name="Ellipse 27" cx="5.288" cy="5.288" rx="5.288" ry="5.288" transform="translate(18.852 11.593)" fill="none" stroke="#191919" stroke-width="1"></ellipse><path id="Path_139" data-name="Path 139" d="M27.708,76.806V58.234a5.256,5.256,0,0,1,5.256-5.256H44.851a5.256,5.256,0,0,1,5.256,5.256V76.806" transform="translate(-14.768 -28.236)" fill="none" stroke="#191919" stroke-width="1"></path><path id="Path_140" data-name="Path 140" d="M27.708,76.806V58.234a5.256,5.256,0,0,1,5.256-5.256H44.851a5.256,5.256,0,0,1,5.256,5.256V76.806" transform="translate(-14.768 -28.236)" fill="none" stroke="#191919" stroke-width="1"></path><line id="Line_39" data-name="Line 39" y2="12.136" transform="translate(16.881 36.434)" fill="none" stroke="#191919" stroke-linejoin="round" stroke-width="1"></line><line id="Line_40" data-name="Line 40" y2="12.136" transform="translate(31.038 36.434)" fill="none" stroke="#191919" stroke-linejoin="round" stroke-width="1"></line><line id="Line_41" data-name="Line 41" y2="12.136" transform="translate(41.955 36.434)" fill="none" stroke="#191919" stroke-linejoin="round" stroke-width="1"></line><line id="Line_42" data-name="Line 42" y2="12.136" transform="translate(5.637 36.434)" fill="none" stroke="#191919" stroke-linejoin="round" stroke-width="1"></line><ellipse id="Ellipse_28" data-name="Ellipse 28" cx="5.288" cy="5.288" rx="5.288" ry="5.288" transform="translate(31.329 11.593)" fill="none" stroke="#191919" stroke-linejoin="round" stroke-width="1"></ellipse><path id="Path_141" data-name="Path 141" d="M59.832,52.978H72.847A5.255,5.255,0,0,1,78.1,58.234V71.281H73.8" transform="translate(-31.889 -28.236)" fill="none" stroke="#191919" stroke-linejoin="round" stroke-width="1"></path><ellipse id="Ellipse_29" data-name="Ellipse 29" cx="5.288" cy="5.288" rx="5.288" ry="5.288" transform="translate(5.649 11.593)" fill="none" stroke="#191919" stroke-linejoin="round" stroke-width="1"></ellipse><ellipse id="Ellipse_30" data-name="Ellipse 30" cx="5.288" cy="5.288" rx="5.288" ry="5.288" transform="translate(25.453 0.467)" fill="none" stroke="#191919" stroke-linejoin="round" stroke-width="1"></ellipse><ellipse id="Ellipse_31" data-name="Ellipse 31" cx="5.288" cy="5.288" rx="5.288" ry="5.288" transform="translate(12.25 0.467)" fill="none" stroke="#191919" stroke-linejoin="round" stroke-width="1"></ellipse><path id="Path_142" data-name="Path 142" d="M21.14,52.978H8.125a5.256,5.256,0,0,0-5.256,5.256V71.281h4.3" transform="translate(-1.529 -28.236)" fill="none" stroke="#191919" stroke-linejoin="round" stroke-width="1"></path><line id="Line_43" data-name="Line 43" x2="47.889" transform="translate(0 48.57)" fill="none" stroke="#191919" stroke-linejoin="round" stroke-width="1"></line><path id="Path_143" data-name="Path 143" d="M51.156,52.978a3.781,3.781,0,1,1-7.562,0" transform="translate(-23.235 -28.236)" fill="none" stroke="#191919" stroke-linejoin="round" stroke-width="1"></path></g></svg>