<svg xmlns="http://www.w3.org/2000/svg" width="80" height="80" viewBox="0 0 80 80"><g id="Group_96" data-name="Group 96" transform="translate(-110 -1494)"><circle id="Ellipse_32" data-name="Ellipse 32" cx="40" cy="40" r="40" transform="translate(110 1494)" fill="#53a2c1"></circle><g id="Group_41" data-name="Group 41" transform="translate(125.893 1507.602)"><g id="Group_42" data-name="Group 42" transform="translate(0.719 0.718)"><path id="Path_22" data-name="Path 22" d="M37.674,45.12l7-7.234a3.358,3.358,0,0,1,3.88,0,3.015,3.015,0,0,1,.657,3.715c-.888,1.841-9.141,10.885-9.141,10.885A9.092,9.092,0,0,1,33.6,54.951c-4.176-.033-12.133,0-12.133,0a6.011,6.011,0,0,0-4.106,2.471l-9.175-8.85.128-.362s4.539-8.681,15.373-5.261l11.2.033a3.189,3.189,0,0,1,2.8,3.222,2.88,2.88,0,0,1-2.5,2.927H24.11" transform="translate(-2.813 -11.016)" fill="none" stroke="#fff" stroke-linejoin="round" stroke-width="1.4"></path><path id="Path_23" data-name="Path 23" d="M16.288,62.53h0a6.368,6.368,0,0,1-9.005.162L.7,56.344,5.122,51.76Z" transform="translate(-0.701 -15.117)" fill="none" stroke="#fff" stroke-linejoin="round" stroke-width="1.4"></path><line id="Line_1" data-name="Line 1" y1="22.371" transform="translate(24.585 9.051)" fill="none" stroke="#fff" stroke-linejoin="round" stroke-width="1.4"></line><path id="Path_24" data-name="Path 24" d="M34.958,29.4s.2-12.885,14.589-11.873C49.446,17.626,50.155,32.152,34.958,29.4Z" transform="translate(-10.374 -5.435)" fill="none" stroke="#fff" stroke-linejoin="round" stroke-width="1.4"></path><line id="Line_2" data-name="Line 2" y1="7.685" x2="10.199" transform="translate(24.585 16.278)" fill="none" stroke="#fff" stroke-linejoin="round" stroke-width="1.4"></line><path id="Path_25" data-name="Path 25" d="M28.687,32.981S28.485,20.1,14.1,21.109C14.2,21.21,13.49,35.736,28.687,32.981Z" transform="translate(-4.484 -6.446)" fill="none" stroke="#fff" stroke-linejoin="round" stroke-width="1.4"></path><line id="Line_3" data-name="Line 3" x1="10.199" y1="7.685" transform="translate(14.004 18.851)" fill="none" stroke="#fff" stroke-linejoin="round" stroke-width="1.4"></line><path id="Path_26" data-name="Path 26" d="M32.915,18.329s10.874-8.24,0-17.629C32.915.7,21.23,9.515,32.915,18.329Z" transform="translate(-8.33 -0.7)" fill="none" stroke="#fff" stroke-linejoin="round" stroke-width="1.4"></path></g></g></g></svg>