<svg xmlns="http://www.w3.org/2000/svg" width="80" height="80" viewBox="0 0 80 80"><g id="Group_100" data-name="Group 100" transform="translate(-109 -1765)"><circle id="Ellipse_32" data-name="Ellipse 32" cx="40" cy="40" r="40" transform="translate(109 1765)" fill="#53a2c1"></circle><g id="Group_97" data-name="Group 97" transform="translate(122.293 1778.293)"><g id="Group_47" data-name="Group 47" transform="translate(1.707 1.707)"><circle id="Ellipse_18" data-name="Ellipse 18" cx="13.001" cy="13.001" r="13.001" transform="translate(12.058 11.81)" fill="none" stroke="#fff" stroke-width="1.4"></circle><line id="Line_10" data-name="Line 10" y2="11.22" transform="translate(24.997 0.745)" fill="none" stroke="#fff" stroke-width="1.4"></line><path id="Path_35" data-name="Path 35" d="M23.749,7.76,30.229,1.4,36.62,7.76" transform="translate(-5.124 -1.405)" fill="none" stroke="#fff" stroke-width="1.4"></path><line id="Line_11" data-name="Line 11" y1="11.22" transform="translate(25.123 38.028)" fill="none" stroke="#fff" stroke-width="1.4"></line><path id="Path_36" data-name="Path 36" d="M36.62,53.759l-6.48,6.355-6.391-6.355" transform="translate(-5.124 -10.12)" fill="none" stroke="#fff" stroke-width="1.4"></path><line id="Line_12" data-name="Line 12" x2="11.22" transform="translate(0.745 24.811)" fill="none" stroke="#fff" stroke-width="1.4"></line><path id="Path_37" data-name="Path 37" d="M7.76,36.245,1.4,29.766,7.76,23.374" transform="translate(-1.405 -5.062)" fill="none" stroke="#fff" stroke-width="1.4"></path><line id="Line_13" data-name="Line 13" x1="11.22" transform="translate(38.028 24.684)" fill="none" stroke="#fff" stroke-width="1.4"></line><path id="Path_38" data-name="Path 38" d="M53.759,23.374l6.355,6.48-6.355,6.391" transform="translate(-10.12 -5.062)" fill="none" stroke="#fff" stroke-width="1.4"></path><line id="Line_14" data-name="Line 14" y1="7.934" x2="7.934" transform="translate(7.848 34.212)" fill="none" stroke="#fff" stroke-width="1.4"></line><path id="Path_39" data-name="Path 39" d="M19.167,50.8l-9.075-.089L10.066,41.7" transform="translate(-2.847 -8.112)" fill="none" stroke="#fff" stroke-width="1.4"></path><line id="Line_15" data-name="Line 15" x1="7.934" y2="7.934" transform="translate(34.122 7.759)" fill="none" stroke="#fff" stroke-width="1.4"></line><path id="Path_40" data-name="Path 40" d="M41.695,10.066l9.075.089.026,9.012" transform="translate(-8.112 -2.847)" fill="none" stroke="#fff" stroke-width="1.4"></path><line id="Line_16" data-name="Line 16" x1="7.934" y1="7.934" transform="translate(34.08 34.343)" fill="none" stroke="#fff" stroke-width="1.4"></line><path id="Path_41" data-name="Path 41" d="M50.639,41.96l-.089,9.075-9.012.026" transform="translate(-8.086 -8.156)" fill="none" stroke="#fff" stroke-width="1.4"></path><line id="Line_17" data-name="Line 17" x2="7.934" y2="7.934" transform="translate(7.627 8.069)" fill="none" stroke="#fff" stroke-width="1.4"></line><path id="Path_42" data-name="Path 42" d="M9.909,19.432,10,10.357l9.013-.026" transform="translate(-2.82 -2.891)" fill="none" stroke="#fff" stroke-width="1.4"></path><path id="Path_43" data-name="Path 43" d="M29.977,22.2A7.474,7.474,0,1,1,22.5,29.678,7.475,7.475,0,0,1,29.977,22.2Z" transform="translate(-4.917 -4.867)" fill="none" stroke="#fff" stroke-width="1.4"></path></g></g></g></svg>