<svg xmlns="http://www.w3.org/2000/svg" width="42.242" height="44" viewBox="0 0 42.242 44"><g id="Group_115" data-name="Group 115" transform="translate(-594 -1188)"><path id="Path_244" data-name="Path 244" d="M147.652,330.6v-8.5h-3.874v2.669h-8.7a1.693,1.693,0,0,0-1.682,1.69v4.149a4.084,4.084,0,0,0,4.085,4.085h6.091A4.084,4.084,0,0,0,147.652,330.6Z" transform="translate(471.387 891.952)" fill="#1c7c9c"></path><path id="Path_245" data-name="Path 245" d="M187.9,449.658a2.871,2.871,0,0,0-2.871-2.758h-.768a2.865,2.865,0,0,0-2.863,2.766Z" transform="translate(427.27 777.246)" fill="#fff"></path><path id="Path_246" data-name="Path 246" d="M215.985,397.227a.5.5,0,0,1-.485-.485v-3.357a.485.485,0,0,1,.971,0v3.357a.473.473,0,0,1-.469.485h-.008Z" transform="translate(395.928 826.878)" fill="#212121"></path><path id="Path_247" data-name="Path 247" d="M187.911,483.216V481H181.4v2.216a2.872,2.872,0,0,0,2.863,2.879h.776A2.884,2.884,0,0,0,187.911,483.216Z" transform="translate(427.27 745.904)" fill="#212121"></path><path id="Path_248" data-name="Path 248" d="M261.7,360.2l.008,3.567" transform="translate(353.465 856.933)" fill="none"></path><path id="Path_250" data-name="Path 250" d="M265.566,287.266v-2.119a.942.942,0,0,0-.946-.946h-1.974a.942.942,0,0,0-.946.946v2.119Z" transform="translate(353.465 926.786)" fill="#fdd800"></path><path id="Path_251" data-name="Path 251" d="M326.8,255.471,318.79,252.6l-1.31,3.648,2.516.9-2.936,8.194a1.68,1.68,0,0,0,1.011,2.152l3.907,1.4a4.083,4.083,0,0,0,5.225-2.467l2.054-5.727A4.091,4.091,0,0,0,326.8,255.471Z" transform="translate(302.675 955.83)" fill="#1c7c9c"></path><path id="Path_252" data-name="Path 252" d="M427.522,349.848a2.859,2.859,0,0,0-3.567,1.763l-.259.72a2.884,2.884,0,0,0,1.634,3.64Z" transform="translate(204.726 866.573)" fill="#fff"></path><path id="Path_253" data-name="Path 253" d="M379.7,357.56a.362.362,0,0,1-.162-.032l-3.163-1.132a.489.489,0,0,1-.291-.623.472.472,0,0,1,.607-.291h.008l3.163,1.132a.486.486,0,0,1-.162.946Z" transform="translate(248.361 861.297)"></path><path id="Path_254" data-name="Path 254" d="M450.087,352.144l-1.982-.712-.113-.032-2.192,6.123.105.04,1.982.712a2.871,2.871,0,0,0,3.672-1.739l.259-.72A2.879,2.879,0,0,0,450.087,352.144Z" transform="translate(184.256 865.022)" fill="#212121"></path><path id="Path_255" data-name="Path 255" d="M359.2,310.5l3.357,1.205" transform="translate(263.851 902.614)" fill="none"></path><path id="Path_257" data-name="Path 257" d="M294.935,243.872l-2-.712a.951.951,0,0,0-1.213.566v.008l-.663,1.852a.951.951,0,0,0,.566,1.213h.008l1.99.72Z" transform="translate(326.531 964.558)" fill="#fdd800"></path><path id="Path_258" data-name="Path 258" d="M294.531,108.367l-5.031,6.859,3.122,2.289,1.577-2.152,7.013,5.144a1.682,1.682,0,0,0,2.354-.364l2.459-3.349a4.085,4.085,0,0,0-.882-5.71l-4.91-3.6a4.09,4.09,0,0,0-5.7.882Z" transform="translate(327.913 1089.929)" fill="#1c7c9c"></path><path id="Path_259" data-name="Path 259" d="M416.485,112.3a2.868,2.868,0,0,0,.679,3.923l.615.453a2.881,2.881,0,0,0,3.947-.526Z" transform="translate(211.654 1084.782)" fill="#fff"></path><path id="Path_260" data-name="Path 260" d="M400.4,166.495a.49.49,0,0,1-.283-.089.482.482,0,0,1-.105-.679l1.982-2.71a.486.486,0,1,1,.785.574l-1.99,2.71A.483.483,0,0,1,400.4,166.495Z" transform="translate(226.428 1038.352)" fill="#414042"></path><path id="Path_261" data-name="Path 261" d="M423.4,76.793l-1.246,1.7-.057.089,5.241,3.85.073-.089,1.246-1.707a2.871,2.871,0,0,0-.623-4.012l-.615-.453a2.869,2.869,0,0,0-4.012.615A.008.008,0,0,0,423.4,76.793Z" transform="translate(206.039 1118.501)" fill="#212121"></path><path id="Path_262" data-name="Path 262" d="M350.6,177.071l2.111-2.871" transform="translate(271.755 1027.889)" fill="none"></path><path id="Path_264" data-name="Path 264" d="M273.177,212.1l-1.254,1.707a.954.954,0,0,0,.2,1.327l1.593,1.165a.954.954,0,0,0,1.327-.2l1.254-1.707Z" transform="translate(344.236 993.055)" fill="#fdd800"></path><path id="Path_265" data-name="Path 265" d="M55.963,173.561l7.894-3.171-1.44-3.591-2.483.995-3.243-8.072a1.68,1.68,0,0,0-2.176-.946.008.008,0,0,0-.008.008l-3.858,1.553a4.09,4.09,0,0,0-2.265,5.306l2.273,5.646a4.066,4.066,0,0,0,5.3,2.273Z" transform="translate(549.795 1042.174)" fill="#1c7c9c"></path><path id="Path_266" data-name="Path 266" d="M50.218,247.938a2.881,2.881,0,0,0,1.5-3.7l-.291-.712A2.866,2.866,0,0,0,47.8,241.9Z" transform="translate(550.064 965.823)" fill="#fff"></path><path id="Path_267" data-name="Path 267" d="M94.952,246.712a.488.488,0,0,1-.178-.938l3.114-1.254a.5.5,0,0,1,.639.275.487.487,0,0,1-.275.631l-3.114,1.254A.475.475,0,0,1,94.952,246.712Z" transform="translate(507.166 963.287)" fill="#212121"></path><path id="Path_268" data-name="Path 268" d="M4.261,250.667l1.957-.785.1-.04L3.9,243.8l-.113.04-1.949.785a2.873,2.873,0,0,0-1.593,3.737l.283.712A2.873,2.873,0,0,0,4.261,250.667Z" transform="translate(593.967 963.919)" fill="#212121"></path><path id="Path_271" data-name="Path 271" d="M226.64,253.109l1.965-.793a.945.945,0,0,0,.526-1.229l-.736-1.836a.945.945,0,0,0-1.229-.526l-1.965.793Z" transform="translate(387.013 959.454)" fill="#fdd800"></path><path id="Path_272" data-name="Path 272" d="M154.956,44.091l4.716,7.077,3.219-2.143-1.48-2.216,7.247-4.821a1.688,1.688,0,0,0,.461-2.338l-2.3-3.454a4.09,4.09,0,0,0-5.662-1.14L156.1,38.429a4.088,4.088,0,0,0-1.14,5.662Z" transform="translate(452.201 1156.404)" fill="#1c7c9c"></path><path id="Path_273" data-name="Path 273" d="M172.8,42.307a2.868,2.868,0,0,0,3.915.7l.639-.421a2.869,2.869,0,0,0,.865-3.891Z" transform="translate(435.174 1152.429)" fill="#fff"></path><path id="Path_274" data-name="Path 274" d="M224.971,92.3a.482.482,0,0,1-.4-.218l-1.86-2.8a.485.485,0,1,1,.776-.582c.008.016.024.032.032.049l1.86,2.791a.494.494,0,0,1-.137.679A.517.517,0,0,1,224.971,92.3Z" transform="translate(389.394 1106.649)"></path><path id="Path_275" data-name="Path 275" d="M152.1,4.9l1.165,1.755.065.1,5.419-3.607-.065-.1-1.165-1.755A2.877,2.877,0,0,0,153.534.5L152.9.917a2.866,2.866,0,0,0-.809,3.971Z" transform="translate(454.643 1187.988)" fill="#212121"></path><path id="Path_276" data-name="Path 276" d="M217.274,150.168,215.3,147.2" transform="translate(396.112 1052.705)" fill="none"></path><path id="Path_278" data-name="Path 278" d="M221,217.643l1.173,1.763a.932.932,0,0,0,1.294.275c.008,0,.008-.008.016-.008l1.65-1.092a.95.95,0,0,0,.259-1.318l-1.173-1.763Z" transform="translate(390.873 989.93)" fill="#fdd800"></path></g></svg>