<svg xmlns="http://www.w3.org/2000/svg" width="96.899" height="51.965" viewBox="0 0 96.899 51.965"><g id="Group_197" data-name="Group 197" transform="translate(-1023.437 -957.641)"><g id="Group_199" data-name="Group 199" transform="translate(1081.982 965.164)"><path id="Path_392" data-name="Path 392" d="M561.525,254.278c-.061.075-.12.152-.183.226a11.094,11.094,0,0,1-17.393,0c-.063-.074-.122-.151-.183-.226a17.68,17.68,0,0,0-10.3,16.037v4.575a2.329,2.329,0,0,0,2.324,2.335H569.5a2.329,2.329,0,0,0,2.324-2.335v-4.575a17.68,17.68,0,0,0-10.3-16.037" transform="translate(-533.469 -232.784)" fill="#ffce2e"></path><path id="Path_393" data-name="Path 393" d="M604.8,133.09a9.352,9.352,0,0,0,6.909-3.2,12.988,12.988,0,0,0,3.249-8.768c0-6.607-4.548-11.964-10.158-11.964s-10.158,5.356-10.158,11.964a12.988,12.988,0,0,0,3.25,8.768,9.352,9.352,0,0,0,6.909,3.2" transform="translate(-585.627 -109.163)" fill="#ffce2e"></path></g><g id="Group_200" data-name="Group 200" transform="translate(1023.436 965.164)"><path id="Path_394" data-name="Path 394" d="M36.407,254.278c-.061.075-.12.152-.183.226a11.094,11.094,0,0,1-17.393,0c-.063-.074-.122-.151-.183-.226a17.68,17.68,0,0,0-10.3,16.037v4.575a2.329,2.329,0,0,0,2.324,2.335H44.38A2.329,2.329,0,0,0,46.7,274.89v-4.575a17.68,17.68,0,0,0-10.3-16.037" transform="translate(-8.351 -232.784)" fill="#ffce2e"></path><path id="Path_395" data-name="Path 395" d="M79.684,133.09a9.353,9.353,0,0,0,6.909-3.2,12.988,12.988,0,0,0,3.249-8.768c0-6.607-4.548-11.964-10.158-11.964s-10.158,5.356-10.158,11.964a12.988,12.988,0,0,0,3.25,8.768,9.353,9.353,0,0,0,6.909,3.2" transform="translate(-60.508 -109.163)" fill="#ffce2e"></path></g><g id="Group_198" data-name="Group 198" transform="translate(1048.802 957.641)"><path id="Path_396" data-name="Path 396" d="M286.356,179.448c-.072.088-.141.178-.214.265a12.972,12.972,0,0,1-20.338,0c-.074-.086-.143-.177-.214-.265A20.674,20.674,0,0,0,253.55,198.2v5.35a2.724,2.724,0,0,0,2.717,2.73h39.412a2.723,2.723,0,0,0,2.717-2.73V198.2a20.674,20.674,0,0,0-12.04-18.752" transform="translate(-253.55 -154.315)" fill="#1c7c9c"></path><path id="Path_397" data-name="Path 397" d="M336.96,37.743a10.936,10.936,0,0,0,8.078-3.737,15.187,15.187,0,0,0,3.8-10.252c0-7.726-5.318-13.989-11.878-13.989s-11.878,6.263-11.878,13.989a15.186,15.186,0,0,0,3.8,10.252,10.936,10.936,0,0,0,8.078,3.737" transform="translate(-314.537 -9.765)" fill="#1c7c9c"></path></g></g></svg>