<svg xmlns="http://www.w3.org/2000/svg" width="50.353" height="50.118" viewBox="0 0 50.353 50.118"><g id="Group_58" data-name="Group 58" transform="translate(-0.22 -0.217)"><g id="Group_59" data-name="Group 59" transform="translate(0.721 0.721)"><path id="Path_66" data-name="Path 66" d="M30.644,46.65c-3.014-7.1-9.761-12.94-9.761-12.94l-.048,0v0H12.186S.678,43.668,1.007,53.391c.282,6.247,4.744,10.8,8.079,10.991h14.9" transform="translate(-1 -15.269)" fill="none" stroke="#191919" stroke-width="1"></path><path id="Path_67" data-name="Path 67" d="M30.644,46.65c-3.014-7.1-9.761-12.94-9.761-12.94l-.048,0v0H12.186S.678,43.668,1.007,53.391c.282,6.247,4.744,10.8,8.079,10.991h14.9" transform="translate(-1 -15.269)" fill="none" stroke="#191919" stroke-width="1"></path><path id="Path_68" data-name="Path 68" d="M28.223,21.448a2.6,2.6,0,0,1-3.135-.161c-.1-.072-.192-.138-.286-.2-.036-.023-.07-.042-.105-.064-.056-.034-.113-.071-.167-.1s-.091-.046-.137-.069-.085-.045-.126-.064-.1-.041-.147-.06-.071-.03-.106-.042c-.052-.019-.1-.032-.154-.046-.03-.008-.061-.019-.091-.026-.053-.013-.1-.021-.157-.03-.027,0-.055-.011-.082-.015-.053-.007-.1-.01-.157-.013-.025,0-.05,0-.075-.005-.052,0-.1,0-.156,0-.021,0-.042,0-.063,0h0a3.694,3.694,0,0,0-1.83.835c-1.25.916-2.114-.052-3.646-.105S16,22.311,16,22.311l2.783,3.664H27.5l3.206-3.629a2.308,2.308,0,0,0-2.483-.9" transform="translate(-7.542 -9.53)" fill="none" stroke="#191919" stroke-width="1"></path><path id="Path_69" data-name="Path 69" d="M28.223,21.448a2.6,2.6,0,0,1-3.135-.161c-.1-.072-.192-.138-.286-.2-.036-.023-.07-.042-.105-.064-.056-.034-.113-.071-.167-.1s-.091-.046-.137-.069-.085-.045-.126-.064-.1-.041-.147-.06-.071-.03-.106-.042c-.052-.019-.1-.032-.154-.046-.03-.008-.061-.019-.091-.026-.053-.013-.1-.021-.157-.03-.027,0-.055-.011-.082-.015-.053-.007-.1-.01-.157-.013-.025,0-.05,0-.075-.005-.052,0-.1,0-.156,0-.021,0-.042,0-.063,0h0a3.694,3.694,0,0,0-1.83.835c-1.25.916-2.114-.052-3.646-.105S16,22.311,16,22.311l2.783,3.664H27.5l3.206-3.629A2.308,2.308,0,0,0,28.223,21.448Z" transform="translate(-7.542 -9.53)" fill="none" stroke="#191919" stroke-width="1"></path><path id="Path_70" data-name="Path 70" d="M29.765,30.609a1,1,0,0,0-.269-.269.994.994,0,0,0-.558-.171H20.558a1,1,0,1,0,0,2h8.378a1,1,0,0,0,.828-1.556" transform="translate(-9.096 -13.724)" fill="none" stroke="#191919" stroke-width="1"></path><path id="Path_71" data-name="Path 71" d="M29.765,30.609a1,1,0,0,0-.269-.269.994.994,0,0,0-.558-.171H20.558a1,1,0,1,0,0,2h8.378a1,1,0,0,0,.828-1.556Z" transform="translate(-9.096 -13.724)" fill="none" stroke="#191919" stroke-linejoin="round" stroke-width="1"></path><path id="Path_72" data-name="Path 72" d="M21.363,58.659V56H18.15c-.2,0-.333-.058-.377-.163s.01-.241.151-.382l4.692-6.211a.733.733,0,0,1,1.033,0l4.691,6.211c.141.141.195.276.151.382s-.177.163-.377.163H25.1v7.772" transform="translate(-8.31 -21.952)" fill="none" stroke="#191919" stroke-width="1"></path><path id="Path_73" data-name="Path 73" d="M21.363,58.659V56H18.15c-.2,0-.333-.058-.377-.163s.01-.241.151-.382l4.692-6.211a.733.733,0,0,1,1.033,0l4.691,6.211c.141.141.195.276.151.382s-.177.163-.377.163H25.1v7.772" transform="translate(-8.31 -21.952)" fill="none" stroke="#191919" stroke-width="1"></path><rect id="Rectangle_75" data-name="Rectangle 75" width="14.152" height="5.841" transform="translate(21.753 43.21)" fill="none" stroke="#191919" stroke-width="1"></rect><rect id="Rectangle_76" data-name="Rectangle 76" width="14.152" height="5.841" transform="translate(21.753 43.21)" fill="none" stroke="#191919" stroke-width="1"></rect><rect id="Rectangle_77" data-name="Rectangle 77" width="14.152" height="5.841" transform="translate(21.753 37.369)" fill="none" stroke="#191919" stroke-width="1"></rect><rect id="Rectangle_78" data-name="Rectangle 78" width="14.152" height="5.841" transform="translate(21.753 37.369)" fill="none" stroke="#191919" stroke-linejoin="round" stroke-width="1"></rect><rect id="Rectangle_79" data-name="Rectangle 79" width="14.152" height="5.841" transform="translate(21.753 31.529)" fill="none" stroke="#191919" stroke-width="1"></rect><rect id="Rectangle_80" data-name="Rectangle 80" width="14.152" height="5.841" transform="translate(21.753 31.529)" fill="none" stroke="#191919" stroke-width="1"></rect><path id="Path_74" data-name="Path 74" d="M49.68,7a5.354,5.354,0,1,1-4.665-5.963A5.354,5.354,0,0,1,49.68,7Z" transform="translate(-17.581 -1.001)" fill="none" stroke="#191919" stroke-width="1"></path><path id="Path_75" data-name="Path 75" d="M80.2,47.5a5.354,5.354,0,1,1-4.665-5.963A5.354,5.354,0,0,1,80.2,47.5Z" transform="translate(-30.896 -18.665)" fill="none" stroke="#191919" stroke-width="1"></path><path id="Path_76" data-name="Path 76" d="M72.364,21.614A5.354,5.354,0,1,1,67.7,15.651,5.353,5.353,0,0,1,72.364,21.614Z" transform="translate(-27.476 -7.374)" fill="none" stroke="#191919" stroke-width="1"></path><line id="Line_20" data-name="Line 20" x2="6.146" y2="0.486" transform="translate(32.494 28.422)" fill="none" stroke="#191919" stroke-width="1"></line><line id="Line_21" data-name="Line 21" y1="8.709" x2="1.056" transform="translate(25.08 10.668)" fill="none" stroke="#191919" stroke-width="1"></line><line id="Line_22" data-name="Line 22" y1="5.318" x2="5.791" transform="translate(29.644 16.982)" fill="none" stroke="#191919" stroke-width="1"></line></g></g></svg>