<svg xmlns="http://www.w3.org/2000/svg" width="47.975" height="46.019" viewBox="0 0 47.975 46.019"><g id="Group_55" data-name="Group 55" transform="translate(0)"><g id="Group_56" data-name="Group 56" transform="translate(0.5 0.5)"><path id="Path_59" data-name="Path 59" d="M32.114,15.772a13,13,0,1,1-17.761,4.763A13,13,0,0,1,32.114,15.772Z" transform="translate(-2.331 -2.545)" fill="none" stroke="#191919" stroke-width="1"></path><path id="Path_60" data-name="Path 60" d="M28.8,36.976l-6.171-5.061h3.085a3.466,3.466,0,0,0,3.466-3.465V24.2" transform="translate(-3.846 -4.083)" fill="none" stroke="#191919" stroke-width="1"></path><line id="Line_18" data-name="Line 18" x2="11.949" transform="translate(17.311 20.116)" fill="none" stroke="#191919" stroke-width="1"></line><line id="Line_19" data-name="Line 19" x2="11.949" transform="translate(17.311 24.131)" fill="none" stroke="#191919" stroke-width="1"></line><path id="Path_61" data-name="Path 61" d="M51.245,26.9a20.687,20.687,0,0,1,.1,2.075A20.442,20.442,0,0,1,47.013,41.6" transform="translate(-7.532 -4.492)" fill="none" stroke="#191919" stroke-width="1"></path><path id="Path_62" data-name="Path 62" d="M32.4,5.571A20.559,20.559,0,0,1,46.584,15.827" transform="translate(-5.322 -1.267)" fill="none" stroke="#191919" stroke-width="1"></path><path id="Path_63" data-name="Path 63" d="M6.667,15.961A20.56,20.56,0,0,1,20.9,5.577" transform="translate(-1.432 -1.268)" fill="none" stroke="#191919" stroke-width="1"></path><path id="Path_64" data-name="Path 64" d="M7.872,41.263A20.44,20.44,0,0,1,3.743,28.912a20.733,20.733,0,0,1,.145-2.455" transform="translate(-0.99 -4.424)" fill="none" stroke="#191919" stroke-width="1"></path><path id="Path_65" data-name="Path 65" d="M36.637,50.084a20.557,20.557,0,0,1-21.094.038" transform="translate(-2.774 -7.996)" fill="none" stroke="#191919" stroke-width="1"></path><ellipse id="Ellipse_19" data-name="Ellipse 19" cx="3.969" cy="3.955" rx="3.969" ry="3.955" transform="translate(39.037 14.405)" fill="none" stroke="#191919" stroke-width="1"></ellipse><circle id="Ellipse_20" data-name="Ellipse 20" cx="3.955" cy="3.955" r="3.955" transform="translate(19.329)" fill="none" stroke="#191919" stroke-width="1"></circle><circle id="Ellipse_21" data-name="Ellipse 21" cx="3.955" cy="3.955" r="3.955" transform="translate(5.818 35.843)" fill="none" stroke="#191919" stroke-width="1"></circle><ellipse id="Ellipse_22" data-name="Ellipse 22" cx="3.969" cy="3.955" rx="3.969" ry="3.955" transform="translate(0 14.405)" fill="none" stroke="#191919" stroke-width="1"></ellipse><circle id="Ellipse_23" data-name="Ellipse 23" cx="3.955" cy="3.955" r="3.955" transform="translate(32.867 35.843)" fill="none" stroke="#191919" stroke-width="1"></circle></g></g></svg>