<svg xmlns="http://www.w3.org/2000/svg" width="80" height="80" viewBox="0 0 80 80"><g id="Group_95" data-name="Group 95" transform="translate(-127 -1173)"><circle id="Ellipse_33" data-name="Ellipse 33" cx="40" cy="40" r="40" transform="translate(127 1173)" fill="#fde579" opacity="0.241"></circle><g id="Group_9" data-name="Group 9" transform="translate(141.5 1198.475)"><g id="Group_10" data-name="Group 10" transform="translate(0 -0.001)"><path id="Path_4" data-name="Path 4" d="M65.626,6.489A6.489,6.489,0,1,1,59.136,0a6.49,6.49,0,0,1,6.49,6.49" transform="translate(-33.614 0.001)" fill="#2f7996"></path><path id="Path_5" data-name="Path 5" d="M62.422,56.84v-8.31a5.007,5.007,0,0,0-5.008-5.007H46.088a5.008,5.008,0,0,0-5.008,5.007v8.31Z" transform="translate(-26.229 -27.788)" fill="#232323"></path><path id="Path_6" data-name="Path 6" d="M110.147,9.511a5.819,5.819,0,1,1-5.819-5.819,5.819,5.819,0,0,1,5.819,5.819" transform="translate(-62.896 -2.357)" fill="#fbd036"></path><path id="Path_7" data-name="Path 7" d="M22.009,9.817A5.819,5.819,0,1,1,16.19,4a5.819,5.819,0,0,1,5.819,5.819" transform="translate(-6.622 -2.552)" fill="#fbd036"></path><path id="Path_8" data-name="Path 8" d="M62.422,56.84v-8.31a5.007,5.007,0,0,0-5.008-5.007H46.088a5.008,5.008,0,0,0-5.008,5.007v8.31Z" transform="translate(-26.229 -27.788)" fill="#2f7996"></path><path id="Path_9" data-name="Path 9" d="M108.1,42.212H97.944a4.471,4.471,0,0,0-1.48.255,5.741,5.741,0,0,1,2.893,4.983v6.7H112.59V46.7a4.49,4.49,0,0,0-4.49-4.49" transform="translate(-61.59 -26.951)" fill="#fbd036"></path><path id="Path_10" data-name="Path 10" d="M13.483,47.677a5.642,5.642,0,0,1,2.773-4.857,4.474,4.474,0,0,0-1.61-.3H4.49A4.49,4.49,0,0,0,0,47.008v7.451H13.483Z" transform="translate(0 -27.147)" fill="#fbd036"></path></g></g></g></svg>