<svg xmlns="http://www.w3.org/2000/svg" width="40.165" height="49.015" viewBox="0 0 40.165 49.015"><g id="Group_49" data-name="Group 49" transform="translate(0.046 0.045)" style="mix-blend-mode: darken;isolation: isolate"><g id="Group_50" data-name="Group 50" transform="translate(0.455 0.455)"><path id="Path_44" data-name="Path 44" d="M25.764,19.857l-.061,0v0H14.8S.294,32.41.709,44.666c.355,7.875,5.98,13.619,10.184,13.855H29.672c4.2-.237,9.829-5.98,10.184-13.855C40.27,32.41,25.764,19.857,25.764,19.857" transform="translate(-0.7 -10.506)" fill="#fff" stroke="#191919" stroke-width="1"></path><path id="Path_45" data-name="Path 45" d="M25.764,19.857l-.061,0v0H14.8S.294,32.41.709,44.666c.355,7.875,5.98,13.619,10.184,13.855H29.672c4.2-.237,9.829-5.98,10.184-13.855C40.27,32.41,25.764,19.857,25.764,19.857Z" transform="translate(-0.7 -10.506)" fill="none" stroke="#191919" stroke-width="1"></path><path id="Path_46" data-name="Path 46" d="M37.948,1.829c-.733.267-1.976,1.266-3.952-.2q-.184-.137-.36-.251c-.045-.029-.088-.053-.133-.08-.071-.044-.142-.089-.211-.128s-.115-.059-.172-.087-.107-.056-.159-.08-.124-.051-.185-.075c-.044-.018-.09-.038-.134-.054-.065-.023-.13-.04-.194-.058C32.407.8,32.368.789,32.331.78c-.067-.016-.132-.026-.2-.038-.034-.006-.069-.014-.1-.019-.066-.009-.132-.012-.2-.016-.032,0-.064-.006-.1-.007-.066,0-.131,0-.2.005-.027,0-.054,0-.08,0h0a4.66,4.66,0,0,0-2.306,1.053c-1.576,1.154-2.664-.067-4.6-.133s-2.02,1.288-2.02,1.288l3.508,4.619H37.037l4.041-4.574c-.511-1.132-2.4-1.4-3.131-1.132" transform="translate(-11.878 -0.7)" fill="#fff" stroke="#191919" stroke-width="1"></path><path id="Path_47" data-name="Path 47" d="M37.948,1.829c-.733.267-1.976,1.266-3.952-.2q-.184-.137-.36-.251c-.045-.029-.088-.053-.133-.08-.071-.044-.142-.089-.211-.128s-.115-.059-.172-.087-.107-.056-.159-.08-.124-.051-.185-.075c-.044-.018-.09-.038-.134-.054-.065-.023-.13-.04-.194-.058C32.407.8,32.368.789,32.331.78c-.067-.016-.132-.026-.2-.038-.034-.006-.069-.014-.1-.019-.066-.009-.132-.012-.2-.016-.032,0-.064-.006-.1-.007-.066,0-.131,0-.2.005-.027,0-.054,0-.08,0h0a4.66,4.66,0,0,0-2.306,1.053c-1.576,1.154-2.664-.067-4.6-.133s-2.02,1.288-2.02,1.288l3.508,4.619H37.037l4.041-4.574C40.568,1.829,38.68,1.562,37.948,1.829Z" transform="translate(-11.878 -0.7)" fill="none" stroke="#191919" stroke-width="1"></path><path id="Path_48" data-name="Path 48" d="M40.587,15.258a1.257,1.257,0,0,0-1.043-.555H28.981a1.258,1.258,0,1,0,0,2.516H39.543a1.259,1.259,0,0,0,1.043-1.962" transform="translate(-14.533 -7.868)" fill="none" stroke="#191919" stroke-width="1"></path><path id="Path_49" data-name="Path 49" d="M40.587,15.258a1.257,1.257,0,0,0-1.043-.555H28.981a1.258,1.258,0,1,0,0,2.516H39.543a1.259,1.259,0,0,0,1.043-1.962Z" transform="translate(-14.533 -7.868)" fill="none" stroke="#191919" stroke-linejoin="round" stroke-width="1"></path><path id="Path_50" data-name="Path 50" d="M29.809,42.482V47.9H25.033c-.3,0-.495.086-.56.243s.015.358.224.568l6.975,9.233a1.089,1.089,0,0,0,1.536,0l6.975-9.233c.209-.21.289-.411.224-.568s-.264-.243-.56-.243H35.37V38.994" transform="translate(-12.858 -20.302)" fill="#fff" stroke="#191919" stroke-width="1"></path><path id="Path_51" data-name="Path 51" d="M29.809,42.482V47.9H25.033c-.3,0-.495.086-.56.243s.015.358.224.568l6.975,9.233a1.089,1.089,0,0,0,1.536,0l6.975-9.233c.209-.21.289-.411.224-.568s-.264-.243-.56-.243H35.37V38.994" transform="translate(-12.858 -20.302)" fill="none" stroke="#191919" stroke-width="1"></path><path id="Path_52" data-name="Path 52" d="M22.163,28.109a49.658,49.658,0,0,0-4.9,6.15" transform="translate(-9.18 -14.73)" fill="#fff" stroke="#191919" stroke-width="1"></path><path id="Path_53" data-name="Path 53" d="M22.163,28.109a49.658,49.658,0,0,0-4.9,6.15" transform="translate(-9.18 -14.73)" fill="none" stroke="#191919" stroke-width="1"></path></g></g></svg>