<svg xmlns="http://www.w3.org/2000/svg" width="80" height="80" viewBox="0 0 80 80"><g id="Group_94" data-name="Group 94" transform="translate(-127 -1271)"><circle id="Ellipse_6" data-name="Ellipse 6" cx="40" cy="40" r="40" transform="translate(127 1271)" fill="#fde579" opacity="0.241"></circle><g id="Group_12" data-name="Group 12" transform="translate(147.079 1288.531)"><g id="Group_13" data-name="Group 13" transform="translate(0 0)"><path id="Path_11" data-name="Path 11" d="M39.4,17.869V9.655L30,0H7.937A4.912,4.912,0,0,0,3.025,4.912V45.939H34.656A4.744,4.744,0,0,0,39.4,41.2Z" transform="translate(-0.48 0)" fill="#fbd036"></path><path id="Path_12" data-name="Path 12" d="M35.092,0V5.8A4.138,4.138,0,0,0,39.23,9.934h5.262" transform="translate(-5.572 0)" fill="#2f7996"></path><path id="Path_13" data-name="Path 13" d="M2.545,53.256.339,49.61a2.324,2.324,0,0,1,1.989-3.526h.217" transform="translate(0 -7.318)" fill="#2f7996"></path><path id="Path_14" data-name="Path 14" d="M18.449,18.45,14.874,15l.585-.6,2.97,2.869,4.587-4.749.6.585Z" transform="translate(-2.362 -1.987)" fill="#2f7996"></path><rect id="Rectangle_33" data-name="Rectangle 33" width="20.505" height="1.178" transform="translate(10.529 26.507)" fill="#2f7996"></rect><rect id="Rectangle_34" data-name="Rectangle 34" width="20.505" height="1.178" transform="translate(10.529 32.341)" fill="#2f7996"></rect><rect id="Rectangle_35" data-name="Rectangle 35" width="20.504" height="1.178" transform="translate(10.432 38.178)" fill="#2f7996"></rect><path id="Path_15" data-name="Path 15" d="M17.442,22.42a6.977,6.977,0,1,1,6.977-6.977,6.985,6.985,0,0,1-6.977,6.977m0-13.113a6.136,6.136,0,1,0,6.136,6.136,6.143,6.143,0,0,0-6.136-6.136" transform="translate(-1.662 -1.345)" fill="#2f7996"></path></g></g></g></svg>