<svg xmlns="http://www.w3.org/2000/svg" id="influencer" width="56" height="56" viewBox="0 0 56 56"><path id="Path_82" data-name="Path 82" d="M96,4.667v2.8h21.467V5.6h-19.6V4.667a2.8,2.8,0,0,1,2.8-2.8H118.4V0H100.667A4.672,4.672,0,0,0,96,4.667Zm0,0" transform="translate(-84.8)"></path><path id="Path_83" data-name="Path 83" d="M96,176v30.8a4.672,4.672,0,0,0,4.667,4.667H121.2V209.6H100.667a2.8,2.8,0,0,1-2.8-2.8V204h21.467v-1.867H97.867V176Zm0,0" transform="translate(-84.8 -155.467)"></path><path id="Path_84" data-name="Path 84" d="M265.284,208v11.747l-6.34-6.34a4.233,4.233,0,0,0-5.986,5.986l7.429,7.429-.414.725a9.672,9.672,0,0,0,.645,10.637v1.549h1.867v-1.867a.933.933,0,0,0-.2-.583,7.818,7.818,0,0,1-.687-8.809l.768-1.345a.933.933,0,0,0-.15-1.12l-7.933-7.933a2.367,2.367,0,0,1,3.347-3.347l9.8,9.8,1.32-1.32-1.593-1.6V208Zm0,0" transform="translate(-222.351 -183.733)"></path><path id="Path_85" data-name="Path 85" d="M232,432h1.867v1.867H232Zm0,0" transform="translate(-204.933 -381.6)"></path><path id="Path_86" data-name="Path 86" d="M399.225,274.925V256.3a10.249,10.249,0,0,0-2.52-6.741l-1.428-1.719-1.437,1.192,1.44,1.737a8.4,8.4,0,0,1,2.079,5.531v18.626Zm0,0" transform="translate(-347.892 -218.925)"></path><path id="Path_87" data-name="Path 87" d="M264,200h1.867v3.733H264Zm0,0" transform="translate(-233.2 -176.667)"></path><path id="Path_88" data-name="Path 88" d="M56.346,64.2a.933.933,0,0,0-.346.726v9.333a.933.933,0,0,0,.933.933.992.992,0,0,0,.133-.009l8.267-1.182V78a2.8,2.8,0,0,0,2.8,2.8H72.8v19.6a.933.933,0,0,0,.933.933H81.2a.933.933,0,0,0,.933-.933V95.731H80.267v3.733H78.4V92H76.533v7.467H74.667v-19.6a.933.933,0,0,0-.933-.933h-5.6A.933.933,0,0,1,67.2,78V73.74l1.867-.267v2.657a.933.933,0,0,0,.933.933H81.2a2.8,2.8,0,0,1,2.8,2.8V83.6h1.867V79.864A4.672,4.672,0,0,0,81.2,75.2h-.024a4.62,4.62,0,0,0,.957-2.8V70.531a4.667,4.667,0,1,0-9.333,0V72.4a4.62,4.62,0,0,0,.957,2.8H70.933V67.731a.933.933,0,0,0-.737-.913l-13.067-2.8A.932.932,0,0,0,56.346,64.2ZM74.667,72.4V70.531a2.8,2.8,0,1,1,5.6,0V72.4a2.8,2.8,0,1,1-5.6,0Zm-16.8-6.312,11.2,2.4v3.1l-11.2,1.6Zm0,0" transform="translate(-49.467 -56.531)"></path><path id="Path_89" data-name="Path 89" d="M6.055,66.053l.452-1.811,3.733.932-.452,1.811Zm0,0" transform="translate(-5.348 -56.747)"></path><path id="Path_90" data-name="Path 90" d="M6.059,137.174l3.733-.932.452,1.811-3.733.932Zm0,0" transform="translate(-5.352 -120.347)"></path><path id="Path_91" data-name="Path 91" d="M0,104H3.733v1.867H0Zm0,0" transform="translate(0 -91.867)"></path><path id="Path_92" data-name="Path 92" d="M319.867,0h-11.2A4.672,4.672,0,0,0,304,4.667V14a4.672,4.672,0,0,0,4.667,4.667h.728l-.709,3.546a.933.933,0,0,0,1.409.975l7.24-4.521h2.532A4.672,4.672,0,0,0,324.533,14V4.667A4.672,4.672,0,0,0,319.867,0Zm2.8,14a2.8,2.8,0,0,1-2.8,2.8h-2.8a.933.933,0,0,0-.494.142l-5.633,3.521.509-2.542a.933.933,0,0,0-.915-1.12h-1.867a2.8,2.8,0,0,1-2.8-2.8V4.667a2.8,2.8,0,0,1,2.8-2.8h11.2a2.8,2.8,0,0,1,2.8,2.8Zm0,0" transform="translate(-268.533)"></path><path id="Path_93" data-name="Path 93" d="M348.134,35H344.9l-1.587-2.385a.97.97,0,0,0-1.553,0L340.168,35h-3.234a.933.933,0,0,0-.66,1.593L338.7,39.02l-.806,3.22a.933.933,0,0,0,1.323,1.067l3.316-1.663,3.316,1.663a.933.933,0,0,0,1.323-1.062l-.806-3.22,2.427-2.427a.933.933,0,0,0-.66-1.6Zm-3.46,3.073a.935.935,0,0,0-.246.887l.442,1.764-1.919-.959a.932.932,0,0,0-.834,0l-1.916.959.442-1.764a.935.935,0,0,0-.246-.887l-1.209-1.207h1.48a.934.934,0,0,0,.777-.415l1.09-1.638,1.09,1.635a.933.933,0,0,0,.777.418h1.48Zm0,0" transform="translate(-296.801 -28.467)"></path></svg>