<svg xmlns="http://www.w3.org/2000/svg" width="128.85" height="62.816" viewBox="0 0 128.85 62.816"><path id="Path_319" data-name="Path 319" d="M-2355.784,2097.422h21.57v21.57Zm-101.6,46.084q5.682,5.71,14.71,5.71a21.656,21.656,0,0,0,5.52-.707,21.705,21.705,0,0,0,4.378-1.577,22.891,22.891,0,0,0,3.181-1.985,21.485,21.485,0,0,0,1.93-1.55,9.3,9.3,0,0,0,.653-.707l-4.895-6.961-1.305,1.2a14.338,14.338,0,0,1-3.834,2.393,12.255,12.255,0,0,1-5.194,1.2,9.936,9.936,0,0,1-8.048-3.508,12.361,12.361,0,0,1-2.937-8.185,11.488,11.488,0,0,1,2.855-7.831q2.855-3.263,8.129-3.263a12.36,12.36,0,0,1,4.949,1.115,19.6,19.6,0,0,1,3.426,1.768q.869.652,1.36,1.087l4.4-7.178-.544-.544a11.032,11.032,0,0,0-1.848-1.387q-1.252-.787-2.883-1.6a18.672,18.672,0,0,0-4.106-1.387,23.052,23.052,0,0,0-5.193-.571,19.918,19.918,0,0,0-14.574,5.737,19.238,19.238,0,0,0-5.819,14.275A19.649,19.649,0,0,0-2457.381,2143.507Zm77.433.664a9.5,9.5,0,0,0,1.792,1.412,30.716,30.716,0,0,0,2.852,1.629,18.175,18.175,0,0,0,3.992,1.385,21.192,21.192,0,0,0,4.942.57q6.3,0,9.994-3.5a11.343,11.343,0,0,0,3.693-8.554,9.764,9.764,0,0,0-1.792-5.893,12.107,12.107,0,0,0-4.372-3.775,53.637,53.637,0,0,0-5.16-2.281,30.427,30.427,0,0,1-4.373-2.01q-1.793-1.031-1.792-2.335a2.513,2.513,0,0,1,1.222-2.281,5.39,5.39,0,0,1,2.906-.76,11.113,11.113,0,0,1,4.318.951,17.485,17.485,0,0,1,3.042,1.521q.787.57,1.223.95l4.019-7.767-1.3-1.086a14.344,14.344,0,0,0-4.372-2.2,20.188,20.188,0,0,0-6.817-1.114,14.707,14.707,0,0,0-9.8,3.313,10.69,10.69,0,0,0-3.938,8.582,9.814,9.814,0,0,0,1.3,5.051,10.419,10.419,0,0,0,3.232,3.5,36.97,36.97,0,0,0,4.209,2.39,44.545,44.545,0,0,0,4.209,1.819,13.21,13.21,0,0,1,3.232,1.656,2.585,2.585,0,0,1,1.3,1.983,2.563,2.563,0,0,1-1.2,2.363,5.4,5.4,0,0,1-2.878.733,11.157,11.157,0,0,1-4.617-1.114,18.435,18.435,0,0,1-3.313-1.792q-.869-.679-1.357-1.113l-5,7.224Zm-79.529,13.885a1.793,1.793,0,0,0-.532-.49,8.867,8.867,0,0,0-.906-.477,2.167,2.167,0,0,1-.442-.258.321.321,0,0,1-.124-.251.331.331,0,0,1,.124-.262.609.609,0,0,1,.4-.106,1.872,1.872,0,0,1,.791.17,4.017,4.017,0,0,1,.671.385v-1.15a2.31,2.31,0,0,0-.312-.156,3.267,3.267,0,0,0-.575-.178,3.4,3.4,0,0,0-.759-.08,2.255,2.255,0,0,0-.977.192,1.35,1.35,0,0,0-.594.511,1.351,1.351,0,0,0-.194.717,1.289,1.289,0,0,0,.193.711,1.681,1.681,0,0,0,.5.5,4.4,4.4,0,0,0,.708.369,2.716,2.716,0,0,1,.556.281.4.4,0,0,1,.191.334.367.367,0,0,1-.111.235.674.674,0,0,1-.49.126,1.95,1.95,0,0,1-.77-.152,5.354,5.354,0,0,1-.731-.382v1.2a4.6,4.6,0,0,0,.762.261,4.15,4.15,0,0,0,.587.108q.221.019.374.019a2.447,2.447,0,0,0,.966-.179,1.485,1.485,0,0,0,.656-.515,1.354,1.354,0,0,0,.235-.8A1.185,1.185,0,0,0-2459.477,2158.056Zm6.122-1.3a2.3,2.3,0,0,0-.52-.8,2.433,2.433,0,0,0-.876-.546,3.4,3.4,0,0,0-1.212-.2,3.125,3.125,0,0,0-1.541.353,2.277,2.277,0,0,0-.935.927,2.607,2.607,0,0,0-.3,1.237,2.592,2.592,0,0,0,.307,1.235,2.3,2.3,0,0,0,.936.93,3.1,3.1,0,0,0,1.539.353,3.162,3.162,0,0,0,1.525-.34,2.29,2.29,0,0,0,.942-.917,2.579,2.579,0,0,0,.316-1.263A2.644,2.644,0,0,0-2453.355,2156.751Zm-1.478,1.618a1.073,1.073,0,0,1-.435.446,1.394,1.394,0,0,1-.693.161,1.244,1.244,0,0,1-.933-.348,1.246,1.246,0,0,1-.342-.911,1.244,1.244,0,0,1,.339-.909,1.249,1.249,0,0,1,.934-.347,1.486,1.486,0,0,1,.548.094,1.139,1.139,0,0,1,.4.261,1.079,1.079,0,0,1,.246.4,1.5,1.5,0,0,1,.081.5A1.392,1.392,0,0,1-2454.833,2158.369Zm6.821.189a4.665,4.665,0,0,1-.448.251,3.077,3.077,0,0,1-.536.193,2.558,2.558,0,0,1-.676.087,1.7,1.7,0,0,1-.794-.181,1.4,1.4,0,0,1-.55-.492,1.237,1.237,0,0,1-.2-.681,1.229,1.229,0,0,1,.226-.736,1.474,1.474,0,0,1,.6-.485,1.9,1.9,0,0,1,.8-.17,2.146,2.146,0,0,1,.837.15,5.248,5.248,0,0,1,.72.376v-1.3a5.792,5.792,0,0,0-1.893-.37,3.7,3.7,0,0,0-1.063.151,2.637,2.637,0,0,0-.9.466,2.145,2.145,0,0,0-.614.791,2.628,2.628,0,0,0-.219,1.109,2.683,2.683,0,0,0,.187,1.014,2.2,2.2,0,0,0,.559.806,2.486,2.486,0,0,0,.881.521,3.478,3.478,0,0,0,1.148.176,5.333,5.333,0,0,0,.67-.041,3.955,3.955,0,0,0,.642-.136,3.533,3.533,0,0,0,.623-.255Zm2.334-3.295h-1.479l0,4.9h1.479Zm4.316,0H-2443l-2.166,4.9h1.514l.407-.994h2.13l.4.994h1.514Zm-1.534,3.057.724-1.79.719,1.79Zm7.929.669h-2.247v-3.729h-1.479l0,4.9,3.725,0Zm4.2-3.731h-1.479l0,4.9h1.479Zm6.8,0h-1.341l-1.513,1.841-1.508-1.839h-1.341l0,4.9h1.436v-2.841l1.338,1.644h.117l1.333-1.646v2.841h1.479Zm5.245,1a1.425,1.425,0,0,0-.3-.492,1.522,1.522,0,0,0-.565-.368,2.257,2.257,0,0,0-.836-.141h-2.448l0,4.9h1.479v-1.839h.969a2.285,2.285,0,0,0,.837-.14,1.511,1.511,0,0,0,.564-.365,1.418,1.418,0,0,0,.3-.485,1.561,1.561,0,0,0,.094-.533A1.611,1.611,0,0,0-2418.721,2156.253Zm-1.5.906a.463.463,0,0,1-.286.17,2.649,2.649,0,0,1-.566.046h-.318v-1.182h.311a1.5,1.5,0,0,1,.741.129.519.519,0,0,1,.207.479A.608.608,0,0,1-2420.222,2157.159Zm4.871-1.909h-1.635l-2.166,4.9h1.514l.406-.994h2.13l.4.994h1.514Zm-1.534,3.057.725-1.79.719,1.79Zm8.491.233a4.749,4.749,0,0,1-.448.251,3.085,3.085,0,0,1-.536.193,2.549,2.549,0,0,1-.676.087,1.7,1.7,0,0,1-.794-.181,1.408,1.408,0,0,1-.55-.492,1.236,1.236,0,0,1-.2-.681,1.229,1.229,0,0,1,.226-.736,1.474,1.474,0,0,1,.6-.485,1.9,1.9,0,0,1,.8-.17,2.137,2.137,0,0,1,.837.15,5.265,5.265,0,0,1,.72.376v-1.3a5.8,5.8,0,0,0-1.893-.371,3.7,3.7,0,0,0-1.063.151,2.631,2.631,0,0,0-.9.466,2.142,2.142,0,0,0-.614.791,2.628,2.628,0,0,0-.219,1.109,2.7,2.7,0,0,0,.187,1.014,2.206,2.206,0,0,0,.559.806,2.488,2.488,0,0,0,.881.521,3.486,3.486,0,0,0,1.148.176,5.377,5.377,0,0,0,.67-.041,3.964,3.964,0,0,0,.642-.136,3.517,3.517,0,0,0,.623-.255Zm5.549-3.3-5.07,0v1.192h1.8l0,3.711h1.475l0-3.711h1.8Zm5.961,2.783a1.785,1.785,0,0,0-.533-.49,8.862,8.862,0,0,0-.906-.477,2.155,2.155,0,0,1-.442-.258.321.321,0,0,1-.124-.251.332.332,0,0,1,.124-.262.609.609,0,0,1,.4-.106,1.875,1.875,0,0,1,.791.169,4.068,4.068,0,0,1,.67.385v-1.15a2.274,2.274,0,0,0-.311-.156,3.285,3.285,0,0,0-.575-.178,3.4,3.4,0,0,0-.759-.079,2.254,2.254,0,0,0-.977.191,1.353,1.353,0,0,0-.594.511,1.355,1.355,0,0,0-.194.717,1.286,1.286,0,0,0,.193.711,1.678,1.678,0,0,0,.5.5,4.406,4.406,0,0,0,.708.37,2.726,2.726,0,0,1,.555.281.4.4,0,0,1,.191.334.369.369,0,0,1-.112.236.674.674,0,0,1-.49.125,1.944,1.944,0,0,1-.77-.152,5.411,5.411,0,0,1-.731-.382v1.2a4.613,4.613,0,0,0,.763.261,4.226,4.226,0,0,0,.587.108q.222.019.373.019a2.459,2.459,0,0,0,.966-.179,1.487,1.487,0,0,0,.656-.515,1.353,1.353,0,0,0,.235-.8A1.185,1.185,0,0,0-2396.884,2158.028Zm5.2-1.787a1.418,1.418,0,0,0-.3-.492,1.515,1.515,0,0,0-.564-.368,2.265,2.265,0,0,0-.837-.141h-2.448l0,4.9h1.479v-1.84h.969a2.281,2.281,0,0,0,.837-.14,1.511,1.511,0,0,0,.564-.365,1.417,1.417,0,0,0,.3-.485,1.557,1.557,0,0,0,.094-.532A1.613,1.613,0,0,0-2391.68,2156.24Zm-1.5.906a.464.464,0,0,1-.287.17,2.65,2.65,0,0,1-.566.046h-.318v-1.182h.312a1.511,1.511,0,0,1,.741.129.521.521,0,0,1,.207.479A.609.609,0,0,1-2393.181,2157.146Zm5.969,2.007h-2.218v-1.047h2.059v-.987h-2.059v-.9h2.158v-.984l-3.637,0,0,4.9,3.7,0Zm5.236-.625a4.692,4.692,0,0,1-.447.251,3.084,3.084,0,0,1-.536.193,2.56,2.56,0,0,1-.676.087,1.7,1.7,0,0,1-.794-.182,1.4,1.4,0,0,1-.55-.492,1.234,1.234,0,0,1-.2-.681,1.224,1.224,0,0,1,.226-.736,1.475,1.475,0,0,1,.6-.485,1.9,1.9,0,0,1,.8-.17,2.14,2.14,0,0,1,.837.15,5.223,5.223,0,0,1,.72.377v-1.3a5.793,5.793,0,0,0-1.893-.37,3.706,3.706,0,0,0-1.063.151,2.634,2.634,0,0,0-.9.466,2.142,2.142,0,0,0-.613.791,2.622,2.622,0,0,0-.219,1.109,2.692,2.692,0,0,0,.186,1.013,2.211,2.211,0,0,0,.559.806,2.484,2.484,0,0,0,.882.522,3.481,3.481,0,0,0,1.148.176,5.366,5.366,0,0,0,.67-.041,3.964,3.964,0,0,0,.643-.136,3.538,3.538,0,0,0,.622-.255Zm2.334-3.295h-1.479l0,4.9h1.479Zm4.316,0h-1.635l-2.167,4.9h1.514l.406-.994h2.13l.4.994h1.514Zm-1.534,3.057.724-1.791.719,1.79Zm7.928.668h-2.246l0-3.729h-1.479l0,4.9,3.726,0Zm2.2-3.73h-1.479l0,4.9h1.479Zm4.33,2.784a1.785,1.785,0,0,0-.533-.49,8.862,8.862,0,0,0-.906-.477,2.159,2.159,0,0,1-.442-.258.321.321,0,0,1-.124-.251.333.333,0,0,1,.124-.262.608.608,0,0,1,.4-.106,1.875,1.875,0,0,1,.791.169,4.05,4.05,0,0,1,.67.385v-1.15a2.348,2.348,0,0,0-.312-.155,3.318,3.318,0,0,0-.575-.179,3.425,3.425,0,0,0-.759-.079,2.253,2.253,0,0,0-.976.192,1.353,1.353,0,0,0-.594.511,1.354,1.354,0,0,0-.194.716,1.291,1.291,0,0,0,.193.711,1.673,1.673,0,0,0,.5.5,4.414,4.414,0,0,0,.708.369,2.717,2.717,0,0,1,.555.281.4.4,0,0,1,.191.334.368.368,0,0,1-.111.235.672.672,0,0,1-.49.126,1.945,1.945,0,0,1-.769-.152,5.39,5.39,0,0,1-.731-.381v1.2a4.583,4.583,0,0,0,.763.261,4.194,4.194,0,0,0,.587.108c.148.013.272.019.374.019a2.457,2.457,0,0,0,.966-.179,1.488,1.488,0,0,0,.656-.515,1.35,1.35,0,0,0,.235-.8A1.185,1.185,0,0,0-2362.4,2158.012Zm5.753-2.789-5.07,0v1.192h1.8l0,3.711h1.475l0-3.711h1.8Zm3.955,2.784a1.792,1.792,0,0,0-.533-.49,8.828,8.828,0,0,0-.906-.477,2.155,2.155,0,0,1-.442-.258.321.321,0,0,1-.124-.251.33.33,0,0,1,.124-.262.609.609,0,0,1,.4-.106,1.876,1.876,0,0,1,.791.17,4.05,4.05,0,0,1,.67.385v-1.15a2.231,2.231,0,0,0-.311-.156,3.285,3.285,0,0,0-.575-.178,3.389,3.389,0,0,0-.759-.079,2.246,2.246,0,0,0-.976.191,1.347,1.347,0,0,0-.594.511,1.354,1.354,0,0,0-.195.717,1.292,1.292,0,0,0,.193.711,1.678,1.678,0,0,0,.5.5,4.373,4.373,0,0,0,.708.369,2.737,2.737,0,0,1,.555.281.4.4,0,0,1,.191.334.368.368,0,0,1-.112.235.672.672,0,0,1-.49.126,1.939,1.939,0,0,1-.769-.152,5.367,5.367,0,0,1-.731-.382v1.2a4.581,4.581,0,0,0,.763.261,4.2,4.2,0,0,0,.587.108q.222.019.373.019a2.453,2.453,0,0,0,.966-.179,1.485,1.485,0,0,0,.656-.515,1.351,1.351,0,0,0,.235-.8A1.186,1.186,0,0,0-2352.695,2158.007Zm2.75-53.7v8.562h8.562l-8.562-8.562m-.743-1.793,11.1,11.1h-11.1v-11.1Zm-32.493,8.765h-9.374l-10.093,12.987.017,12.246,8.963-10.85,1.608-1.947v23.474h8.879v-35.91m.908-.908V2148.1h-10.7v-21.857l-10.567,12.792-.021-15.077,10.557-13.584Zm-21.283,28.677v-15.093l-10.913-13.584h-10.316V2148.1h10.368v-21.857l10.881,12.792" transform="translate(2463.064 -2097.422)" fill="#fff"></path></svg>