<svg xmlns="http://www.w3.org/2000/svg" width="44" height="44" viewBox="0 0 44 44"><g id="pie-chart" transform="translate(0 -0.003)"><path id="Path_238" data-name="Path 238" d="M213.088,262.733a1.434,1.434,0,0,1-1.014-.42l-5.739-5.739a1.434,1.434,0,0,1,0-2.029l5.739-5.739a1.435,1.435,0,0,1,2.449,1.014v.52a10.508,10.508,0,0,0,6.217-9.607,1.435,1.435,0,0,1,2.449-1.014l1.855,1.855,1.855-1.855a1.435,1.435,0,0,1,2.449,1.014,19.056,19.056,0,0,1-14.826,18.646v1.92a1.435,1.435,0,0,1-1.435,1.435Z" transform="translate(-188.219 -218.73)" fill="#1c7c9c"></path><path id="Path_239" data-name="Path 239" d="M255.565,56.82a1.43,1.43,0,0,1-1.014-.42l-5.739-5.739a1.435,1.435,0,0,1,1.014-2.449h.52a10.507,10.507,0,0,0-9.607-6.217,1.435,1.435,0,0,1-1.014-2.449l1.855-1.855-1.855-1.855a1.435,1.435,0,0,1,1.014-2.449,19.054,19.054,0,0,1,18.646,14.826h1.92a1.435,1.435,0,0,1,1.014,2.449L256.579,56.4A1.428,1.428,0,0,1,255.565,56.82Z" transform="translate(-218.739 -30.513)" fill="#fdd800"></path><path id="Path_240" data-name="Path 240" d="M40.567,23.437a1.434,1.434,0,0,1-1.014-.42L37.7,21.162l-1.855,1.855A1.435,1.435,0,0,1,33.393,22,19.056,19.056,0,0,1,48.219,3.357V1.437A1.435,1.435,0,0,1,50.668.423l5.739,5.739a1.434,1.434,0,0,1,0,2.029L50.668,13.93a1.435,1.435,0,0,1-2.449-1.014V12.4A10.508,10.508,0,0,0,42,22a1.434,1.434,0,0,1-1.435,1.434Z" transform="translate(-30.524 0)" fill="#1c7c9c"></path><path id="Path_241" data-name="Path 241" d="M18.116,226.056a1.434,1.434,0,0,1,0-2.029l3.311-3.311a10.5,10.5,0,0,1-9.034-6.2h.52a1.435,1.435,0,0,0,1.014-2.449l-5.739-5.739a1.434,1.434,0,0,0-2.029,0L.42,212.071a1.435,1.435,0,0,0,1.014,2.449h1.92a19.039,19.039,0,0,0,18.025,14.8Z" transform="translate(0 -188.213)" fill="#fdd800"></path><path id="Path_242" data-name="Path 242" d="M256.833,27.309l-4.171-4.171V33.509l4.171-4.171A1.434,1.434,0,0,0,256.833,27.309Z" transform="translate(-230.949 -21.147)" fill="#1c7c9c"></path><path id="Path_243" data-name="Path 243" d="M206.335,378.456a1.434,1.434,0,0,0,0,2.029l3.6,3.6v-9.223Z" transform="translate(-188.219 -342.642)" fill="#1c7c9c"></path></g></svg>