<svg xmlns="http://www.w3.org/2000/svg" width="47.476" height="46.948" viewBox="0 0 47.476 46.948"><g id="Group_52" data-name="Group 52" transform="translate(-0.138 -0.137)" style="mix-blend-mode: darken;isolation: isolate"><g id="Group_53" data-name="Group 53" transform="translate(0.638 0.637)"><path id="Path_54" data-name="Path 54" d="M36.154,34.99,43.113,27.8a3.338,3.338,0,0,1,3.856,0,3,3,0,0,1,.653,3.693c-.882,1.829-9.082,10.815-9.082,10.815A9.035,9.035,0,0,1,32.1,44.76c-4.148-.033-12.057,0-12.057,0a5.977,5.977,0,0,0-4.08,2.456L6.849,38.421l.128-.36s4.51-8.626,15.276-5.227l11.125.032a3.168,3.168,0,0,1,2.777,3.2,2.86,2.86,0,0,1-2.482,2.907h-11" transform="translate(-1.514 -4.202)" fill="none" stroke="#191919" stroke-width="1"></path><path id="Path_55" data-name="Path 55" d="M16.189,49.8h0a6.329,6.329,0,0,1-8.949.161L.7,43.648l4.394-4.555Z" transform="translate(-0.7 -5.782)" fill="none" stroke="#191919" stroke-linejoin="round" stroke-width="1"></path><path id="Path_56" data-name="Path 56" d="M30.043,6.968l-.036,0v0H23.613s-8.508,7.363-8.265,14.551c.208,4.619,3.508,7.987,5.974,8.126H32.336c2.466-.139,5.765-3.507,5.973-8.126C38.552,14.331,30.043,6.968,30.043,6.968Z" transform="translate(-2.638 -1.529)" fill="none" stroke="#191919" stroke-width="1"></path><path id="Path_57" data-name="Path 57" d="M31.006,6.14l2.37-4.114a1.706,1.706,0,0,0-1.837-.664,1.924,1.924,0,0,1-2.317-.119c-.072-.054-.142-.1-.212-.147-.026-.017-.051-.031-.077-.047-.042-.026-.084-.053-.125-.075s-.067-.034-.1-.051-.062-.033-.094-.047-.072-.029-.108-.043S28.452.809,28.426.8s-.075-.023-.114-.034l-.068-.02c-.039-.009-.077-.015-.115-.022-.02,0-.041-.009-.061-.011C28.03.708,27.991.706,27.952.7L27.9.7c-.038,0-.076,0-.115,0h-.047a2.729,2.729,0,0,0-1.353.618c-.924.677-1.563-.039-2.7-.079S22.5,2,22.5,2l2.058,4.14Z" transform="translate(-3.586 -0.7)" fill="none" stroke="#191919" stroke-width="1"></path><path id="Path_58" data-name="Path 58" d="M28.6,26.466a5.129,5.129,0,0,1-3.636-1.674l.8-1.021a4.358,4.358,0,0,0,2.838,1.5V21.394c-1.626-.447-3.3-.989-3.3-2.95,0-1.642,1.388-2.807,3.3-2.95V14.042h.973V15.51a4.823,4.823,0,0,1,3.158,1.467l-.8.973a3.881,3.881,0,0,0-2.36-1.229V20.2c1.642.463,3.4,1.069,3.4,3.158,0,1.436-.925,2.935-3.4,3.11v1.42H28.6Zm0-6.523V16.689c-1.132.08-1.93.749-1.93,1.675,0,.877.846,1.26,1.93,1.579m.973,1.706v3.636c1.515-.159,2.025-1.069,2.025-1.833,0-1.037-.908-1.468-2.025-1.8" transform="translate(-4.78 -4.187)" fill="#191919"></path></g></g></svg>