<svg xmlns="http://www.w3.org/2000/svg" width="44.889" height="33.135" viewBox="0 0 44.889 33.135">
  <g id="Group_67" data-name="Group 67" transform="translate(-0.417 -0.417)">
    <g id="Group_68" data-name="Group 68" transform="translate(0.917 0.917)">
      <path id="Path_99" data-name="Path 99" d="M24.122,5.574A5.073,5.073,0,1,1,19.048.5,5.074,5.074,0,0,1,24.122,5.574Z" transform="translate(2.619 -0.5)" fill="none" stroke="#191919" stroke-width="1"/>
      <path id="Path_100" data-name="Path 100" d="M30.924,26.708V17.06a5.043,5.043,0,0,0-5.043-5.043H14.476A5.042,5.042,0,0,0,9.434,17.06v9.648l10.308,2.639a12.236,12.236,0,0,0,10.143-1.9Z" transform="translate(1.491 2.365)" fill="none" stroke="#191919" stroke-width="1"/>
      <path id="Path_101" data-name="Path 101" d="M3.773,9.558A3.657,3.657,0,1,0,7.43,5.9,3.657,3.657,0,0,0,3.773,9.558Z" transform="translate(0.314 0.844)" fill="none" stroke="#191919" stroke-width="1"/>
      <path id="Path_102" data-name="Path 102" d="M12.355,14.2H4.134A3.634,3.634,0,0,0,.5,17.835v5.831H6.427" transform="translate(-0.5 2.909)" fill="none" stroke="#191919" stroke-width="1"/>
      <path id="Path_103" data-name="Path 103" d="M34.758,9.558A3.657,3.657,0,1,1,31.1,5.9,3.657,3.657,0,0,1,34.758,9.558Z" transform="translate(5.729 0.844)" fill="none" stroke="#191919" stroke-width="1"/>
      <path id="Path_104" data-name="Path 104" d="M26.532,14.2h8.221a3.634,3.634,0,0,1,3.634,3.634v5.831H32.46" transform="translate(5.502 2.909)" fill="none" stroke="#191919" stroke-width="1"/>
      <path id="Path_105" data-name="Path 105" d="M15.361,19.519l2.844,2.844,4.024-4.022" transform="translate(2.963 3.939)" fill="none" stroke="#191919" stroke-width="1"/>
    </g>
  </g>
</svg>
