<svg xmlns="http://www.w3.org/2000/svg" xmlns:xlink="http://www.w3.org/1999/xlink" width="39.212" height="46.819" viewBox="0 0 39.212 46.819">
  <defs>
    <clipPath id="clip-path">
      <rect id="Rectangle_84" data-name="Rectangle 84" width="39.212" height="46.819" fill="none" stroke="#191919" stroke-width="1"/>
    </clipPath>
  </defs>
  <g id="Group_71" data-name="Group 71" transform="translate(0 0)">
    <path id="Path_106" data-name="Path 106" d="M30.079,40.287l2.252,2.252,3.186-3.185" transform="translate(-7.244 -9.478)" fill="none" stroke="#191919" stroke-width="1"/>
    <g id="Group_70" data-name="Group 70" transform="translate(0 0)">
      <g id="Group_69" data-name="Group 69" clip-path="url(#clip-path)">
        <path id="Path_107" data-name="Path 107" d="M36.784,12.925V8.412c0-.3-.064-.4-.38-.427A32.1,32.1,0,0,1,19.158.9c-.317-.253-.495-.288-.835-.012A32.161,32.161,0,0,1,1.356,7.978c-.64.07-.64.07-.64.714v8.282H.7V23.95a18.994,18.994,0,0,0,.765,5.594c2.646,8.632,8.351,14.2,16.946,16.869a1.184,1.184,0,0,0,.7-.022,24.148,24.148,0,0,0,12.459-8.257" transform="translate(-0.169 -0.168)" fill="none" stroke="#191919" stroke-linejoin="round" stroke-width="1"/>
        <path id="Path_108" data-name="Path 108" d="M12.057,46.518a12.16,12.16,0,0,1-5.215-7.4" transform="translate(-1.648 -9.42)" fill="none" stroke="#191919" stroke-width="1"/>
        <path id="Path_109" data-name="Path 109" d="M22.867,45.159V20.493H40.416l3.772,4.3v9.836" transform="translate(-5.507 -4.935)" fill="none" stroke="#191919" stroke-width="1"/>
        <path id="Path_110" data-name="Path 110" d="M45.668,20.492v4.494h4.011" transform="translate(-10.998 -4.935)" fill="none" stroke="#191919" stroke-width="1"/>
        <line id="Line_36" data-name="Line 36" x2="10.453" transform="translate(22.304 22.823)" fill="none" stroke="#191919" stroke-width="1"/>
        <line id="Line_37" data-name="Line 37" x2="10.453" transform="translate(22.304 26.138)" fill="none" stroke="#191919" stroke-width="1"/>
      </g>
    </g>
  </g>
</svg>
