<svg xmlns="http://www.w3.org/2000/svg" id="speedometer" width="59.902" height="44" viewBox="0 0 59.902 44"><path id="Path_279" data-name="Path 279" d="M59.9,31.706H38.609V29.951a15.794,15.794,0,0,0-31.589,0v1.755H0V29.951A29.951,29.951,0,0,1,51.13,8.772,29.755,29.755,0,0,1,59.9,29.951Zm0,0" fill="#ffce2e"></path><path id="Path_280" data-name="Path 280" d="M108.249,8.772a29.951,29.951,0,0,0-42.357,0c-.416.415-.816.843-1.2,1.278L71.342,16.7a15.785,15.785,0,0,1,23.813,9.027l21.838,2.94A29.735,29.735,0,0,0,108.249,8.772Zm0,0" transform="translate(-57.119)" fill="#f90"></path><path id="Path_281" data-name="Path 281" d="M264.658,29.951v1.755h21.293V29.951A29.951,29.951,0,0,0,256,0V15.863A15.812,15.812,0,0,1,264.658,29.951Zm0,0" transform="translate(-226.049)" fill="#ff4f18"></path><path id="Path_282" data-name="Path 282" d="M239.113,75,212.175,99.578a2.339,2.339,0,0,0-.078,3.383l6.579,6.579a2.339,2.339,0,0,0,3.386-.081l24.517-26.995V75Zm0,0" transform="translate(-186.677 -66.225)" fill="#1c7c9c"></path><path id="Path_283" data-name="Path 283" d="M248.651,109.54a2.34,2.34,0,0,0,3.387-.081l24.517-26.995V75l-31.2,31.248Zm0,0" transform="translate(-216.653 -66.225)" fill="#6fc8f1"></path></svg>