<svg xmlns="http://www.w3.org/2000/svg" width="17.012" height="13.516" viewBox="0 0 17.012 13.516"><g id="top" transform="translate(0.512 13.004) rotate(-90)"><path id="Path_236" data-name="Path 236" d="M2.605.455,6.157,4.007,9.709.455a1.558,1.558,0,0,1,2.2,2.2L6.561,8.009a.569.569,0,0,1-.808,0L.4,2.658a1.56,1.56,0,0,1,2.2-2.2Z" transform="translate(0.111 7.823)" fill="#fff" stroke="#383838" stroke-width="1"></path><path id="Path_237" data-name="Path 237" d="M6.673,8.067a.569.569,0,0,1-.808,0L.514,2.717a1.56,1.56,0,1,1,2.2-2.2L6.269,4.043,9.821.491a1.558,1.558,0,0,1,2.2,2.2Z" transform="translate(0 0)" fill="#fff" stroke="#383838" stroke-width="1"></path></g></svg>